<svg width="175" height="175" viewBox="0 0 175 175" fill="none" xmlns="http://www.w3.org/2000/svg">
<path fill-rule="evenodd" clip-rule="evenodd" d="M146.855 65.5106C147.065 62.0652 150.028 59.4422 153.473 59.6519L162.483 60.2003C174.444 60.977 178.531 75.9448 169.835 83.1868L163.048 88.8813C160.404 91.1 156.462 90.7551 154.243 88.1108C152.025 85.4666 152.369 81.5244 155.014 79.3056L161.835 73.5822C161.908 73.5215 161.939 73.478 161.952 73.4571C161.967 73.4342 161.979 73.4073 161.989 73.3703C162.011 73.286 162.019 73.1407 161.967 72.9727C161.915 72.8053 161.838 72.7239 161.815 72.7047C161.808 72.6984 161.805 72.6973 161.803 72.6963C161.801 72.6955 161.766 72.6807 161.68 72.6745L152.714 72.1288C149.268 71.9191 146.645 68.956 146.855 65.5106Z" fill="white"/>
<path fill-rule="evenodd" clip-rule="evenodd" d="M143.114 97.261C145.334 99.904 144.991 103.846 142.348 106.067L134.498 112.66C134.419 112.726 134.36 112.812 134.327 112.91C134.296 113.007 134.291 113.11 134.315 113.208L136.889 123.426C137.732 126.773 135.702 130.17 132.355 131.013C129.008 131.857 125.611 129.827 124.767 126.48L122.184 116.224C121.592 113.838 121.686 111.333 122.455 108.998C123.222 106.672 124.627 104.609 126.511 103.045L134.308 96.4952C136.951 94.2751 140.893 94.6179 143.114 97.261Z" fill="white"/>
<path fill-rule="evenodd" clip-rule="evenodd" d="M135.914 144.993C139.257 144.135 142.663 146.149 143.522 149.492L145.715 158.028C148.474 168.921 136.711 178.725 126.478 172.271L118.815 167.422C115.898 165.577 115.029 161.716 116.874 158.799C118.72 155.882 122.581 155.013 125.498 156.859L133.147 161.698C133.148 161.699 133.146 161.698 133.147 161.698C133.22 161.744 133.265 161.76 133.277 161.764C133.294 161.76 133.348 161.746 133.422 161.689C133.517 161.618 133.577 161.528 133.604 161.455C133.617 161.422 133.625 161.386 133.628 161.342C133.63 161.3 133.629 161.223 133.599 161.103L131.415 152.602C130.556 149.259 132.57 145.852 135.914 144.993Z" fill="white"/>
<path fill-rule="evenodd" clip-rule="evenodd" d="M105.509 147.101C103.582 149.965 99.6981 150.724 96.8344 148.797L88.3295 143.073C88.2445 143.015 88.1449 142.982 88.0419 142.978C87.9405 142.974 87.8401 142.998 87.7519 143.048L78.6424 148.343C75.6582 150.078 71.8327 149.065 70.098 146.081C68.3633 143.097 69.3762 139.271 72.3604 137.537L81.5041 132.221C83.6339 130.993 86.0672 130.392 88.5237 130.487C90.9708 130.581 93.3418 131.363 95.3656 132.741L103.813 138.426C106.677 140.353 107.436 144.237 105.509 147.101Z" fill="white"/>
<path fill-rule="evenodd" clip-rule="evenodd" d="M40.8369 131.075C37.5686 129.964 35.8195 126.415 36.9301 123.146L40.2284 113.44C40.2623 113.343 40.2682 113.238 40.2451 113.137C40.2223 113.039 40.1726 112.948 40.1014 112.876L32.6066 105.47C30.1514 103.044 30.1278 99.0863 32.5541 96.6311C34.9803 94.1758 38.9375 94.1523 41.3927 96.5785L48.9157 104.013C50.6581 105.747 51.8752 107.938 52.4266 110.334C52.9759 112.72 52.8424 115.213 52.0416 117.527L48.7654 127.168C47.6548 130.436 44.1051 132.186 40.8369 131.075Z" fill="white"/>
<path fill-rule="evenodd" clip-rule="evenodd" d="M42.535 61.4592C42.4457 58.0086 45.1706 55.1389 48.6212 55.0495L58.8692 54.7842C58.9723 54.7824 59.0727 54.7516 59.1589 54.6952C59.2437 54.6396 59.3114 54.5616 59.3545 54.4698L63.7086 44.8748C65.135 41.7315 68.8395 40.3397 71.9827 41.7661C75.126 43.1925 76.5178 46.897 75.0914 50.0402L70.7209 59.6713C69.6971 61.9063 68.0626 63.8066 66.0059 65.1531C63.957 66.4946 61.5721 67.2322 59.124 67.2818L48.9447 67.5453C45.4941 67.6347 42.6244 64.9098 42.535 61.4592Z" fill="white"/>
<path fill-rule="evenodd" clip-rule="evenodd" d="M109.01 40.4761C112.447 40.1645 115.487 42.6987 115.798 46.1363L116.724 56.346C116.732 56.4486 116.769 56.5469 116.831 56.6293C116.892 56.7103 116.975 56.7729 117.069 56.8099L126.925 60.5363C130.153 61.7571 131.781 65.3641 130.56 68.5928C129.34 71.8215 125.733 73.4492 122.504 72.2285L112.611 68.4881C110.315 67.6105 108.313 66.1019 106.837 64.1363C105.366 62.1782 104.476 59.8458 104.269 57.406L103.349 47.2649C103.038 43.8272 105.572 40.7878 109.01 40.4761Z" fill="white"/>
<path fill-rule="evenodd" clip-rule="evenodd" d="M99.8989 25.712C103.005 24.3222 104.456 20.8648 103.138 17.9895L99.6936 10.4709C95.0754 0.506139 79.9489 2.26574 76.1127 12.2528L73.0793 20.0617C71.8975 23.1043 73.5015 26.3572 76.6621 27.3274C79.8227 28.2975 83.3429 26.6175 84.5248 23.5749L87.5735 15.7263C87.6056 15.6424 87.6356 15.6007 87.6505 15.582C87.667 15.5615 87.6876 15.5414 87.7186 15.5201C87.789 15.4715 87.9204 15.4138 88.0921 15.3993C88.2633 15.3848 88.3634 15.422 88.3884 15.4347C88.3968 15.4389 88.3986 15.4407 88.4004 15.4426C88.4017 15.4439 88.4268 15.4688 88.4606 15.5402L91.8887 23.0223C93.206 25.8976 96.7923 27.1018 99.8989 25.712Z" fill="white"/>
<path fill-rule="evenodd" clip-rule="evenodd" d="M25.3954 63.7889C25.1514 60.3944 22.3982 57.8493 19.2458 58.1043L11.0025 58.7711C0.0593083 59.7043 -3.45858 74.5208 4.61515 81.5403L10.9165 87.0606C13.3716 89.2115 16.977 88.8162 18.9692 86.1777C20.9615 83.5393 20.5862 79.6568 18.131 77.5059L11.7976 71.9576C11.7298 71.8988 11.7007 71.8563 11.6883 71.8359C11.6747 71.8135 11.6629 71.7872 11.6534 71.7508C11.6318 71.668 11.6225 71.5248 11.6676 71.3585C11.7125 71.1926 11.7817 71.1113 11.8022 71.0921C11.809 71.0857 11.8113 71.0846 11.8136 71.0836C11.8153 71.0828 11.8473 71.0677 11.926 71.0604L20.1293 70.3969C23.2816 70.1419 25.6394 67.1834 25.3954 63.7889Z" fill="white"/>
<path fill-rule="evenodd" clip-rule="evenodd" d="M36.6404 144.908C33.2539 144.571 30.2778 146.851 29.9932 150.001L29.2491 158.238C28.3084 169.181 42.3114 175.166 50.6011 168.403L57.1122 163.132C59.6491 161.078 59.8724 157.458 57.6111 155.046C55.3497 152.634 51.4599 152.344 48.923 154.398L42.3788 159.696C42.3093 159.753 42.2625 159.774 42.2403 159.783C42.2159 159.793 42.188 159.8 42.1505 159.803C42.0652 159.81 41.9225 159.795 41.7663 159.722C41.6105 159.65 41.5421 159.568 41.5266 159.544C41.5215 159.537 41.5209 159.534 41.5202 159.532C41.5197 159.53 41.5103 159.496 41.5165 159.417L42.2571 151.22C42.5416 148.07 40.027 145.244 36.6404 144.908Z" fill="white"/>
</svg>
