<svg width="36" height="36" viewBox="0 0 36 36" fill="none" xmlns="http://www.w3.org/2000/svg">
<path fill-rule="evenodd" clip-rule="evenodd" d="M18 3.375C12.4081 3.375 7.875 7.90812 7.875 13.5C7.875 19.0919 12.4081 23.625 18 23.625C23.5919 23.625 28.125 19.0919 28.125 13.5C28.125 7.90812 23.5919 3.375 18 3.375ZM5.625 13.5C5.625 6.66548 11.1655 1.125 18 1.125C24.8345 1.125 30.375 6.66548 30.375 13.5C30.375 20.3345 24.8345 25.875 18 25.875C11.1655 25.875 5.625 20.3345 5.625 13.5Z" fill="white"/>
<path fill-rule="evenodd" clip-rule="evenodd" d="M18 7.875C14.8934 7.875 12.375 10.3934 12.375 13.5C12.375 16.6066 14.8934 19.125 18 19.125C21.1066 19.125 23.625 16.6066 23.625 13.5C23.625 10.3934 21.1066 7.875 18 7.875ZM10.125 13.5C10.125 9.15076 13.6508 5.625 18 5.625C22.3492 5.625 25.875 9.15076 25.875 13.5C25.875 17.8492 22.3492 21.375 18 21.375C13.6508 21.375 10.125 17.8492 10.125 13.5Z" fill="white"/>
<path fill-rule="evenodd" clip-rule="evenodd" d="M11.25 21.375C11.8713 21.375 12.375 21.8787 12.375 22.5V31.9297L17.4969 29.3688C17.8136 29.2104 18.1864 29.2104 18.5031 29.3688L23.625 31.9297V22.5C23.625 21.8787 24.1287 21.375 24.75 21.375C25.3713 21.375 25.875 21.8787 25.875 22.5V33.75C25.875 34.1399 25.6731 34.502 25.3414 34.707C25.0098 34.912 24.5956 34.9306 24.2469 34.7562L18 31.6328L11.7531 34.7562C11.4044 34.9306 10.9902 34.912 10.6586 34.707C10.3269 34.502 10.125 34.1399 10.125 33.75V22.5C10.125 21.8787 10.6287 21.375 11.25 21.375Z" fill="white"/>
</svg>
