<svg width="21" height="17" viewBox="0 0 21 17" fill="none" xmlns="http://www.w3.org/2000/svg">
<path fill-rule="evenodd" clip-rule="evenodd" d="M9.76991 1.11667C9.99111 0.986262 10.2432 0.91748 10.5 0.91748C10.7568 0.91748 11.0089 0.986261 11.2301 1.11667C11.451 1.24696 11.6331 1.43399 11.7574 1.65836M11.7574 1.65836L14.3951 6.41335C14.3962 6.41492 14.3978 6.4161 14.3996 6.41671C14.4016 6.41737 14.4038 6.4173 14.4058 6.4165C14.4059 6.41647 14.4057 6.41653 14.4058 6.4165L18.9497 4.39597L18.9522 4.3949C19.1974 4.28693 19.468 4.24965 19.7333 4.28728C19.9986 4.32491 20.2481 4.43595 20.4536 4.60786C20.6592 4.77978 20.8126 5.00572 20.8965 5.2602C20.9803 5.514 20.9916 5.78609 20.9292 6.04594C20.9291 6.04664 20.9289 6.04733 20.9287 6.04803L18.6374 15.7793C18.5917 15.9671 18.5088 16.1438 18.3937 16.2991C18.2785 16.4543 18.1334 16.5849 17.967 16.6831C17.8005 16.7813 17.616 16.8452 17.4245 16.8709C17.2329 16.8966 17.0381 16.8837 16.8516 16.8329L16.8488 16.8321C12.6915 15.681 8.29951 15.681 4.14217 16.8321L4.13935 16.8329C3.95287 16.8837 3.75809 16.8966 3.56652 16.8709C3.37494 16.8452 3.19048 16.7813 3.02401 16.6831C2.85754 16.5849 2.71244 16.4543 2.59729 16.2991C2.48213 16.1438 2.39926 15.9671 2.35356 15.7793L2.35215 15.7735L0.0712467 6.04803C0.0710282 6.04712 0.0708106 6.04622 0.0705938 6.04531C0.00841239 5.78566 0.0197721 5.51379 0.103428 5.2602C0.187375 5.00573 0.340781 4.77978 0.546331 4.60786C0.751882 4.43595 1.00139 4.32491 1.2667 4.28728C1.53201 4.24965 1.80256 4.28693 2.04781 4.3949L2.05022 4.39597L6.59392 6.4164C6.594 6.41643 6.59384 6.41636 6.59392 6.4164C6.59589 6.4172 6.59833 6.41737 6.60036 6.41671C6.60219 6.4161 6.60377 6.41492 6.60488 6.41335L9.24255 1.65836C9.36686 1.43399 9.54894 1.24695 9.76991 1.11667M7.85404 7.12487C7.6768 7.43561 7.39066 7.66962 7.05095 7.78176C6.71125 7.89389 6.34205 7.87617 6.01465 7.73201L6.01225 7.73095L1.46857 5.71054L1.46968 5.71516L3.75047 15.44C3.75077 15.441 3.75123 15.4419 3.75182 15.4427C3.75229 15.4433 3.75284 15.4439 3.75346 15.4443C3.75378 15.4446 3.75412 15.4448 3.75448 15.445C3.75552 15.4457 3.75666 15.4461 3.75785 15.4462C3.75894 15.4464 3.76006 15.4463 3.76114 15.446C8.16873 14.2261 12.8249 14.2264 17.2324 15.4468L17.0406 16.1394L17.2296 15.446C17.2307 15.4463 17.2312 15.4469 17.2324 15.4468C17.2336 15.4466 17.2355 15.4457 17.2365 15.445C17.2375 15.4444 17.2384 15.4436 17.2392 15.4427C17.2396 15.4421 17.2399 15.4415 17.2402 15.4409C17.2403 15.4406 17.2404 15.4403 17.2405 15.4399C17.2406 15.4398 17.2405 15.4401 17.2405 15.4399L19.5304 5.71455L19.5314 5.71054L14.9877 7.73095L14.9853 7.73201C14.6579 7.87617 14.2887 7.89389 13.949 7.78176C13.6093 7.66962 13.3232 7.43558 13.146 7.12485L13.1417 7.11741L10.5 2.35498L7.85404 7.12487Z" fill="#385BD8"/>
<path fill-rule="evenodd" clip-rule="evenodd" d="M13.2977 13.2423C11.438 13.0412 9.56199 13.0412 7.70224 13.2423C7.30759 13.285 6.95307 12.9996 6.9104 12.605C6.86773 12.2103 7.15307 11.8558 7.54773 11.8131C9.51018 11.601 11.4898 11.601 13.4522 11.8131C13.8469 11.8558 14.1322 12.2103 14.0896 12.605C14.0469 12.9996 13.6924 13.285 13.2977 13.2423Z" fill="#385BD8"/>
</svg>
