<svg width="21" height="20" viewBox="0 0 21 20" fill="none" xmlns="http://www.w3.org/2000/svg">
<path fill-rule="evenodd" clip-rule="evenodd" d="M6.60575 4.03091C6.8424 3.98118 7.08835 3.98948 7.32074 4.05502C7.55258 4.1204 7.76343 4.24064 7.9338 4.40461C7.93421 4.405 7.93462 4.4054 7.93504 4.4058L16.3939 12.4969C16.3944 12.4974 16.3949 12.4978 16.3954 12.4983C16.5667 12.6612 16.6923 12.8628 16.7607 13.0845C16.8292 13.3068 16.8379 13.5421 16.7859 13.7684C16.7339 13.9948 16.6229 14.2049 16.4633 14.3792C16.3037 14.5536 16.1006 14.6865 15.8729 14.7657L2.57149 19.3876C2.31567 19.4797 2.03753 19.4997 1.77009 19.4452C1.50033 19.3901 1.253 19.2616 1.05796 19.075C0.862922 18.8884 0.728519 18.6519 0.670983 18.3938C0.613934 18.138 0.634872 17.8719 0.731229 17.6272L5.56313 4.90432C5.64589 4.68651 5.78489 4.49215 5.96717 4.33946C6.14944 4.18678 6.36911 4.08064 6.60575 4.03091ZM1.40509 17.8664L2.07647 18.1119C2.07708 18.1103 2.07722 18.1086 2.07686 18.107C2.0765 18.1054 2.07565 18.1039 2.07443 18.1027C2.0732 18.1016 2.07165 18.1008 2.06995 18.1004C2.0683 18.1001 2.06659 18.1002 2.065 18.1007L2.07215 18.0982L1.40509 17.8664ZM2.08325 18.0943L15.3819 13.4734L15.3797 13.4713L6.91639 5.37598L6.91421 5.37389L2.08325 18.0943Z" fill="#385BD8"/>
<path fill-rule="evenodd" clip-rule="evenodd" d="M17.4063 1.375C17.8032 1.375 18.125 1.6828 18.125 2.0625H17.4063C18.125 2.0625 18.125 2.06215 18.125 2.0625L18.125 2.06394L18.125 2.06558L18.125 2.06945L18.1249 2.0795C18.1247 2.08722 18.1245 2.09695 18.1241 2.10857C18.1233 2.13178 18.1218 2.16265 18.119 2.20011C18.1134 2.27478 18.1026 2.37697 18.0815 2.49779C18.04 2.73618 17.9556 3.06453 17.7796 3.40121C17.6022 3.74058 17.3248 4.10086 16.8953 4.37477C16.4613 4.65154 15.9148 4.8125 15.25 4.8125C14.8367 4.8125 14.5745 4.90936 14.4021 5.0193C14.2252 5.13211 14.0983 5.28745 14.0062 5.46371C13.9126 5.64266 13.8623 5.82993 13.8364 5.97826C13.8238 6.0508 13.8177 6.10974 13.8149 6.14786C13.8135 6.1668 13.8129 6.18024 13.8126 6.18724L13.8125 6.1923C13.8098 6.56979 13.489 6.875 13.0938 6.875C12.6968 6.875 12.375 6.5672 12.375 6.1875H13.0938C12.375 6.1875 12.375 6.18785 12.375 6.1875L12.375 6.18606L12.375 6.18442L12.375 6.18055L12.3752 6.1705C12.3753 6.16278 12.3755 6.15305 12.3759 6.14143C12.3767 6.11822 12.3783 6.08735 12.3811 6.04989C12.3866 5.97522 12.3974 5.87303 12.4185 5.75221C12.46 5.51382 12.5444 5.18547 12.7204 4.84879C12.8978 4.50942 13.1752 4.14914 13.6047 3.87523C14.0388 3.59846 14.5852 3.4375 15.25 3.4375C15.6633 3.4375 15.9255 3.34064 16.0979 3.2307C16.2748 3.11789 16.4017 2.96254 16.4939 2.78629C16.5874 2.60734 16.6378 2.42007 16.6636 2.27174C16.6762 2.1992 16.6823 2.14026 16.6851 2.10214C16.6865 2.0832 16.6871 2.06976 16.6874 2.06276L16.6875 2.0577C16.6902 1.68021 17.011 1.375 17.4063 1.375Z" fill="#385BD8"/>
<path fill-rule="evenodd" clip-rule="evenodd" d="M2.66678 12.7139C2.94747 12.4454 3.40256 12.4454 3.68325 12.7139L7.70825 16.5639C7.98894 16.8323 7.98894 17.2676 7.70825 17.5361C7.42756 17.8046 6.97247 17.8046 6.69178 17.5361L2.66678 13.6861C2.38609 13.4177 2.38609 12.9824 2.66678 12.7139Z" fill="#385BD8"/>
<path fill-rule="evenodd" clip-rule="evenodd" d="M10.9375 0.6875C11.3345 0.6875 11.6563 0.995304 11.6563 1.375V3.4375C11.6563 3.8172 11.3345 4.125 10.9375 4.125C10.5406 4.125 10.2188 3.8172 10.2188 3.4375V1.375C10.2188 0.995304 10.5406 0.6875 10.9375 0.6875Z" fill="#385BD8"/>
<path fill-rule="evenodd" clip-rule="evenodd" d="M16.898 9.13886C17.1787 8.87038 17.6338 8.87038 17.9145 9.13886L19.352 10.5139C19.6327 10.7824 19.6327 11.2176 19.352 11.4861C19.0713 11.7546 18.6162 11.7546 18.3355 11.4861L16.898 10.1111C16.6173 9.84265 16.6173 9.40735 16.898 9.13886Z" fill="#385BD8"/>
<path fill-rule="evenodd" clip-rule="evenodd" d="M20.2444 5.97009C20.3699 6.3303 20.1664 6.71965 19.7898 6.83972L17.6336 7.52722C17.257 7.64729 16.8499 7.45262 16.7244 7.09241C16.5989 6.7322 16.8024 6.34285 17.179 6.22278L19.3352 5.53528C19.7118 5.41521 20.1189 5.60988 20.2444 5.97009Z" fill="#385BD8"/>
<path fill-rule="evenodd" clip-rule="evenodd" d="M4.39178 8.17636C4.67247 7.90788 5.12756 7.90788 5.40825 8.17636L12.452 14.9139C12.7327 15.1823 12.7327 15.6177 12.452 15.8861C12.1713 16.1546 11.7162 16.1546 11.4355 15.8861L4.39178 9.14864C4.11109 8.88015 4.11109 8.44485 4.39178 8.17636Z" fill="#385BD8"/>
</svg>
