<svg width="175" height="169" viewBox="0 0 175 169" fill="none" xmlns="http://www.w3.org/2000/svg">
<path d="M87 136V7L59 57L5 65.5L45 106.5L37 161L87 136Z" fill="#FFC736"/>
<path fill-rule="evenodd" clip-rule="evenodd" d="M87.4873 0.0490723C90.9391 0.0490723 93.7373 2.84729 93.7373 6.29907V135.518C93.7373 138.97 90.9391 141.768 87.4873 141.768C84.0355 141.768 81.2373 138.97 81.2373 135.518V6.29907C81.2373 2.84729 84.0355 0.0490723 87.4873 0.0490723Z" fill="white"/>
<path fill-rule="evenodd" clip-rule="evenodd" d="M147.343 60.0599C147.552 56.6145 150.515 53.9915 153.961 54.2012L162.97 54.7496C174.932 55.5263 179.019 70.4941 170.322 77.7361L163.536 83.4306C160.892 85.6493 156.949 85.3044 154.731 82.6601C152.512 80.0159 152.857 76.0737 155.501 73.855L162.322 68.1315C162.395 68.0708 162.426 68.0273 162.439 68.0065C162.454 67.9835 162.466 67.9567 162.476 67.9196C162.498 67.8353 162.506 67.69 162.454 67.522C162.402 67.3546 162.326 67.2732 162.303 67.2541C162.295 67.2477 162.293 67.2467 162.29 67.2456C162.288 67.2448 162.253 67.2301 162.167 67.2239L153.201 66.6781C149.756 66.4684 147.133 63.5053 147.343 60.0599Z" fill="white"/>
<path fill-rule="evenodd" clip-rule="evenodd" d="M143.601 91.8103C145.821 94.4533 145.478 98.3957 142.835 100.616L134.986 107.21C134.906 107.275 134.847 107.362 134.815 107.46C134.783 107.556 134.779 107.659 134.802 107.758L137.376 117.975C138.219 121.323 136.189 124.72 132.842 125.563C129.495 126.406 126.098 124.376 125.255 121.029L122.671 110.773C122.079 108.387 122.173 105.882 122.943 103.547C123.709 101.221 125.115 99.1584 126.998 97.594L134.795 91.0446C137.438 88.8244 141.381 89.1672 143.601 91.8103Z" fill="white"/>
<path fill-rule="evenodd" clip-rule="evenodd" d="M80.182 2.3037C82.323 0.804294 84.8734 0 87.4872 0C90.101 0 92.6514 0.804298 94.7923 2.3037C96.9046 3.78301 98.5173 5.86825 99.4182 8.2828L112.59 41.4857L116.575 51.4857L116.628 51.6258C116.644 51.6685 116.672 51.7057 116.709 51.7328C116.745 51.7598 116.789 51.7757 116.835 51.7783L116.853 51.7794L127.087 52.4044C130.532 52.6148 133.155 55.5784 132.944 59.0237C132.734 62.4691 129.77 65.0916 126.325 64.8812L116.109 64.2572C116.106 64.257 116.103 64.2569 116.1 64.2567C113.633 64.1114 111.262 63.2517 109.275 61.7821C107.31 60.3282 105.805 58.3396 104.939 56.0543L87.7714 12.8225C87.7493 12.7667 87.728 12.7106 87.7074 12.6543C87.691 12.6091 87.6611 12.57 87.6216 12.5424C87.5822 12.5148 87.5353 12.5 87.4872 12.5C87.4391 12.5 87.3921 12.5148 87.3527 12.5424C87.3133 12.57 87.2834 12.6091 87.2669 12.6543C87.2462 12.7113 87.2246 12.7681 87.2022 12.8245L70.0366 56.0506C69.1714 58.3374 67.6659 60.3274 65.6993 61.7821C63.7163 63.249 61.35 64.1083 58.8882 64.2559L12.8141 67.2234C12.8134 67.2234 12.8147 67.2233 12.8141 67.2234C12.7231 67.2295 12.6855 67.2451 12.6848 67.2454C12.682 67.2465 12.6796 67.2473 12.6716 67.2541C12.6489 67.2732 12.5721 67.3546 12.5202 67.522C12.4683 67.69 12.476 67.8353 12.4982 67.9196C12.508 67.9567 12.5205 67.9835 12.535 68.0065C12.5482 68.0273 12.5791 68.0709 12.6522 68.1316L12.6623 68.14L47.9543 97.5761C47.9584 97.5795 47.9625 97.5828 47.9665 97.5862C49.855 99.1516 51.2639 101.218 52.0317 103.547C52.8012 105.882 52.8953 108.387 52.3032 110.773L52.2952 110.805L41.7457 152.378C41.5199 153.261 41.8314 153.946 42.4023 154.38C42.6944 154.602 42.9896 154.698 43.2228 154.714C43.4157 154.727 43.6828 154.7 44.0536 154.464L80.696 131.259C80.6993 131.257 80.7026 131.255 80.7059 131.253C82.7336 129.966 85.0856 129.283 87.4872 129.283C89.8925 129.283 92.248 129.968 94.2778 131.259C94.278 131.259 94.2776 131.259 94.2778 131.259L103.259 136.96C106.173 138.81 107.036 142.672 105.186 145.586C103.336 148.5 99.4737 149.363 96.5595 147.513L87.5752 141.81C87.5501 141.794 87.5169 141.783 87.4872 141.783C87.4575 141.783 87.4284 141.792 87.4034 141.807L87.3935 141.814L50.7645 165.009C50.7626 165.011 50.7607 165.012 50.7588 165.013C39.5338 172.15 26.5691 161.3 29.6334 149.289C29.6339 149.287 29.6329 149.291 29.6334 149.289L40.1711 107.763C40.1717 107.76 40.1723 107.758 40.1729 107.755C40.1958 107.658 40.1912 107.555 40.1598 107.46C40.1275 107.362 40.0683 107.275 39.9889 107.209L39.9683 107.192L4.66594 77.7477C4.66426 77.7463 4.66259 77.7449 4.66091 77.7435C-4.04715 70.5043 0.0387721 55.5266 12.0041 54.7497L58.1398 51.7782C58.1852 51.7756 58.229 51.7598 58.2656 51.7328C58.3022 51.7057 58.3301 51.6685 58.3459 51.6258L58.3972 51.4923L75.5567 8.28159C76.4576 5.86756 78.0701 3.78277 80.182 2.3037Z" fill="white"/>
<path fill-rule="evenodd" clip-rule="evenodd" d="M136.401 139.543C139.744 138.684 143.151 140.698 144.01 144.041L146.202 152.577C148.962 163.47 137.198 173.274 126.965 166.82L119.302 161.971C116.385 160.126 115.516 156.265 117.362 153.348C119.207 150.431 123.068 149.563 125.985 151.408L133.634 156.247C133.635 156.248 133.634 156.247 133.634 156.247C133.707 156.293 133.752 156.309 133.765 156.313C133.781 156.309 133.835 156.295 133.91 156.238C134.004 156.167 134.065 156.077 134.092 156.004C134.104 155.971 134.113 155.935 134.115 155.891C134.117 155.849 134.116 155.772 134.087 155.652L131.903 147.151C131.044 143.808 133.058 140.401 136.401 139.543Z" fill="white"/>
</svg>
