<svg width="471" height="430" viewBox="0 0 471 430" fill="none" xmlns="http://www.w3.org/2000/svg">
<path d="M440 114.24L240 35V234.76L440 314V114.24Z" fill="white"/>
<path d="M235.5 396L38 319.144L235.136 243L433 319.5L235.5 396Z" fill="white"/>
<path d="M32.3678 113.693L32 313L231 234.307V35L32.3678 113.693Z" fill="white"/>
<path d="M22.031 345.81V321.418L235.261 406.395L448.49 321.812V345.416L235.261 430L22.031 345.81Z" fill="white"/>
<path d="M0 336.975V92.8454L22.4245 108.189L22.0311 345.81L0 336.975Z" fill="white"/>
<path d="M448.49 108.238L469.735 92.8454L470.128 336.761L448.49 345.416V108.238Z" fill="white"/>
<path d="M22.4245 108.188L0 92.8454L234.867 0L470.128 93.2388L448.49 108.582L234.867 23.9982L22.4245 108.188Z" fill="white"/>
<path d="M22.031 345.81V321.418L235.261 406.349V430L22.031 345.81Z" fill="white"/>
<path d="M448.49 345.416V321.812L235.261 406.395V430L448.49 345.416Z" fill="white"/>
</svg>
