<svg width="800" height="136" viewBox="0 0 800 136" fill="none" xmlns="http://www.w3.org/2000/svg">
<path d="M138.516 35.9638L75.554 11.0183V73.9042L138.516 98.8497V35.9638Z" fill="white"/>
<path d="M74.1372 124.664L11.9626 100.469L74.0225 76.4983L136.312 100.581L74.1372 124.664Z" fill="white"/>
<path d="M10.1895 35.7915L10.0737 98.5349L72.7205 73.7617V11.0183L10.1895 35.7915Z" fill="white"/>
<path d="M6.93555 108.864V101.185L74.0619 127.936L141.188 101.309V108.74L74.0619 135.367L6.93555 108.864Z" fill="white"/>
<path d="M0 106.082V29.2284L7.05941 34.0585L6.93556 108.864L0 106.082Z" fill="white"/>
<path d="M141.188 34.0741L147.876 29.2284L148 106.015L141.188 108.74V34.0741Z" fill="white"/>
<path d="M7.05941 34.0586L0 29.2285L73.9381 0L148 29.3523L141.188 34.1824L73.9381 7.55481L7.05941 34.0586Z" fill="white"/>
<path d="M6.93555 108.864V101.185L74.0619 127.922V135.367L6.93555 108.864Z" fill="white"/>
<path d="M141.188 108.74V101.309L74.062 127.936V135.367L141.188 108.74Z" fill="white"/>
<path d="M184 42.8864V29.1818H243.011V42.8864H221.841V99H205.205V42.8864H184ZM255.446 118.636C253.446 118.636 251.56 118.477 249.787 118.159C248.014 117.864 246.491 117.466 245.219 116.966L248.901 104.864C250.537 105.409 252.014 105.727 253.332 105.818C254.673 105.909 255.821 105.693 256.776 105.17C257.753 104.67 258.503 103.773 259.026 102.477L259.673 100.909L241.06 46.6364H258.514L268.162 84H268.707L278.491 46.6364H296.048L276.31 104.011C275.355 106.875 274.003 109.398 272.253 111.58C270.526 113.784 268.287 115.511 265.537 116.761C262.81 118.011 259.446 118.636 255.446 118.636ZM302.44 118.636V46.6364H318.94V55.6023H319.452C320.134 54.0114 321.099 52.4773 322.349 51C323.622 49.5227 325.236 48.3182 327.19 47.3864C329.168 46.4318 331.531 45.9545 334.281 45.9545C337.918 45.9545 341.315 46.9091 344.474 48.8182C347.656 50.7273 350.224 53.6705 352.179 57.6477C354.134 61.625 355.111 66.6932 355.111 72.8523C355.111 78.7841 354.168 83.75 352.281 87.75C350.418 91.75 347.895 94.75 344.713 96.75C341.554 98.75 338.043 99.75 334.179 99.75C331.543 99.75 329.259 99.3182 327.327 98.4545C325.395 97.5909 323.77 96.4545 322.452 95.0455C321.156 93.6364 320.156 92.125 319.452 90.5114H319.111V118.636H302.44ZM318.77 72.8182C318.77 75.6364 319.145 78.0909 319.895 80.1818C320.668 82.2727 321.77 83.8977 323.202 85.0568C324.656 86.1932 326.395 86.7614 328.418 86.7614C330.463 86.7614 332.202 86.1932 333.634 85.0568C335.065 83.8977 336.145 82.2727 336.872 80.1818C337.622 78.0909 337.997 75.6364 337.997 72.8182C337.997 70 337.622 67.5568 336.872 65.4886C336.145 63.4205 335.065 61.8182 333.634 60.6818C332.224 59.5455 330.486 58.9773 328.418 58.9773C326.372 58.9773 324.634 59.5341 323.202 60.6477C321.77 61.7614 320.668 63.3523 319.895 65.4205C319.145 67.4886 318.77 69.9545 318.77 72.8182ZM363.847 99V46.6364H380.517V99H363.847ZM372.199 40.5341C369.858 40.5341 367.847 39.7614 366.165 38.2159C364.483 36.6477 363.642 34.7614 363.642 32.5568C363.642 30.375 364.483 28.5114 366.165 26.9659C367.847 25.3977 369.858 24.6136 372.199 24.6136C374.563 24.6136 376.574 25.3977 378.233 26.9659C379.915 28.5114 380.756 30.375 380.756 32.5568C380.756 34.7614 379.915 36.6477 378.233 38.2159C376.574 39.7614 374.563 40.5341 372.199 40.5341ZM407.798 69.1364V99H391.128V46.6364H406.98V56.25H407.56C408.719 53.0455 410.696 50.5341 413.491 48.7159C416.287 46.875 419.616 45.9545 423.48 45.9545C427.162 45.9545 430.355 46.7841 433.06 48.4432C435.787 50.0795 437.901 52.375 439.401 55.3295C440.923 58.2614 441.673 61.6932 441.651 65.625V99H424.98V68.8977C425.003 65.9886 424.264 63.7159 422.764 62.0795C421.287 60.4432 419.23 59.625 416.594 59.625C414.844 59.625 413.298 60.0114 411.957 60.7841C410.639 61.5341 409.616 62.6136 408.889 64.0227C408.185 65.4318 407.821 67.1364 407.798 69.1364ZM476.381 119.727C471.403 119.727 467.142 119.034 463.597 117.648C460.051 116.261 457.267 114.364 455.244 111.955C453.222 109.545 452.006 106.818 451.597 103.773L467.381 102.886C467.676 103.955 468.222 104.886 469.017 105.682C469.835 106.477 470.892 107.091 472.188 107.523C473.506 107.955 475.051 108.17 476.824 108.17C479.619 108.17 481.926 107.489 483.744 106.125C485.585 104.784 486.506 102.432 486.506 99.0682V89.8636H485.926C485.267 91.4773 484.267 92.9205 482.926 94.1932C481.585 95.4659 479.915 96.4659 477.915 97.1932C475.938 97.9205 473.665 98.2841 471.097 98.2841C467.278 98.2841 463.778 97.3977 460.597 95.625C457.438 93.8295 454.903 91.0568 452.994 87.3068C451.108 83.5341 450.165 78.6818 450.165 72.75C450.165 66.6364 451.142 61.6023 453.097 57.6477C455.051 53.6705 457.608 50.7273 460.767 48.8182C463.949 46.9091 467.369 45.9545 471.028 45.9545C473.778 45.9545 476.131 46.4318 478.085 47.3864C480.063 48.3182 481.688 49.5227 482.96 51C484.233 52.4773 485.199 54.0114 485.858 55.6023H486.335V46.6364H502.938V99.2045C502.938 103.636 501.824 107.375 499.597 110.42C497.369 113.466 494.256 115.773 490.256 117.341C486.256 118.932 481.631 119.727 476.381 119.727ZM476.892 86.1477C478.915 86.1477 480.642 85.6136 482.074 84.5455C483.506 83.4773 484.608 81.9432 485.381 79.9432C486.153 77.9432 486.54 75.5455 486.54 72.75C486.54 69.9091 486.153 67.4659 485.381 65.4205C484.631 63.3523 483.528 61.7614 482.074 60.6477C480.642 59.5341 478.915 58.9773 476.892 58.9773C474.824 58.9773 473.074 59.5455 471.642 60.6818C470.21 61.8182 469.119 63.4205 468.369 65.4886C467.642 67.5341 467.278 69.9545 467.278 72.75C467.278 75.5455 467.653 77.9432 468.403 79.9432C469.153 81.9432 470.233 83.4773 471.642 84.5455C473.074 85.6136 474.824 86.1477 476.892 86.1477ZM534.19 99V29.1818H563.031C568.259 29.1818 572.77 30.125 576.565 32.0114C580.384 33.875 583.327 36.5568 585.395 40.0568C587.463 43.5341 588.497 47.6591 588.497 52.4318C588.497 57.2727 587.44 61.3864 585.327 64.7727C583.213 68.1364 580.213 70.7045 576.327 72.4773C572.44 74.2273 567.838 75.1023 562.52 75.1023H544.281V61.8068H559.384C561.929 61.8068 564.054 61.4773 565.759 60.8182C567.486 60.1364 568.793 59.1136 569.679 57.75C570.565 56.3636 571.009 54.5909 571.009 52.4318C571.009 50.2727 570.565 48.4886 569.679 47.0795C568.793 45.6477 567.486 44.5795 565.759 43.875C564.031 43.1477 561.906 42.7841 559.384 42.7841H551.065V99H534.19ZM573.497 67.0909L590.884 99H572.474L555.429 67.0909H573.497ZM621.165 99.9886C615.665 99.9886 610.938 98.8636 606.983 96.6136C603.051 94.3409 600.017 91.1818 597.881 87.1364C595.767 83.0682 594.71 78.3523 594.71 72.9886C594.71 67.6023 595.767 62.8864 597.881 58.8409C600.017 54.7727 603.051 51.6136 606.983 49.3636C610.938 47.0909 615.665 45.9545 621.165 45.9545C626.665 45.9545 631.381 47.0909 635.312 49.3636C639.267 51.6136 642.301 54.7727 644.415 58.8409C646.551 62.8864 647.619 67.6023 647.619 72.9886C647.619 78.3523 646.551 83.0682 644.415 87.1364C642.301 91.1818 639.267 94.3409 635.312 96.6136C631.381 98.8636 626.665 99.9886 621.165 99.9886ZM621.267 87.4091C623.267 87.4091 624.96 86.7955 626.347 85.5682C627.733 84.3409 628.79 82.6364 629.517 80.4545C630.267 78.2727 630.642 75.75 630.642 72.8864C630.642 69.9773 630.267 67.4318 629.517 65.25C628.79 63.0682 627.733 61.3636 626.347 60.1364C624.96 58.9091 623.267 58.2955 621.267 58.2955C619.199 58.2955 617.449 58.9091 616.017 60.1364C614.608 61.3636 613.528 63.0682 612.778 65.25C612.051 67.4318 611.688 69.9773 611.688 72.8864C611.688 75.75 612.051 78.2727 612.778 80.4545C613.528 82.6364 614.608 84.3409 616.017 85.5682C617.449 86.7955 619.199 87.4091 621.267 87.4091ZM680.602 99.9886C675.102 99.9886 670.375 98.8636 666.42 96.6136C662.489 94.3409 659.455 91.1818 657.318 87.1364C655.205 83.0682 654.148 78.3523 654.148 72.9886C654.148 67.6023 655.205 62.8864 657.318 58.8409C659.455 54.7727 662.489 51.6136 666.42 49.3636C670.375 47.0909 675.102 45.9545 680.602 45.9545C686.102 45.9545 690.818 47.0909 694.75 49.3636C698.705 51.6136 701.739 54.7727 703.852 58.8409C705.989 62.8864 707.057 67.6023 707.057 72.9886C707.057 78.3523 705.989 83.0682 703.852 87.1364C701.739 91.1818 698.705 94.3409 694.75 96.6136C690.818 98.8636 686.102 99.9886 680.602 99.9886ZM680.705 87.4091C682.705 87.4091 684.398 86.7955 685.784 85.5682C687.17 84.3409 688.227 82.6364 688.955 80.4545C689.705 78.2727 690.08 75.75 690.08 72.8864C690.08 69.9773 689.705 67.4318 688.955 65.25C688.227 63.0682 687.17 61.3636 685.784 60.1364C684.398 58.9091 682.705 58.2955 680.705 58.2955C678.636 58.2955 676.886 58.9091 675.455 60.1364C674.045 61.3636 672.966 63.0682 672.216 65.25C671.489 67.4318 671.125 69.9773 671.125 72.8864C671.125 75.75 671.489 78.2727 672.216 80.4545C672.966 82.6364 674.045 84.3409 675.455 85.5682C676.886 86.7955 678.636 87.4091 680.705 87.4091ZM715.597 99V46.6364H731.449V56.25H732.028C733.119 53.0682 734.96 50.5568 737.551 48.7159C740.142 46.875 743.233 45.9545 746.824 45.9545C750.46 45.9545 753.574 46.8864 756.165 48.75C758.756 50.6136 760.403 53.1136 761.108 56.25H761.653C762.631 53.1364 764.54 50.6477 767.381 48.7841C770.222 46.8977 773.574 45.9545 777.438 45.9545C782.392 45.9545 786.415 47.5455 789.506 50.7273C792.597 53.8864 794.142 58.2273 794.142 63.75V99H777.472V67.5682C777.472 64.9545 776.801 62.9659 775.46 61.6023C774.119 60.2159 772.381 59.5227 770.244 59.5227C767.949 59.5227 766.142 60.2727 764.824 61.7727C763.528 63.25 762.881 65.2386 762.881 67.7386V99H746.858V67.3977C746.858 64.9659 746.199 63.0455 744.881 61.6364C743.563 60.2273 741.824 59.5227 739.665 59.5227C738.21 59.5227 736.926 59.875 735.812 60.5795C734.699 61.2614 733.824 62.2386 733.188 63.5114C732.574 64.7841 732.267 66.2841 732.267 68.0114V99H715.597Z" fill="white"/>
</svg>
