<svg width="148" height="136" viewBox="0 0 148 136" fill="none" xmlns="http://www.w3.org/2000/svg">
<path d="M138.516 35.9638L75.554 11.0183V73.9042L138.516 98.8497V35.9638Z" fill="white"/>
<path d="M74.1372 124.664L11.9626 100.469L74.0225 76.4983L136.312 100.581L74.1372 124.664Z" fill="white"/>
<path d="M10.1895 35.7915L10.0737 98.5349L72.7205 73.7617V11.0183L10.1895 35.7915Z" fill="white"/>
<path d="M6.93555 108.864V101.185L74.0619 127.936L141.188 101.309V108.74L74.0619 135.367L6.93555 108.864Z" fill="white"/>
<path d="M0 106.082V29.2284L7.05941 34.0585L6.93556 108.864L0 106.082Z" fill="white"/>
<path d="M141.188 34.0741L147.876 29.2284L148 106.015L141.188 108.74V34.0741Z" fill="white"/>
<path d="M7.05941 34.0586L0 29.2285L73.9381 0L148 29.3523L141.188 34.1824L73.9381 7.55481L7.05941 34.0586Z" fill="white"/>
<path d="M6.93555 108.864V101.185L74.0619 127.922V135.367L6.93555 108.864Z" fill="white"/>
<path d="M141.188 108.74V101.309L74.062 127.936V135.367L141.188 108.74Z" fill="white"/>
</svg>
