<svg width="176" height="170" viewBox="0 0 176 170" fill="none" xmlns="http://www.w3.org/2000/svg">
<path d="M114.5 60L89 9L63 60L6 69.5L47.5 109.5L37 164.5L89 139.5L137.5 166.5L132 111L168 66.5L114.5 60Z" fill="#FFC736"/>
<path fill-rule="evenodd" clip-rule="evenodd" d="M80.6947 2.75462C82.8357 1.25522 85.3861 0.450928 87.9999 0.450928C90.6137 0.450928 93.1641 1.25523 95.305 2.75462C97.4169 4.23369 99.0294 6.31848 99.9304 8.73252L117.09 51.9432L117.141 52.0768C117.157 52.1195 117.185 52.1566 117.222 52.1837C117.258 52.2108 117.302 52.2266 117.347 52.2292L117.386 52.2315L163.48 55.2004C175.445 55.9773 179.534 70.9555 170.826 78.1946C170.824 78.1959 170.823 78.1973 170.821 78.1986L135.519 107.643L135.498 107.66C135.419 107.726 135.36 107.813 135.327 107.911C135.296 108.006 135.291 108.108 135.314 108.206C135.315 108.208 135.315 108.211 135.316 108.214L146.713 153.022C149.473 163.915 137.71 173.725 127.478 167.271L127.462 167.261L88.0873 142.261C88.0623 142.245 88.0296 142.234 87.9999 142.234C87.9702 142.234 87.9411 142.242 87.9161 142.258L87.9062 142.265L51.2772 165.46C51.2753 165.462 51.2734 165.463 51.2715 165.464C40.0465 172.601 27.0818 161.751 30.1461 149.74C30.1466 149.738 30.1456 149.742 30.1461 149.74L40.6838 108.214C40.6844 108.211 40.685 108.209 40.6856 108.206C40.7085 108.109 40.7039 108.006 40.6725 107.911C40.6402 107.813 40.581 107.726 40.5016 107.66L40.481 107.643L5.17863 78.1986C5.17696 78.1972 5.17528 78.1958 5.17361 78.1945C-3.53445 70.9553 0.551467 55.9776 12.5168 55.2006L58.6525 52.2291C58.6979 52.2265 58.7417 52.2108 58.7783 52.1837C58.8149 52.1566 58.8428 52.1195 58.8586 52.0768L58.9099 51.9432L76.0694 8.73252C76.9703 6.31849 78.5828 4.2337 80.6947 2.75462ZM94.791 131.71C94.7923 131.711 94.7898 131.71 94.791 131.71L134.147 156.698C134.148 156.699 134.145 156.697 134.147 156.698C134.218 156.742 134.265 156.76 134.277 156.764C134.294 156.76 134.348 156.746 134.422 156.689C134.517 156.617 134.577 156.528 134.604 156.455C134.617 156.422 134.625 156.386 134.628 156.342C134.63 156.3 134.629 156.221 134.598 156.098C134.598 156.098 134.598 156.099 134.598 156.098L123.184 111.224C122.592 108.838 122.686 106.333 123.455 103.998C124.223 101.668 125.633 99.6018 127.522 98.0364C127.525 98.0332 127.529 98.0301 127.533 98.027L162.835 68.5825C162.908 68.5218 162.939 68.4783 162.952 68.4574C162.967 68.4344 162.979 68.4076 162.989 68.3705C163.011 68.2862 163.019 68.1409 162.967 67.973C162.915 67.8055 162.838 67.7241 162.815 67.705C162.808 67.6986 162.805 67.6976 162.803 67.6965C162.802 67.6962 162.766 67.6806 162.675 67.6744C162.674 67.6744 162.676 67.6745 162.675 67.6744L116.621 64.7081C116.614 64.7077 116.606 64.7073 116.599 64.7068C114.137 64.5593 111.771 63.6999 109.788 62.233C107.821 60.7783 106.316 58.7883 105.45 56.5015L88.2849 13.2754C88.2625 13.219 88.2409 13.1622 88.2202 13.1052C88.2037 13.06 88.1738 13.0209 88.1343 12.9933C88.0949 12.9657 88.048 12.9509 87.9999 12.9509C87.9518 12.9509 87.9048 12.9657 87.8654 12.9933C87.826 13.0209 87.7961 13.06 87.7796 13.1052C87.7589 13.1622 87.7373 13.219 87.7149 13.2754L70.5493 56.5015C69.6841 58.7883 68.1786 60.7783 66.212 62.233C64.229 63.6999 61.8627 64.5593 59.4009 64.7068L13.3268 67.6743C13.3261 67.6744 13.3274 67.6743 13.3268 67.6743C13.2358 67.6804 13.1982 67.696 13.1975 67.6963C13.1947 67.6975 13.1923 67.6982 13.1843 67.705C13.1616 67.7241 13.0848 67.8055 13.0329 67.973C12.981 68.1409 12.9887 68.2862 13.0109 68.3705C13.0207 68.4076 13.0332 68.4344 13.0477 68.4574C13.0609 68.4783 13.0918 68.5218 13.1649 68.5825L13.175 68.5909L48.467 98.027C48.4711 98.0304 48.4752 98.0338 48.4792 98.0371C50.3677 99.6025 51.7766 101.669 52.5444 103.998C53.3138 106.333 53.408 108.838 52.8159 111.224L52.8079 111.256L42.2584 152.829C42.0326 153.712 42.3441 154.397 42.915 154.831C43.2071 155.053 43.5023 155.149 43.7355 155.165C43.9284 155.178 44.1955 155.151 44.5663 154.915L81.2087 131.71C81.212 131.708 81.2153 131.706 81.2186 131.704C83.2463 130.417 85.5983 129.734 87.9999 129.734C90.404 129.734 92.762 130.421 94.791 131.71Z" fill="white"/>
</svg>
