<?xml-stylesheet type="text/css" href="../../css/gameMap.css"?>
<svg width="957" height="957" viewBox="0 0 957 957" fill="none" xmlns="http://www.w3.org/2000/svg">
<g class="level1">
<g class="base none">
<g class="right">
<path id="path" d="M749 270L477.5 162.5V433.5L749 541V270Z" fill="url(#paint0_linear_18_2794)"></path>
</g>
<g class="floor">
<path id="path_2" d="M478 648.5L207 540.5L477.5 433.5L749 541L478 648.5Z" fill="#57768B"></path>
</g>
<g class="left">
<path id="path_3" d="M207.5 269.5L207 540.5L477.5 433.5V162.5L207.5 269.5Z" fill="url(#paint1_linear_18_2794)"></path>
</g>
<g class="blockDown">
<path id="path_4" d="M207 571.5V540.5L478 648.5L749 541V571L478 678.5L207 571.5Z" fill="#D1D1D1"></path>
</g>
<g class="blockLeft">
<path id="path_5" d="M179 560.272V250L207.5 269.5L207 571.5L179 560.272Z" fill="#E6E6E6"></path>
</g>
<g class="blockRight">
<path id="path_6" d="M749 269.563L776 250L776.5 560L749 571V269.563Z" fill="#ABABAB"></path>
</g>
<g class="blockUp">
<path id="path_7" d="M207.5 269.5L179 250L477.5 132L776.5 250.5L749 270L477.5 162.5L207.5 269.5Z" fill="#D1D1D1"></path>
</g>
<g class="downLeft">
<path id="path_8" d="M207 571.5V540.5L478 648.441V678.5L207 571.5Z" fill="#E6E6E6"></path>
</g>
<g class="downRight">
<path id="path_9" d="M749 571V541L478 648.5V678.5L749 571Z" fill="#ABABAB"></path>
</g>
</g>
<g class="keyboard none">
<g id="group">
<g id="group_2">
<g id="group_3">
<g id="group_4">
<g id="group_5">
<path id="path_10" d="M513.39 523.861L513.398 522.495L512.086 522.967L495.7 515.233C494.684 514.764 492.94 514.755 492.065 515.213L432.014 542.453L427.216 542.515L427.202 545.091C427.2 545.4 427.441 545.671 427.925 545.905L445.037 553.875C446.052 554.344 447.652 554.353 448.672 553.895L512.658 524.823C513.241 524.595 513.388 524.208 513.39 523.861Z" fill="#15323B"></path>
<path id="path_11" d="M492.211 513.684L427.837 541.256C426.813 541.58 426.809 542.35 427.828 542.795L445.01 550.364C446.03 550.809 447.635 550.818 448.659 550.384L512.887 522.811C513.911 522.377 513.915 521.718 512.896 521.272L495.859 513.704C494.84 513.259 493.089 513.249 492.211 513.684V513.684Z" fill="#5C8896"></path>
<path id="path_12" d="M498.431 523.832L496.244 523.38L494.199 523.809L494.196 524.248L496.234 525.249L498.429 524.271L498.431 523.832Z" fill="#15323B"></path>
<path id="path_13" d="M501.358 522.528L499.317 522.077L497.271 522.506L497.268 523.056L499.307 523.946L501.355 523.078L501.358 522.528Z" fill="#15323B"></path>
<path id="path_14" d="M504.43 521.336L502.243 520.884L500.197 521.313L500.195 521.753L502.233 522.643L504.428 521.776L504.43 521.336Z" fill="#15323B"></path>
<path id="path_15" d="M496.247 522.94L494.199 523.809L496.238 524.699L498.432 523.832L496.247 522.94Z" fill="#325B69"></path>
<path id="path_16" d="M499.319 521.638L497.271 522.506L499.309 523.507L501.358 522.528L499.319 521.638Z" fill="#325B69"></path>
<path id="path_17" d="M502.246 520.335L500.197 521.313L502.235 522.203L504.43 521.336L502.246 520.335Z" fill="#325B69"></path>
<path id="path_18" d="M495.519 522.606L493.478 522.156L491.432 522.584L491.429 523.134L493.468 524.024L495.516 523.156L495.519 522.606Z" fill="#15323B"></path>
<path id="path_19" d="M498.591 521.414L496.55 520.963L494.358 521.391L494.356 521.831L496.541 522.722L498.589 521.854L498.591 521.414Z" fill="#15323B"></path>
<path id="path_20" d="M501.517 520.111L499.476 519.66L497.43 520.089L497.428 520.528L499.467 521.419L501.515 520.551L501.517 520.111Z" fill="#15323B"></path>
<path id="path_21" d="M504.589 518.808L502.548 518.358L500.356 518.785L500.354 519.225L502.538 520.116L504.587 519.248L504.589 518.808Z" fill="#15323B"></path>
<path id="path_22" d="M493.48 521.716L491.432 522.584L493.47 523.585L495.519 522.606L493.48 521.716Z" fill="#325B69"></path>
<path id="path_23" d="M496.553 520.413L494.358 521.391L496.543 522.282L498.591 521.414L496.553 520.413Z" fill="#325B69"></path>
<path id="path_24" d="M499.479 519.22L497.43 520.088L499.469 520.979L501.517 520.111L499.479 519.22Z" fill="#325B69"></path>
<path id="path_25" d="M502.551 517.918L500.357 518.785L502.541 519.677L504.59 518.808L502.551 517.918Z" fill="#325B69"></path>
<path id="path_26" d="M492.607 521.381L490.566 520.93L488.52 521.359L488.518 521.799L490.556 522.689L492.604 521.821L492.607 521.381Z" fill="#15323B"></path>
<path id="path_27" d="M495.679 520.079L493.638 519.628L491.592 520.057L491.59 520.496L493.629 521.387L495.677 520.519L495.679 520.079Z" fill="#15323B"></path>
<path id="path_28" d="M498.606 518.776L496.565 518.325L494.519 518.753L494.516 519.193L496.555 520.084L498.603 519.215L498.606 518.776Z" fill="#15323B"></path>
<path id="path_29" d="M501.678 517.473L499.637 517.022L497.591 517.451L497.588 517.891L499.626 518.891L501.675 517.913L501.678 517.473Z" fill="#15323B"></path>
<path id="path_30" d="M490.568 520.491L488.52 521.359L490.559 522.25L492.607 521.381L490.568 520.491Z" fill="#325B69"></path>
<path id="path_31" d="M493.641 519.188L491.592 520.057L493.631 520.947L495.679 520.079L493.641 519.188Z" fill="#325B69"></path>
<path id="path_32" d="M496.567 517.885L494.519 518.753L496.558 519.644L498.606 518.776L496.567 517.885Z" fill="#325B69"></path>
<path id="path_33" d="M499.639 516.583L497.591 517.451L499.629 518.342L501.678 517.473L499.639 516.583Z" fill="#325B69"></path>
<path id="path_34" d="M452.491 543.589L450.305 543.137L448.259 543.566L448.256 544.006L450.295 544.896L452.489 544.029L452.491 543.589Z" fill="#15323B"></path>
<path id="path_35" d="M455.418 542.286L453.377 541.835L451.331 542.264L451.329 542.703L453.368 543.594L455.416 542.725L455.418 542.286Z" fill="#15323B"></path>
<path id="path_36" d="M458.49 540.983L456.303 540.532L454.257 540.96L454.255 541.4L456.294 542.291L458.488 541.423L458.49 540.983Z" fill="#15323B"></path>
<path id="path_37" d="M461.417 539.68L459.375 539.229L457.33 539.658L457.327 540.098L459.366 540.988L461.414 540.12L461.417 539.68Z" fill="#15323B"></path>
<path id="path_38" d="M464.489 538.378L462.302 537.926L460.257 538.355L460.254 538.794L462.292 539.795L464.487 538.817L464.489 538.378Z" fill="#15323B"></path>
<path id="path_39" d="M467.415 537.074L465.375 536.624L463.329 537.052L463.326 537.602L465.364 538.492L467.412 537.624L467.415 537.074Z" fill="#15323B"></path>
<path id="path_40" d="M470.341 535.881L468.3 535.43L466.254 535.859L466.252 536.299L468.291 537.189L470.339 536.321L470.341 535.881Z" fill="#15323B"></path>
<path id="path_41" d="M473.268 534.578L471.227 534.127L469.181 534.556L469.178 534.995L471.217 535.996L473.265 535.018L473.268 534.578Z" fill="#15323B"></path>
<path id="path_42" d="M476.34 533.276L474.299 532.825L472.253 533.253L472.25 533.803L474.289 534.694L476.337 533.825L476.34 533.276Z" fill="#15323B"></path>
<path id="path_43" d="M479.266 532.082L477.225 531.521L475.179 532.06L475.176 532.5L477.215 533.39L479.263 532.522L479.266 532.082Z" fill="#15323B"></path>
<path id="path_44" d="M450.308 542.588L448.259 543.566L450.298 544.457L452.492 543.589L450.308 542.588Z" fill="#325B69"></path>
<path id="path_45" d="M453.379 541.395L451.331 542.264L453.37 543.154L455.418 542.286L453.379 541.395Z" fill="#325B69"></path>
<path id="path_46" d="M456.306 540.092L454.257 540.96L456.296 541.851L458.49 540.983L456.306 540.092Z" fill="#325B69"></path>
<path id="path_47" d="M459.378 538.79L457.33 539.658L459.368 540.548L461.417 539.68L459.378 538.79Z" fill="#325B69"></path>
<path id="path_48" d="M462.305 537.486L460.257 538.355L462.295 539.245L464.489 538.378L462.305 537.486Z" fill="#325B69"></path>
<path id="path_49" d="M465.377 536.184L463.329 537.052L465.367 538.053L467.415 537.074L465.377 536.184Z" fill="#325B69"></path>
<path id="path_50" d="M468.302 534.991L466.254 535.859L468.293 536.749L470.341 535.881L468.302 534.991Z" fill="#325B69"></path>
<path id="path_51" d="M471.229 533.687L469.18 534.556L471.219 535.446L473.267 534.578L471.229 533.687Z" fill="#325B69"></path>
<path id="path_52" d="M474.301 532.385L472.253 533.253L474.291 534.254L476.34 533.276L474.301 532.385Z" fill="#325B69"></path>
<path id="path_53" d="M477.227 531.082L475.179 532.06L477.217 532.95L479.265 532.082L477.227 531.082Z" fill="#325B69"></path>
<path id="path_54" d="M448.116 543.015L446.075 542.565L444.029 542.993L444.027 543.433L446.066 544.323L448.114 543.455L448.116 543.015Z" fill="#FFA100"></path>
<path id="path_55" d="M451.188 541.713L449.001 541.261L446.955 541.69L446.953 542.13L448.991 543.02L451.186 542.153L451.188 541.713Z" fill="#FFA100"></path>
<path id="path_56" d="M454.115 540.41L452.073 539.959L450.028 540.387L450.025 540.827L452.064 541.718L454.112 540.849L454.115 540.41Z" fill="#FFA100"></path>
<path id="path_57" d="M457.187 539.107L455 538.656L452.954 539.084L452.952 539.524L454.99 540.415L457.185 539.547L457.187 539.107Z" fill="#15323B"></path>
<path id="path_58" d="M460.113 537.804L458.073 537.353L456.027 537.782L456.024 538.222L458.062 539.222L460.111 538.244L460.113 537.804Z" fill="#15323B"></path>
<path id="path_59" d="M463.186 536.502L460.999 536.05L458.953 536.479L458.95 537.028L460.989 537.919L463.183 537.051L463.186 536.502Z" fill="#15323B"></path>
<path id="path_60" d="M465.965 535.308L463.925 534.857L461.878 535.285L461.876 535.725L463.915 536.616L465.963 535.747L465.965 535.308Z" fill="#15323B"></path>
<path id="path_61" d="M469.038 534.005L466.997 533.554L464.951 533.983L464.948 534.423L466.987 535.313L469.035 534.445L469.038 534.005Z" fill="#15323B"></path>
<path id="path_62" d="M471.965 532.702L469.923 532.251L467.878 532.68L467.875 533.119L469.913 534.12L471.962 533.142L471.965 532.702Z" fill="#15323B"></path>
<path id="path_63" d="M475.036 531.4L472.996 530.949L470.95 531.377L470.947 531.927L472.985 532.817L475.033 531.949L475.036 531.4Z" fill="#15323B"></path>
<path id="path_64" d="M477.962 530.206L475.921 529.755L473.875 530.184L473.873 530.624L475.911 531.514L477.959 530.646L477.962 530.206Z" fill="#15323B"></path>
<path id="path_65" d="M446.078 542.015L444.029 542.993L446.068 543.884L448.116 543.015L446.078 542.015Z" fill="#FFD25F"></path>
<path id="path_66" d="M449.004 540.822L446.955 541.69L448.994 542.58L451.188 541.713L449.004 540.822Z" fill="#FFD25F"></path>
<path id="path_67" d="M452.076 539.519L450.027 540.387L452.066 541.278L454.114 540.41L452.076 539.519Z" fill="#FFD25F"></path>
<path id="path_68" d="M455.003 538.216L452.954 539.084L454.993 539.975L457.187 539.107L455.003 538.216Z" fill="#325B69"></path>
<path id="path_69" d="M458.075 536.914L456.026 537.782L458.065 538.672L460.113 537.804L458.075 536.914Z" fill="#325B69"></path>
<path id="path_70" d="M461.001 535.61L458.953 536.479L460.991 537.479L463.186 536.502L461.001 535.61Z" fill="#325B69"></path>
<path id="path_71" d="M463.927 534.417L461.878 535.285L463.917 536.176L465.965 535.308L463.927 534.417Z" fill="#325B69"></path>
<path id="path_72" d="M466.999 533.115L464.951 533.983L466.989 534.873L469.038 534.005L466.999 533.115Z" fill="#325B69"></path>
<path id="path_73" d="M469.926 531.811L467.878 532.68L469.916 533.57L471.965 532.702L469.926 531.811Z" fill="#325B69"></path>
<path id="path_74" d="M472.998 530.509L470.95 531.377L472.988 532.378L475.036 531.4L472.998 530.509Z" fill="#325B69"></path>
<path id="path_75" d="M475.924 529.206L473.875 530.184L475.914 531.075L477.962 530.206L475.924 529.206Z" fill="#325B69"></path>
<path id="path_76" d="M483.243 525.398L481.056 524.946L479.011 525.375L479.008 525.924L481.046 526.815L483.24 525.947L483.243 525.398Z" fill="#15323B"></path>
<path id="path_77" d="M486.169 524.204L484.128 523.754L482.082 524.182L482.08 524.622L484.119 525.512L486.167 524.644L486.169 524.204Z" fill="#15323B"></path>
<path id="path_78" d="M489.241 522.902L487.055 522.45L485.009 522.879L485.006 523.319L487.045 524.209L489.239 523.342L489.241 522.902Z" fill="#15323B"></path>
<path id="path_79" d="M481.059 524.506L479.011 525.375L481.049 526.375L483.244 525.398L481.059 524.506Z" fill="#325B69"></path>
<path id="path_80" d="M484.131 523.204L482.082 524.182L484.121 525.073L486.169 524.204L484.131 523.204Z" fill="#325B69"></path>
<path id="path_81" d="M487.057 522.011L485.008 522.879L487.047 523.77L489.241 522.902L487.057 522.011Z" fill="#325B69"></path>
<path id="path_82" d="M476.179 535.913L474.138 535.462L456.292 542.73L456.289 543.17L458.328 544.061L476.176 536.463L476.179 535.913Z" fill="#FFA100"></path>
<path id="path_83" d="M443.741 542.332L441.7 541.881L439.654 542.31L439.652 542.75L441.691 543.64L443.739 542.772L443.741 542.332Z" fill="#15323B"></path>
<path id="path_84" d="M446.813 541.029L444.626 540.578L442.58 541.006L442.577 541.446L444.616 542.337L446.81 541.469L446.813 541.029Z" fill="#FFA100"></path>
<path id="path_85" d="M449.739 539.726L447.698 539.275L445.652 539.704L445.65 540.144L447.688 541.144L449.737 540.166L449.739 539.726Z" fill="#15323B"></path>
<path id="path_86" d="M452.812 538.424L450.625 537.972L448.579 538.401L448.576 538.95L450.615 539.841L452.809 538.974L452.812 538.424Z" fill="#15323B"></path>
<path id="path_87" d="M455.738 537.231L453.697 536.78L451.651 537.208L451.648 537.648L453.687 538.539L455.735 537.67L455.738 537.231Z" fill="#15323B"></path>
<path id="path_88" d="M458.81 535.928L456.623 535.476L454.577 535.905L454.575 536.345L456.614 537.235L458.808 536.368L458.81 535.928Z" fill="#15323B"></path>
<path id="path_89" d="M461.59 534.624L459.549 534.173L457.503 534.602L457.5 535.152L459.539 536.042L461.587 535.174L461.59 534.624Z" fill="#15323B"></path>
<path id="path_90" d="M464.662 533.432L462.621 532.981L460.575 533.409L460.573 533.849L462.611 534.74L464.66 533.871L464.662 533.432Z" fill="#15323B"></path>
<path id="path_91" d="M467.588 532.128L465.547 531.678L463.502 532.106L463.499 532.546L465.538 533.436L467.586 532.568L467.588 532.128Z" fill="#15323B"></path>
<path id="path_92" d="M470.66 530.826L468.619 530.375L466.574 530.804L466.571 531.243L468.61 532.134L470.658 531.266L470.66 530.826Z" fill="#15323B"></path>
<path id="path_93" d="M473.587 529.523L471.546 529.072L469.5 529.5L469.498 529.94L471.536 530.831L473.584 529.962L473.587 529.523Z" fill="#15323B"></path>
<path id="path_94" d="M476.66 528.22L474.619 527.769L472.573 528.198L472.57 528.638L474.609 529.638L476.657 528.66L476.66 528.22Z" fill="#15323B"></path>
<path id="path_95" d="M439.805 541.431L437.764 540.98L435.572 541.408L435.57 541.848L437.754 542.739L439.803 541.871L439.805 541.431Z" fill="#15323B"></path>
<path id="path_96" d="M442.731 540.128L440.69 539.677L438.644 540.106L438.642 540.546L440.68 541.546L442.729 540.568L442.731 540.128Z" fill="#15323B"></path>
<path id="path_97" d="M445.804 538.826L443.763 538.375L441.571 538.803L441.568 539.352L443.753 540.244L445.801 539.375L445.804 538.826Z" fill="#15323B"></path>
<path id="path_98" d="M448.729 537.632L446.688 537.181L444.643 537.61L444.64 538.05L446.679 538.94L448.727 538.072L448.729 537.632Z" fill="#15323B"></path>
<path id="path_99" d="M451.802 536.33L449.761 535.879L447.569 536.307L447.567 536.747L449.751 537.638L451.799 536.77L451.802 536.33Z" fill="#15323B"></path>
<path id="path_100" d="M454.728 535.027L452.687 534.576L450.641 535.004L450.639 535.444L452.678 536.335L454.726 535.466L454.728 535.027Z" fill="#15323B"></path>
<path id="path_101" d="M457.654 533.723L455.613 533.272L453.567 533.701L453.564 534.251L455.603 535.141L457.651 534.273L457.654 533.723Z" fill="#15323B"></path>
<path id="path_102" d="M460.726 532.531L458.539 532.079L456.493 532.508L456.49 532.947L458.529 533.838L460.723 532.971L460.726 532.531Z" fill="#15323B"></path>
<path id="path_103" d="M463.652 531.228L461.611 530.777L459.565 531.205L459.562 531.645L461.601 532.536L463.649 531.667L463.652 531.228Z" fill="#15323B"></path>
<path id="path_104" d="M466.725 529.925L464.538 529.473L462.492 529.902L462.49 530.342L464.528 531.232L466.722 530.365L466.725 529.925Z" fill="#15323B"></path>
<path id="path_105" d="M469.651 528.622L467.61 528.171L465.564 528.6L465.562 529.039L467.601 529.93L469.649 529.062L469.651 528.622Z" fill="#15323B"></path>
<path id="path_106" d="M472.723 527.319L470.536 526.867L468.49 527.296L468.488 527.736L470.526 528.736L472.721 527.759L472.723 527.319Z" fill="#15323B"></path>
<path id="path_107" d="M479.586 526.917L477.545 526.466L475.499 526.894L475.496 527.334L477.535 528.335L479.583 527.356L479.586 526.917Z" fill="#15323B"></path>
<path id="path_108" d="M440.961 543.526L438.774 543.075L435.557 544.046L435.555 544.486L437.739 545.377L440.959 543.966L440.961 543.526Z" fill="#15323B"></path>
<path id="path_109" d="M476.673 525.692L474.633 525.131L471.271 526.102L471.268 526.542L473.453 527.433L476.671 526.131L476.673 525.692Z" fill="#15323B"></path>
<path id="path_110" d="M482.498 528.252L480.457 527.801L476.802 528.881L476.8 529.32L478.838 530.211L482.496 528.692L482.498 528.252Z" fill="#15323B"></path>
<path id="path_111" d="M445.19 544.209L443.15 543.758L438.47 545.272L438.468 545.711L440.506 546.712L445.188 544.649L445.19 544.209Z" fill="#15323B"></path>
<path id="path_112" d="M485.264 529.477L483.223 529.026L478.105 530.757L478.103 531.196L480.141 532.087L485.262 529.916L485.264 529.477Z" fill="#15323B"></path>
<path id="path_113" d="M449.419 544.892L447.378 544.441L441.237 546.496L441.234 547.046L443.418 547.937L449.417 545.331L449.419 544.892Z" fill="#15323B"></path>
<path id="path_114" d="M436.732 542.734L434.692 542.283L432.646 542.711L432.643 543.151L434.682 544.042L436.73 543.173L436.732 542.734Z" fill="#15323B"></path>
<path id="path_115" d="M435.726 539.98L433.532 540.847L434.842 541.404L436.891 540.536L435.726 539.98Z" fill="#15323B"></path>
<path id="path_116" d="M438.798 538.677L436.604 539.545L437.915 540.102L439.963 539.234L438.798 538.677Z" fill="#15323B"></path>
<path id="path_117" d="M441.87 537.375L439.676 538.242L440.987 538.799L443.035 537.931L441.87 537.375Z" fill="#15323B"></path>
<path id="path_118" d="M444.943 535.963L442.749 536.94L444.059 537.497L446.108 536.519L444.943 535.963Z" fill="#15323B"></path>
<path id="path_119" d="M448.016 534.66L445.821 535.638L447.132 536.195L449.18 535.216L448.016 534.66Z" fill="#15323B"></path>
<path id="path_120" d="M451.088 533.358L448.894 534.225L450.204 534.782L452.399 533.914L451.088 533.358Z" fill="#15323B"></path>
<path id="path_121" d="M454.014 532.055L451.966 533.033L453.13 533.589L455.325 532.611L454.014 532.055Z" fill="#15323B"></path>
<path id="path_122" d="M457.087 530.752L455.038 531.73L456.203 532.176L458.397 531.309L457.087 530.752Z" fill="#15323B"></path>
<path id="path_123" d="M461.472 529.567L460.159 529.45L458.113 529.878L458.111 530.318L459.275 530.874L461.469 530.006L461.472 529.567Z" fill="#15323B"></path>
<path id="path_124" d="M463.377 528.148L461.183 529.015L462.494 529.572L464.542 528.704L463.377 528.148Z" fill="#15323B"></path>
<path id="path_125" d="M466.45 526.845L464.256 527.713L465.566 528.269L467.615 527.401L466.45 526.845Z" fill="#15323B"></path>
<path id="path_126" d="M469.523 525.433L467.328 526.41L468.638 526.967L470.687 525.989L469.523 525.433Z" fill="#15323B"></path>
<path id="path_127" d="M472.448 524.24L470.254 525.107L471.565 525.664L473.613 524.796L472.448 524.24Z" fill="#15323B"></path>
<path id="path_128" d="M480.568 534.068L478.527 533.617L475.165 534.588L475.163 535.028L477.2 536.028L480.566 534.508L480.568 534.068Z" fill="#15323B"></path>
<path id="path_129" d="M484.226 532.549L482.185 532.098L479.262 532.852L479.259 533.291L481.298 534.182L484.223 532.989L484.226 532.549Z" fill="#15323B"></path>
<path id="path_130" d="M488.322 530.812L486.281 530.362L482.919 531.333L482.917 531.772L484.955 532.663L488.32 531.252L488.322 530.812Z" fill="#15323B"></path>
<path id="path_131" d="M449.698 547.312L447.656 546.861L444.294 547.832L444.291 548.272L446.33 549.272L449.695 547.751L449.698 547.312Z" fill="#FFA100"></path>
<path id="path_132" d="M453.355 545.793L451.314 545.342L448.391 546.095L448.388 546.535L450.427 547.426L453.353 546.232L453.355 545.793Z" fill="#15323B"></path>
<path id="path_133" d="M457.452 544.056L455.411 543.605L451.903 544.575L451.901 545.015L454.085 545.906L457.45 544.496L457.452 544.056Z" fill="#15323B"></path>
<path id="path_134" d="M491.834 529.293L489.793 528.842L487.747 529.27L487.745 529.71L489.783 530.6L491.831 529.732L491.834 529.293Z" fill="#FFA100"></path>
<path id="path_135" d="M494.906 527.99L492.865 527.539L490.674 527.967L490.671 528.406L492.856 529.298L494.904 528.429L494.906 527.99Z" fill="#FFA100"></path>
<path id="path_136" d="M491.848 526.654L489.807 526.203L487.761 526.632L487.759 527.071L489.797 527.962L491.846 527.094L491.848 526.654Z" fill="#FFA100"></path>
<path id="path_137" d="M497.833 526.687L495.792 526.236L493.746 526.664L493.743 527.104L495.782 527.994L497.83 527.126L497.833 526.687Z" fill="#FFA100"></path>
<path id="path_138" d="M480.185 524.172L478.144 523.721L476.098 524.149L476.096 524.589L478.134 525.48L480.182 524.611L480.185 524.172Z" fill="#15323B"></path>
<path id="path_139" d="M483.257 522.869L481.07 522.418L479.024 522.846L479.022 523.286L481.061 524.177L483.255 523.309L483.257 522.869Z" fill="#15323B"></path>
<path id="path_140" d="M486.183 521.566L484.142 521.115L482.096 521.544L482.094 521.984L484.133 522.874L486.181 522.006L486.183 521.566Z" fill="#15323B"></path>
<path id="path_141" d="M477.273 522.837L475.96 522.72L473.914 523.148L473.912 523.588L475.076 524.144L477.27 523.276L477.273 522.837Z" fill="#15323B"></path>
<path id="path_142" d="M480.199 521.534L478.886 521.416L476.841 521.845L476.838 522.285L478.149 522.842L480.197 521.973L480.199 521.534Z" fill="#15323B"></path>
<path id="path_143" d="M483.271 520.231L481.959 520.114L479.913 520.543L479.91 520.982L481.075 521.538L483.269 520.671L483.271 520.231Z" fill="#15323B"></path>
<path id="path_144" d="M483.244 525.398L481.057 524.946L479.011 525.375L479.008 525.924L481.046 526.815L483.241 525.947L483.244 525.398Z" fill="#15323B"></path>
<path id="path_145" d="M486.169 524.204L484.128 523.754L482.082 524.182L482.08 524.622L484.119 525.512L486.167 524.644L486.169 524.204Z" fill="#15323B"></path>
<path id="path_146" d="M489.241 522.902L487.054 522.45L485.008 522.879L485.006 523.319L487.044 524.209L489.239 523.342L489.241 522.902Z" fill="#15323B"></path>
<path id="path_147" d="M489.695 520.046L487.654 519.595L485.608 520.024L485.606 520.464L487.644 521.354L489.692 520.486L489.695 520.046Z" fill="#15323B"></path>
<path id="path_148" d="M492.621 518.743L490.58 518.292L488.534 518.721L488.532 519.16L490.57 520.161L492.619 519.183L492.621 518.743Z" fill="#15323B"></path>
<path id="path_149" d="M495.694 517.441L493.653 516.99L491.607 517.418L491.604 517.968L493.643 518.859L495.691 517.99L495.694 517.441Z" fill="#15323B"></path>
<path id="path_150" d="M498.619 516.247L496.578 515.797L494.532 516.225L494.53 516.665L496.569 517.555L498.617 516.687L498.619 516.247Z" fill="#15323B"></path>
<path id="path_151" d="M488.396 517.401L486.348 518.269L487.658 518.826L489.706 517.958L488.396 517.401Z" fill="#15323B"></path>
<path id="path_152" d="M491.468 516.098L489.419 516.967L490.584 517.523L492.632 516.655L491.468 516.098Z" fill="#15323B"></path>
<path id="path_153" d="M494.394 514.795L492.346 515.664L493.657 516.22L495.705 515.352L494.394 514.795Z" fill="#15323B"></path>
<path id="path_154" d="M504.416 523.864L502.229 523.413L497.257 525.144L497.255 525.584L499.293 526.585L504.413 524.414L504.416 523.864Z" fill="#15323B"></path>
<path id="path_155" d="M507.342 522.671L505.301 522.22L503.255 522.649L503.253 523.088L505.291 523.979L507.34 523.111L507.342 522.671Z" fill="#15323B"></path>
<path id="path_156" d="M510.414 521.369L505.315 519.582L503.269 520.01L503.266 520.45L508.217 522.676L510.411 521.808L510.414 521.369Z" fill="#15323B"></path>
<path id="path_157" d="M474.141 535.022L456.291 542.73L458.33 543.621L476.179 535.913L474.141 535.022Z" fill="#FFD25F"></path>
<path id="path_158" d="M441.703 541.442L439.654 542.31L441.693 543.2L443.741 542.332L441.703 541.442Z" fill="#325B69"></path>
<path id="path_159" d="M444.629 540.138L442.58 541.007L444.619 541.897L446.813 541.03L444.629 540.138Z" fill="#FFD25F"></path>
<path id="path_160" d="M447.701 538.836L445.652 539.704L447.69 540.705L449.739 539.727L447.701 538.836Z" fill="#325B69"></path>
<path id="path_161" d="M450.628 537.533L448.579 538.401L450.617 539.401L452.812 538.424L450.628 537.533Z" fill="#325B69"></path>
<path id="path_162" d="M453.7 536.23L451.651 537.208L453.69 538.099L455.738 537.231L453.7 536.23Z" fill="#325B69"></path>
<path id="path_163" d="M456.626 535.037L454.577 535.905L456.616 536.796L458.81 535.928L456.626 535.037Z" fill="#325B69"></path>
<path id="path_164" d="M459.552 533.734L457.504 534.602L459.542 535.602L461.591 534.624L459.552 533.734Z" fill="#325B69"></path>
<path id="path_165" d="M462.624 532.431L460.576 533.409L462.614 534.3L464.663 533.432L462.624 532.431Z" fill="#325B69"></path>
<path id="path_166" d="M465.55 531.238L463.502 532.106L465.54 532.997L467.589 532.128L465.55 531.238Z" fill="#325B69"></path>
<path id="path_167" d="M468.623 529.935L466.574 530.804L468.613 531.694L470.661 530.826L468.623 529.935Z" fill="#325B69"></path>
<path id="path_168" d="M471.549 528.632L469.501 529.5L471.539 530.391L473.587 529.523L471.549 528.632Z" fill="#325B69"></path>
<path id="path_169" d="M474.621 527.329L472.573 528.198L474.612 529.088L476.66 528.22L474.621 527.329Z" fill="#325B69"></path>
<path id="path_170" d="M437.766 540.541L435.572 541.408L437.757 542.3L439.805 541.431L437.766 540.541Z" fill="#325B69"></path>
<path id="path_171" d="M440.693 539.237L438.645 540.106L440.683 540.996L442.732 540.128L440.693 539.237Z" fill="#325B69"></path>
<path id="path_172" d="M443.765 537.935L441.571 538.802L443.755 539.804L445.804 538.826L443.765 537.935Z" fill="#325B69"></path>
<path id="path_173" d="M446.692 536.632L444.643 537.61L446.681 538.501L448.729 537.632L446.692 536.632Z" fill="#325B69"></path>
<path id="path_174" d="M449.763 535.439L447.569 536.307L449.754 537.198L451.802 536.33L449.763 535.439Z" fill="#325B69"></path>
<path id="path_175" d="M452.69 534.136L450.641 535.004L452.68 535.895L454.728 535.027L452.69 534.136Z" fill="#325B69"></path>
<path id="path_176" d="M455.616 532.833L453.567 533.701L455.606 534.702L457.654 533.723L455.616 532.833Z" fill="#325B69"></path>
<path id="path_177" d="M458.542 531.529L456.493 532.508L458.532 533.398L460.726 532.531L458.542 531.529Z" fill="#325B69"></path>
<path id="path_178" d="M461.613 530.337L459.565 531.205L461.604 532.096L463.652 531.228L461.613 530.337Z" fill="#325B69"></path>
<path id="path_179" d="M464.54 529.034L462.492 529.902L464.531 530.793L466.725 529.925L464.54 529.034Z" fill="#325B69"></path>
<path id="path_180" d="M467.613 527.731L465.564 528.6L467.603 529.49L469.651 528.622L467.613 527.731Z" fill="#325B69"></path>
<path id="path_181" d="M470.539 526.428L468.491 527.296L470.53 528.187L472.724 527.319L470.539 526.428Z" fill="#325B69"></path>
<path id="path_182" d="M477.548 526.026L475.499 526.894L477.538 527.895L479.586 526.917L477.548 526.026Z" fill="#325B69"></path>
<path id="path_183" d="M438.776 542.635L435.557 544.046L437.742 544.938L440.961 543.526L438.776 542.635Z" fill="#325B69"></path>
<path id="path_184" d="M474.636 524.691L471.271 526.102L473.455 526.993L476.673 525.692L474.636 524.691Z" fill="#325B69"></path>
<path id="path_185" d="M480.46 527.361L476.802 528.88L478.841 529.771L482.498 528.252L480.46 527.361Z" fill="#325B69"></path>
<path id="path_186" d="M443.152 543.318L438.47 545.272L440.508 546.272L445.19 544.209L443.152 543.318Z" fill="#325B69"></path>
<path id="path_187" d="M483.226 528.586L478.105 530.757L480.144 531.647L485.264 529.477L483.226 528.586Z" fill="#325B69"></path>
<path id="path_188" d="M447.381 543.891L441.237 546.496L443.421 547.497L449.419 544.892L447.381 543.891Z" fill="#325B69"></path>
<path id="path_189" d="M434.694 541.843L432.646 542.711L434.685 543.602L436.733 542.734L434.694 541.843Z" fill="#325B69"></path>
<path id="path_190" d="M435.728 539.54L433.534 540.408L434.844 540.964L436.893 540.096L435.728 539.54Z" fill="#325B69"></path>
<path id="path_191" d="M438.8 538.238L436.606 539.105L437.917 539.662L439.965 538.794L438.8 538.238Z" fill="#325B69"></path>
<path id="path_192" d="M441.873 536.825L439.679 537.803L440.989 538.36L443.038 537.381L441.873 536.825Z" fill="#325B69"></path>
<path id="path_193" d="M444.946 535.523L442.751 536.5L444.061 537.057L446.11 536.079L444.946 535.523Z" fill="#325B69"></path>
<path id="path_194" d="M448.018 534.221L445.823 535.198L447.134 535.645L449.183 534.777L448.018 534.221Z" fill="#325B69"></path>
<path id="path_195" d="M451.09 532.918L448.896 533.785L450.207 534.342L452.401 533.475L451.09 532.918Z" fill="#325B69"></path>
<path id="path_196" d="M454.017 531.615L451.968 532.593L453.132 533.149L455.327 532.172L454.017 531.615Z" fill="#325B69"></path>
<path id="path_197" d="M457.089 530.312L455.04 531.181L456.205 531.737L458.399 530.869L457.089 530.312Z" fill="#325B69"></path>
<path id="path_198" d="M460.161 529.01L458.112 529.878L459.277 530.434L461.471 529.567L460.161 529.01Z" fill="#325B69"></path>
<path id="path_199" d="M463.379 527.708L461.185 528.576L462.496 529.133L464.544 528.264L463.379 527.708Z" fill="#325B69"></path>
<path id="path_200" d="M466.452 526.406L464.258 527.273L465.568 527.83L467.617 526.851L466.452 526.406Z" fill="#325B69"></path>
<path id="path_201" d="M469.525 524.993L467.33 525.971L468.64 526.527L470.689 525.549L469.525 524.993Z" fill="#325B69"></path>
<path id="path_202" d="M472.451 523.8L470.256 524.667L471.567 525.224L473.615 524.356L472.451 523.8Z" fill="#325B69"></path>
<path id="path_203" d="M432.656 540.843L430.461 541.71L431.772 542.267L433.82 541.399L432.656 540.843Z" fill="#325B69"></path>
<path id="path_204" d="M478.53 533.178L475.165 534.588L477.204 535.479L480.569 534.068L478.53 533.178Z" fill="#325B69"></path>
<path id="path_205" d="M482.188 531.658L479.262 532.852L481.301 533.742L484.226 532.549L482.188 531.658Z" fill="#325B69"></path>
<path id="path_206" d="M486.284 529.922L482.919 531.333L484.958 532.223L488.322 530.812L486.284 529.922Z" fill="#325B69"></path>
<path id="path_207" d="M447.659 546.421L444.294 547.832L446.333 548.722L449.698 547.312L447.659 546.421Z" fill="#FFD25F"></path>
<path id="path_208" d="M451.316 544.902L448.391 546.095L450.43 546.986L453.355 545.792L451.316 544.902Z" fill="#325B69"></path>
<path id="path_209" d="M455.414 543.165L451.903 544.575L454.087 545.467L457.452 544.056L455.414 543.165Z" fill="#325B69"></path>
<path id="path_210" d="M489.795 528.402L487.747 529.27L489.786 530.161L491.834 529.293L489.795 528.402Z" fill="#FFD25F"></path>
<path id="path_211" d="M492.867 527.099L490.673 527.967L492.858 528.858L494.906 527.99L492.867 527.099Z" fill="#FFD25F"></path>
<path id="path_212" d="M489.809 525.763L487.761 526.632L489.8 527.522L491.848 526.654L489.809 525.763Z" fill="#FFD25F"></path>
<path id="path_213" d="M495.794 525.796L493.746 526.664L495.784 527.555L497.832 526.687L495.794 525.796Z" fill="#FFD25F"></path>
<path id="path_214" d="M478.147 523.171L476.098 524.149L478.137 525.04L480.185 524.172L478.147 523.171Z" fill="#325B69"></path>
<path id="path_215" d="M481.073 521.978L479.025 522.846L481.063 523.737L483.257 522.869L481.073 521.978Z" fill="#325B69"></path>
<path id="path_216" d="M484.145 520.676L482.097 521.544L484.136 522.434L486.184 521.566L484.145 520.676Z" fill="#325B69"></path>
<path id="path_217" d="M475.962 522.28L473.914 523.148L475.079 523.704L477.273 522.837L475.962 522.28Z" fill="#325B69"></path>
<path id="path_218" d="M478.889 520.977L476.841 521.845L478.151 522.402L480.199 521.534L478.889 520.977Z" fill="#325B69"></path>
<path id="path_219" d="M481.961 519.674L479.913 520.543L481.077 521.099L483.272 520.231L481.961 519.674Z" fill="#325B69"></path>
<path id="path_220" d="M481.059 524.506L479.011 525.375L481.048 526.375L483.243 525.398L481.059 524.506Z" fill="#325B69"></path>
<path id="path_221" d="M484.131 523.204L482.082 524.182L484.121 525.073L486.169 524.204L484.131 523.204Z" fill="#325B69"></path>
<path id="path_222" d="M487.057 522.011L485.008 522.879L487.047 523.77L489.241 522.902L487.057 522.011Z" fill="#325B69"></path>
<path id="path_223" d="M487.656 519.156L485.608 520.024L487.647 520.915L489.695 520.046L487.656 519.156Z" fill="#325B69"></path>
<path id="path_224" d="M490.582 517.853L488.534 518.721L490.573 519.611L492.621 518.743L490.582 517.853Z" fill="#325B69"></path>
<path id="path_225" d="M493.655 516.55L491.606 517.418L493.645 518.419L495.693 517.441L493.655 516.55Z" fill="#325B69"></path>
<path id="path_226" d="M496.581 515.247L494.532 516.225L496.571 517.116L498.619 516.247L496.581 515.247Z" fill="#325B69"></path>
<path id="path_227" d="M485.472 518.154L483.424 519.023L484.588 519.579L486.637 518.71L485.472 518.154Z" fill="#325B69"></path>
<path id="path_228" d="M488.398 516.851L486.35 517.829L487.66 518.386L489.709 517.408L488.398 516.851Z" fill="#325B69"></path>
<path id="path_229" d="M491.471 515.659L489.422 516.527L490.587 517.083L492.635 516.215L491.471 515.659Z" fill="#325B69"></path>
<path id="path_230" d="M494.397 514.356L492.348 515.224L493.659 515.781L495.707 514.913L494.397 514.356Z" fill="#325B69"></path>
<path id="path_231" d="M502.231 522.973L497.257 525.144L499.295 526.035L504.416 523.864L502.231 522.973Z" fill="#325B69"></path>
<path id="path_232" d="M505.304 521.671L503.255 522.649L505.294 523.539L507.342 522.671L505.304 521.671Z" fill="#325B69"></path>
<path id="path_233" d="M505.317 519.142L503.269 520.01L508.22 522.236L510.414 521.369L505.317 519.142Z" fill="#325B69"></path>
<path id="path_234" d="M431.772 542.267L430.461 541.71L430.459 542.15L431.77 542.707L433.818 541.838L433.82 541.399L431.772 542.267Z" fill="#15323B"></path>
<path id="path_235" d="M434.845 540.964L433.534 540.408L433.532 540.847L434.842 541.404L436.891 540.536L436.893 540.096L434.845 540.964Z" fill="#15323B"></path>
<path id="path_236" d="M440.989 538.36L439.679 537.803L439.676 538.242L440.987 538.799L443.035 537.931L443.038 537.381L440.989 538.36Z" fill="#15323B"></path>
<path id="path_237" d="M437.917 539.662L436.607 539.105L436.604 539.545L437.915 540.102L439.963 539.233L439.965 538.794L437.917 539.662Z" fill="#15323B"></path>
<path id="path_238" d="M444.061 537.057L442.751 536.5L442.748 536.94L444.059 537.497L446.108 536.519L446.11 536.079L444.061 537.057Z" fill="#15323B"></path>
<path id="path_239" d="M447.135 535.645L445.824 535.198L445.821 535.638L447.132 536.194L449.181 535.216L449.183 534.776L447.135 535.645Z" fill="#15323B"></path>
<path id="path_240" d="M450.207 534.342L448.896 533.785L448.894 534.225L450.204 534.782L452.398 533.914L452.401 533.475L450.207 534.342Z" fill="#15323B"></path>
<path id="path_241" d="M453.132 533.149L451.968 532.593L451.965 533.033L453.13 533.589L455.325 532.611L455.327 532.172L453.132 533.149Z" fill="#15323B"></path>
<path id="path_242" d="M456.205 531.737L455.041 531.181L455.038 531.73L456.203 532.176L458.397 531.309L458.4 530.869L456.205 531.737Z" fill="#15323B"></path>
<path id="Path" d="M462.496 529.133L461.186 528.576L461.183 529.015L462.494 529.572L464.542 528.704L464.544 528.264L462.496 529.133Z" fill="#15323B"></path>
<path id="Path_2" d="M465.569 527.83L464.258 527.273L464.256 527.713L465.566 528.269L467.615 527.401L467.618 526.851L465.569 527.83Z" fill="#15323B"></path>
<path id="Path_3" d="M468.641 526.527L467.33 525.971L467.328 526.41L468.638 526.967L470.687 525.989L470.689 525.549L468.641 526.527Z" fill="#15323B"></path>
<path id="Path_4" d="M471.567 525.224L470.257 524.667L470.255 525.107L471.565 525.664L473.613 524.796L473.615 524.356L471.567 525.224Z" fill="#15323B"></path>
<path id="Path_5" d="M484.589 519.579L483.424 519.023L483.421 519.572L484.586 520.128L486.635 519.15L486.637 518.71L484.589 519.579Z" fill="#15323B"></path>
<path id="Path_6" d="M487.661 518.386L486.35 517.829L486.348 518.269L487.658 518.826L489.706 517.958L489.709 517.408L487.661 518.386Z" fill="#15323B"></path>
<path id="Path_7" d="M490.587 517.083L489.422 516.527L489.419 516.967L490.584 517.523L492.632 516.654L492.635 516.215L490.587 517.083Z" fill="#15323B"></path>
<path id="Path_8" d="M493.659 515.781L492.348 515.224L492.346 515.664L493.657 516.22L495.705 515.352L495.707 514.912L493.659 515.781Z" fill="#15323B"></path>
</g>
</g>
</g>
</g>
</g>
</g>
</g>
<defs>
<linearGradient id="paint0_linear_18_2794" x1="477.5" y1="289.5" x2="749" y2="397.5" gradientUnits="userSpaceOnUse">
<stop stop-color="#73A2B4"></stop>
<stop offset="1" stop-color="#6E9BBD"></stop>
</linearGradient>
<linearGradient id="paint1_linear_18_2794" x1="477.5" y1="290" x2="207.5" y2="397" gradientUnits="userSpaceOnUse">
<stop stop-color="#93C1D1"></stop>
<stop offset="1" stop-color="#7794B1"></stop>
</linearGradient>
</defs>
</svg>