<svg width="957" height="957" viewBox="0 0 957 957" fill="none" xmlns="http://www.w3.org/2000/svg">
    <style>
        .none{
            display: none;
        }
    </style>
<g class="level2">
<g class="base none">
<path id="group" d="M749 270L477.5 162.5V433.5L749 541V270Z" fill="url(#paint0_linear_18_2491)"></path>
<path id="group_2" d="M478 648.5L207 540.5L477.5 433.5L749 541L478 648.5Z" fill="#57768B"></path>
<path id="group_3" d="M207.5 269.5L207 540.5L477.5 433.5V162.5L207.5 269.5Z" fill="url(#paint1_linear_18_2491)"></path>
<path id="group_4" d="M207 571.5V540.5L478 648.5L749 541V571L478 678.5L207 571.5Z" fill="#D1D1D1"></path>
<path id="group_5" d="M179 560.272V250L207.5 269.5L207 571.5L179 560.272Z" fill="#E6E6E6"></path>
<path id="group_6" d="M749 269.563L776 250L776.5 560L749 571V269.563Z" fill="#ABABAB"></path>
<path id="group_7" d="M207.5 269.5L179 250L477.5 132L776.5 250.5L749 270L477.5 162.5L207.5 269.5Z" fill="#D1D1D1"></path>
<path id="group_8" d="M207 571.5V540.5L478 648.441V678.5L207 571.5Z" fill="#E6E6E6"></path>
<path id="group_9" d="M749 571V541L478 648.5V678.5L749 571Z" fill="#ABABAB"></path>
</g>
<g class="plant none">
<path id="group_10" d="M498 392.985L492.136 439.955L478.515 448.066L478.575 404.581L498 392.985Z" fill="black" fill-opacity="0.18"></path>
<path id="group_11" d="M478.575 404.581L478.515 448.066L464.833 439.955L459 392.985L478.575 404.581Z" fill="black" fill-opacity="0.18"></path>
<path id="group_12" d="M498 392.985L478.575 404.581L459 392.985L478.425 381.389L498 392.985Z" fill="black" fill-opacity="0.18"></path>
<path id="group_13" d="M494.091 392.985L478.545 402.237L462.909 392.985L478.455 383.702L494.091 392.985Z" fill="black" fill-opacity="0.18"></path>
<path id="group_14" d="M482.665 364.457V395.791L479.538 397.672L479.568 366.308L482.665 364.457Z" fill="black" fill-opacity="0.18"></path>
<path id="group_15" d="M479.567 366.308L479.537 397.672L476.41 395.791L476.44 364.457L479.567 366.308Z" fill="black" fill-opacity="0.18"></path>
<path id="group_16" d="M482.664 364.457L479.567 366.308L476.44 364.457L479.537 362.607L482.664 364.457Z" fill="black" fill-opacity="0.18"></path>
<path id="group_17" d="M494.121 342.283L494.061 370.255L478.515 379.507L478.575 351.535L494.121 342.283Z" fill="black" fill-opacity="0.18"></path>
<path id="group_18" d="M478.575 351.535L478.515 379.507L462.849 370.255L462.939 342.283L478.575 351.535Z" fill="black" fill-opacity="0.18"></path>
<path id="group_19" d="M494.121 342.283L478.575 351.535L462.939 342.283L478.485 333L494.121 342.283Z" fill="black" fill-opacity="0.18"></path>
<path id="group_20" d="M497.41 393.099L491.484 439.376L477.72 447.367L477.781 404.524L497.41 393.099Z" fill="#AC8D5F"></path>
<path id="group_21" d="M477.781 404.524L477.72 447.367L463.895 439.376L458 393.099L477.781 404.524Z" fill="#FCDEA8"></path>
<path id="group_22" d="M497.41 393.099L477.781 404.524L458 393.099L477.629 381.674L497.41 393.099Z" fill="#FCDEA8"></path>
<path id="group_23" d="M493.459 393.099L477.75 402.215L461.95 393.099L477.659 383.953L493.459 393.099Z" fill="#685544"></path>
<path id="group_24" d="M481.913 364.993V395.864L478.753 397.718L478.783 366.816L481.913 364.993Z" fill="#584234"></path>
<path id="group_25" d="M478.783 366.816L478.753 397.718L475.593 395.864L475.623 364.993L478.783 366.816Z" fill="#9E7967"></path>
<path id="group_26" d="M481.913 364.993L478.783 366.816L475.623 364.993L478.753 363.17L481.913 364.993Z" fill="#EFEFEF"></path>
<path id="group_27" d="M493.49 343.146L493.429 370.705L477.72 379.821L477.781 352.261L493.49 343.146Z" fill="#8A7C4D"></path>
<path id="group_28" d="M477.781 352.261L477.72 379.821L461.889 370.705L461.98 343.146L477.781 352.261Z" fill="#B8A465"></path>
<path id="group_29" d="M493.49 343.146L477.781 352.261L461.98 343.146L477.69 334L493.49 343.146Z" fill="#B8A465"></path>
</g>
<g class="desk none">
<path id="group_30" d="M391.158 551.79L460.799 581.103L557.32 541.898L487.597 512.525L391.158 551.79Z" fill="#1E1E1E" fill-opacity="0.35"></path>
<path id="group_31" d="M398.028 518.428L397.829 554.936L408.322 550.698L408.521 514.189L398.028 518.428Z" fill="#A69A7C"></path>
<path id="group_32" d="M390.981 515.466L390.782 551.975L397.829 554.936L398.028 518.428L390.981 515.466Z" fill="#E3DED1"></path>
<path id="group_33" d="M546.651 509.693L546.452 546.202L556.946 541.904L557.145 505.455L546.651 509.693Z" fill="#A69A7C"></path>
<path id="group_34" d="M539.604 506.731L539.405 543.24L546.452 546.202L546.651 509.693L539.604 506.731Z" fill="#E3DED1"></path>
<path id="group_35" d="M391.042 504.251L460.683 533.564L557.205 494.36L487.482 464.986L391.042 504.251Z" fill="#FCF7E8"></path>
<path id="group_36" d="M391.042 504.251L390.981 515.466L460.622 544.779L460.683 533.564L391.042 504.251Z" fill="#E3DED1"></path>
<path id="group_37" d="M460.683 533.564L460.622 544.779L557.144 505.515L557.205 494.359L460.683 533.564Z" fill="#A69A7C"></path>
<path id="group_38" d="M460.683 533.564L460.622 544.779L557.144 505.515L557.205 494.359L460.683 533.564Z" fill="#C4BAA1"></path>
<path id="group_39" d="M460.705 544.779L460.506 581.288L470.916 576.99L471.115 540.481L460.705 544.779Z" fill="#A69A7C"></path>
<path id="group_40" d="M453.658 541.818L453.459 578.326L460.506 581.288L460.705 544.779L453.658 541.818Z" fill="#E3DED1"></path>
<path id="group_41" d="M397.964 530.239L397.883 545.152L408.376 540.914L408.457 525.941L397.964 530.239Z" fill="#2D5982"></path>
<path id="group_42" d="M390.917 527.277L390.836 542.191L397.883 545.152L397.964 530.239L390.917 527.277Z" fill="#3E7AB3"></path>
<path id="group_43" d="M546.587 521.505L546.506 536.418L556.999 532.18L557.08 517.207L546.587 521.505Z" fill="#2D5982"></path>
<path id="group_44" d="M539.54 518.543L539.458 533.456L546.505 536.418L546.587 521.505L539.54 518.543Z" fill="#3E7AB3"></path>
<path id="group_45" d="M460.641 556.531L460.559 571.504L470.97 567.206L471.051 552.293L460.641 556.531Z" fill="#2D5982"></path>
<path id="group_46" d="M453.594 553.57L453.512 568.483L460.559 571.504L460.641 556.531L453.594 553.57Z" fill="#3E7AB3"></path>
<path id="group_47" d="M398.028 518.428L397.829 554.936L408.322 550.698L408.475 522.78L398.028 518.428Z" fill="#C4BAA1"></path>
<path id="group_48" d="M546.651 509.693L546.452 546.202L556.946 541.904L557.145 505.455L546.651 509.693Z" fill="#C4BAA1"></path>
<path id="group_49" d="M460.705 544.779L460.506 581.288L470.916 576.99L471.115 540.481L460.705 544.779Z" fill="#C4BAA1"></path>
</g>
<g class="keyboard none">
<path id="group_50" d="M515.383 486.995L515.39 485.629L514.079 486.101L497.692 478.367C496.677 477.898 494.932 477.889 494.057 478.347L434.007 505.587L429.209 505.648L429.195 508.225C429.193 508.533 429.434 508.805 429.917 509.039L447.03 517.009C448.045 517.478 449.644 517.487 450.665 517.029L514.651 487.957C515.234 487.729 515.381 487.342 515.383 486.995Z" fill="#15323B"></path>
<path id="group_51" d="M494.203 476.818L429.829 504.39C428.806 504.714 428.802 505.483 429.821 505.929L447.003 513.498C448.022 513.943 449.628 513.952 450.652 513.518L514.88 485.945C515.904 485.511 515.908 484.852 514.888 484.406L497.852 476.838C496.833 476.393 495.081 476.383 494.203 476.818V476.818Z" fill="#5C8896"></path>
<path id="group_52" d="M500.424 486.965L498.237 486.514L496.192 486.942L496.189 487.382L498.227 488.383L500.422 487.405L500.424 486.965Z" fill="#15323B"></path>
<path id="group_53" d="M503.351 485.662L501.31 485.211L499.264 485.64L499.261 486.19L501.299 487.08L503.348 486.212L503.351 485.662Z" fill="#15323B"></path>
<path id="group_54" d="M506.423 484.47L504.236 484.018L502.19 484.447L502.188 484.886L504.226 485.777L506.42 484.909L506.423 484.47Z" fill="#15323B"></path>
<path id="group_55" d="M498.24 486.074L496.192 486.942L498.23 487.833L500.425 486.966L498.24 486.074Z" fill="#325B69"></path>
<path id="group_56" d="M501.312 484.772L499.264 485.64L501.302 486.64L503.35 485.662L501.312 484.772Z" fill="#325B69"></path>
<path id="group_57" d="M504.238 483.468L502.19 484.447L504.228 485.337L506.422 484.47L504.238 483.468Z" fill="#325B69"></path>
<path id="group_58" d="M497.512 485.74L495.471 485.29L493.425 485.718L493.422 486.268L495.461 487.158L497.509 486.29L497.512 485.74Z" fill="#15323B"></path>
<path id="group_59" d="M500.584 484.548L498.543 484.097L496.351 484.525L496.349 484.964L498.533 485.856L500.581 484.988L500.584 484.548Z" fill="#15323B"></path>
<path id="group_60" d="M503.51 483.245L501.469 482.794L499.423 483.222L499.421 483.662L501.459 484.553L503.507 483.684L503.51 483.245Z" fill="#15323B"></path>
<path id="group_61" d="M506.582 481.942L504.541 481.491L502.349 481.919L502.347 482.359L504.531 483.25L506.58 482.382L506.582 481.942Z" fill="#15323B"></path>
<path id="group_62" d="M495.473 484.85L493.425 485.718L495.463 486.718L497.512 485.74L495.473 484.85Z" fill="#325B69"></path>
<path id="group_63" d="M498.546 483.547L496.351 484.525L498.535 485.416L500.584 484.548L498.546 483.547Z" fill="#325B69"></path>
<path id="group_64" d="M501.472 482.354L499.423 483.222L501.462 484.113L503.51 483.245L501.472 482.354Z" fill="#325B69"></path>
<path id="group_65" d="M504.544 481.052L502.349 481.919L504.534 482.81L506.582 481.942L504.544 481.052Z" fill="#325B69"></path>
<path id="group_66" d="M494.599 484.515L492.559 484.064L490.513 484.493L490.51 484.933L492.549 485.823L494.597 484.955L494.599 484.515Z" fill="#15323B"></path>
<path id="group_67" d="M497.672 483.213L495.631 482.762L493.585 483.191L493.583 483.63L495.622 484.521L497.67 483.653L497.672 483.213Z" fill="#15323B"></path>
<path id="group_68" d="M500.598 481.909L498.557 481.459L496.511 481.887L496.509 482.327L498.548 483.218L500.596 482.349L500.598 481.909Z" fill="#15323B"></path>
<path id="group_69" d="M503.671 480.607L501.629 480.156L499.584 480.585L499.581 481.025L501.619 482.025L503.668 481.047L503.671 480.607Z" fill="#15323B"></path>
<path id="group_70" d="M492.561 483.625L490.513 484.493L492.551 485.384L494.599 484.515L492.561 483.625Z" fill="#325B69"></path>
<path id="group_71" d="M495.633 482.322L493.585 483.191L495.624 484.081L497.672 483.213L495.633 482.322Z" fill="#325B69"></path>
<path id="group_72" d="M498.56 481.019L496.511 481.887L498.55 482.778L500.598 481.91L498.56 481.019Z" fill="#325B69"></path>
<path id="group_73" d="M501.631 479.717L499.583 480.585L501.622 481.475L503.67 480.607L501.631 479.717Z" fill="#325B69"></path>
<path id="group_74" d="M454.484 506.723L452.297 506.271L450.252 506.7L450.249 507.14L452.288 508.03L454.482 507.163L454.484 506.723Z" fill="#15323B"></path>
<path id="group_75" d="M457.411 505.42L455.37 504.969L453.324 505.397L453.322 505.837L455.36 506.728L457.409 505.859L457.411 505.42Z" fill="#15323B"></path>
<path id="group_76" d="M460.483 504.117L458.296 503.665L456.25 504.094L456.248 504.534L458.286 505.424L460.481 504.557L460.483 504.117Z" fill="#15323B"></path>
<path id="group_77" d="M463.409 502.814L461.368 502.363L459.322 502.792L459.32 503.231L461.359 504.122L463.407 503.254L463.409 502.814Z" fill="#15323B"></path>
<path id="group_78" d="M466.482 501.511L464.295 501.06L462.249 501.488L462.247 501.928L464.285 502.929L466.48 501.951L466.482 501.511Z" fill="#15323B"></path>
<path id="group_79" d="M469.408 500.208L467.367 499.757L465.321 500.186L465.318 500.736L467.357 501.626L469.405 500.758L469.408 500.208Z" fill="#15323B"></path>
<path id="group_80" d="M472.334 499.015L470.293 498.564L468.247 498.993L468.244 499.433L470.283 500.323L472.331 499.455L472.334 499.015Z" fill="#15323B"></path>
<path id="group_81" d="M475.26 497.712L473.219 497.261L471.173 497.689L471.171 498.129L473.209 499.13L475.258 498.151L475.26 497.712Z" fill="#15323B"></path>
<path id="group_82" d="M478.333 496.409L476.291 495.959L474.246 496.387L474.243 496.937L476.281 497.827L478.33 496.959L478.333 496.409Z" fill="#15323B"></path>
<path id="group_83" d="M481.258 495.216L479.218 494.655L477.172 495.194L477.169 495.634L479.208 496.524L481.256 495.656L481.258 495.216Z" fill="#15323B"></path>
<path id="group_84" d="M452.301 505.722L450.252 506.7L452.29 507.59L454.485 506.723L452.301 505.722Z" fill="#325B69"></path>
<path id="group_85" d="M455.372 504.529L453.324 505.397L455.362 506.288L457.41 505.42L455.372 504.529Z" fill="#325B69"></path>
<path id="group_86" d="M458.298 503.226L456.25 504.094L458.289 504.985L460.483 504.117L458.298 503.226Z" fill="#325B69"></path>
<path id="group_87" d="M461.37 501.923L459.322 502.792L461.361 503.682L463.409 502.814L461.37 501.923Z" fill="#325B69"></path>
<path id="group_88" d="M464.297 500.62L462.249 501.488L464.288 502.379L466.482 501.511L464.297 500.62Z" fill="#325B69"></path>
<path id="group_89" d="M467.37 499.318L465.321 500.186L467.36 501.187L469.408 500.208L467.37 499.318Z" fill="#325B69"></path>
<path id="group_90" d="M470.295 498.124L468.247 498.993L470.286 499.883L472.334 499.015L470.295 498.124Z" fill="#325B69"></path>
<path id="group_91" d="M473.222 496.821L471.173 497.689L473.212 498.58L475.26 497.712L473.222 496.821Z" fill="#325B69"></path>
<path id="group_92" d="M476.294 495.519L474.246 496.387L476.284 497.388L478.333 496.409L476.294 495.519Z" fill="#325B69"></path>
<path id="group_93" d="M479.22 494.216L477.171 495.194L479.21 496.084L481.258 495.216L479.22 494.216Z" fill="#325B69"></path>
<path id="group_94" d="M450.109 506.149L448.068 505.698L446.022 506.127L446.019 506.567L448.058 507.457L450.106 506.589L450.109 506.149Z" fill="#FFA100"></path>
<path id="group_95" d="M453.181 504.847L450.994 504.395L448.948 504.824L448.945 505.263L450.984 506.154L453.178 505.287L453.181 504.847Z" fill="#FFA100"></path>
<path id="group_96" d="M456.107 503.544L454.066 503.093L452.02 503.521L452.018 503.961L454.056 504.852L456.105 503.983L456.107 503.544Z" fill="#FFA100"></path>
<path id="group_97" d="M459.18 502.241L456.993 501.79L454.947 502.218L454.945 502.658L456.983 503.548L459.177 502.681L459.18 502.241Z" fill="#15323B"></path>
<path id="group_98" d="M462.106 500.938L460.065 500.487L458.019 500.916L458.017 501.355L460.055 502.356L462.104 501.378L462.106 500.938Z" fill="#15323B"></path>
<path id="group_99" d="M465.179 499.636L462.992 499.184L460.946 499.612L460.943 500.162L462.982 501.053L465.176 500.185L465.179 499.636Z" fill="#15323B"></path>
<path id="group_100" d="M467.958 498.442L465.917 497.991L463.871 498.419L463.869 498.859L465.908 499.749L467.956 498.881L467.958 498.442Z" fill="#15323B"></path>
<path id="group_101" d="M471.03 497.139L468.989 496.688L466.944 497.117L466.941 497.556L468.98 498.447L471.028 497.579L471.03 497.139Z" fill="#15323B"></path>
<path id="group_102" d="M473.957 495.836L471.916 495.385L469.87 495.814L469.868 496.253L471.906 497.254L473.955 496.276L473.957 495.836Z" fill="#15323B"></path>
<path id="group_103" d="M477.029 494.533L474.988 494.083L472.943 494.511L472.94 495.061L474.978 495.951L477.026 495.083L477.029 494.533Z" fill="#15323B"></path>
<path id="group_104" d="M479.955 493.34L477.914 492.889L475.868 493.318L475.866 493.757L477.904 494.648L479.952 493.78L479.955 493.34Z" fill="#15323B"></path>
<path id="group_105" d="M448.071 505.149L446.022 506.127L448.061 507.018L450.109 506.149L448.071 505.149Z" fill="#FFD25F"></path>
<path id="group_106" d="M450.996 503.955L448.948 504.824L450.987 505.714L453.181 504.847L450.996 503.955Z" fill="#FFD25F"></path>
<path id="group_107" d="M454.068 502.653L452.02 503.521L454.059 504.412L456.107 503.544L454.068 502.653Z" fill="#FFD25F"></path>
<path id="group_108" d="M456.995 501.35L454.947 502.218L456.985 503.109L459.18 502.241L456.995 501.35Z" fill="#325B69"></path>
<path id="group_109" d="M460.068 500.047L458.019 500.916L460.058 501.806L462.106 500.938L460.068 500.047Z" fill="#325B69"></path>
<path id="group_110" d="M462.994 498.744L460.946 499.612L462.984 500.613L465.179 499.636L462.994 498.744Z" fill="#325B69"></path>
<path id="group_111" d="M465.919 497.551L463.871 498.419L465.91 499.31L467.958 498.441L465.919 497.551Z" fill="#325B69"></path>
<path id="group_112" d="M468.992 496.249L466.943 497.117L468.982 498.007L471.03 497.139L468.992 496.249Z" fill="#325B69"></path>
<path id="group_113" d="M471.918 494.945L469.87 495.814L471.909 496.704L473.957 495.836L471.918 494.945Z" fill="#325B69"></path>
<path id="group_114" d="M474.991 493.643L472.943 494.511L474.98 495.512L477.029 494.533L474.991 493.643Z" fill="#325B69"></path>
<path id="group_115" d="M477.917 492.34L475.868 493.318L477.906 494.208L479.955 493.34L477.917 492.34Z" fill="#325B69"></path>
<path id="group_116" d="M485.236 488.532L483.049 488.08L481.003 488.509L481 489.058L483.039 489.949L485.233 489.081L485.236 488.532Z" fill="#15323B"></path>
<path id="group_117" d="M488.162 487.338L486.121 486.887L484.075 487.316L484.072 487.756L486.111 488.646L488.159 487.778L488.162 487.338Z" fill="#15323B"></path>
<path id="group_118" d="M491.234 486.036L489.047 485.584L487.001 486.013L486.999 486.453L489.038 487.343L491.232 486.476L491.234 486.036Z" fill="#15323B"></path>
<path id="group_119" d="M483.052 487.64L481.004 488.509L483.042 489.509L485.236 488.532L483.052 487.64Z" fill="#325B69"></path>
<path id="group_120" d="M486.124 486.338L484.075 487.316L486.114 488.207L488.162 487.338L486.124 486.338Z" fill="#325B69"></path>
<path id="group_121" d="M489.05 485.144L487.001 486.013L489.04 486.903L491.234 486.036L489.05 485.144Z" fill="#325B69"></path>
<path id="group_122" d="M478.172 499.047L476.131 498.596L458.284 505.864L458.282 506.304L460.32 507.194L478.169 499.597L478.172 499.047Z" fill="#FFA100"></path>
<path id="group_123" d="M445.734 505.466L443.693 505.015L441.647 505.444L441.644 505.884L443.683 506.774L445.731 505.906L445.734 505.466Z" fill="#15323B"></path>
<path id="group_124" d="M448.805 504.163L446.618 503.712L444.572 504.14L444.57 504.58L446.609 505.471L448.803 504.603L448.805 504.163Z" fill="#FFA100"></path>
<path id="group_125" d="M451.732 502.86L449.691 502.409L447.645 502.838L447.642 503.278L449.68 504.278L451.729 503.3L451.732 502.86Z" fill="#15323B"></path>
<path id="group_126" d="M454.804 501.558L452.618 501.106L450.572 501.535L450.569 502.084L452.607 502.975L454.801 502.107L454.804 501.558Z" fill="#15323B"></path>
<path id="group_127" d="M457.73 500.364L455.69 499.914L453.643 500.342L453.641 500.782L455.68 501.672L457.728 500.804L457.73 500.364Z" fill="#15323B"></path>
<path id="group_128" d="M460.803 499.062L458.616 498.61L456.57 499.039L456.567 499.479L458.606 500.369L460.8 499.502L460.803 499.062Z" fill="#15323B"></path>
<path id="group_129" d="M463.583 497.758L461.542 497.307L459.496 497.736L459.493 498.285L461.532 499.176L463.58 498.308L463.583 497.758Z" fill="#15323B"></path>
<path id="group_130" d="M466.655 496.565L464.613 496.115L462.568 496.543L462.565 496.983L464.604 497.874L466.652 497.005L466.655 496.565Z" fill="#15323B"></path>
<path id="group_131" d="M469.581 495.262L467.54 494.811L465.494 495.24L465.492 495.68L467.53 496.57L469.579 495.702L469.581 495.262Z" fill="#15323B"></path>
<path id="group_132" d="M472.653 493.96L470.612 493.509L468.566 493.938L468.564 494.377L470.602 495.268L472.651 494.4L472.653 493.96Z" fill="#15323B"></path>
<path id="group_133" d="M475.58 492.657L473.539 492.206L471.493 492.634L471.491 493.074L473.529 493.965L475.577 493.096L475.58 492.657Z" fill="#15323B"></path>
<path id="group_134" d="M478.652 491.354L476.611 490.903L474.565 491.332L474.563 491.772L476.601 492.772L478.65 491.794L478.652 491.354Z" fill="#15323B"></path>
<path id="group_135" d="M441.798 504.565L439.756 504.114L437.565 504.542L437.562 504.982L439.747 505.873L441.795 505.005L441.798 504.565Z" fill="#15323B"></path>
<path id="group_136" d="M444.724 503.262L442.683 502.811L440.637 503.24L440.635 503.679L442.673 504.68L444.722 503.702L444.724 503.262Z" fill="#15323B"></path>
<path id="group_137" d="M447.796 501.959L445.755 501.509L443.564 501.936L443.561 502.486L445.745 503.377L447.793 502.509L447.796 501.959Z" fill="#15323B"></path>
<path id="group_138" d="M450.722 500.766L448.681 500.315L446.635 500.744L446.633 501.184L448.671 502.074L450.719 501.206L450.722 500.766Z" fill="#15323B"></path>
<path id="group_139" d="M453.794 499.464L451.753 499.013L449.562 499.441L449.559 499.88L451.744 500.772L453.792 499.903L453.794 499.464Z" fill="#15323B"></path>
<path id="group_140" d="M456.721 498.16L454.68 497.71L452.634 498.138L452.631 498.578L454.67 499.468L456.718 498.6L456.721 498.16Z" fill="#15323B"></path>
<path id="group_141" d="M459.647 496.857L457.606 496.406L455.56 496.835L455.557 497.385L457.596 498.275L459.644 497.407L459.647 496.857Z" fill="#15323B"></path>
<path id="group_142" d="M462.718 495.665L460.531 495.213L458.485 495.642L458.483 496.081L460.522 496.972L462.716 496.104L462.718 495.665Z" fill="#15323B"></path>
<path id="group_143" d="M465.644 494.361L463.603 493.911L461.558 494.339L461.555 494.779L463.594 495.669L465.642 494.801L465.644 494.361Z" fill="#15323B"></path>
<path id="group_144" d="M468.717 493.059L466.53 492.607L464.485 493.036L464.482 493.476L466.521 494.366L468.715 493.499L468.717 493.059Z" fill="#15323B"></path>
<path id="group_145" d="M471.644 491.756L469.603 491.305L467.557 491.733L467.554 492.173L469.593 493.064L471.641 492.195L471.644 491.756Z" fill="#15323B"></path>
<path id="group_146" d="M474.716 490.453L472.529 490.001L470.483 490.43L470.481 490.87L472.519 491.87L474.714 490.893L474.716 490.453Z" fill="#15323B"></path>
<path id="group_147" d="M481.578 490.051L479.538 489.6L477.492 490.028L477.489 490.468L479.527 491.469L481.576 490.49L481.578 490.051Z" fill="#15323B"></path>
<path id="group_148" d="M442.954 506.66L440.767 506.208L437.55 507.18L437.548 507.62L439.732 508.511L442.951 507.1L442.954 506.66Z" fill="#15323B"></path>
<path id="group_149" d="M478.666 488.825L476.626 488.265L473.263 489.236L473.261 489.676L475.445 490.567L478.664 489.265L478.666 488.825Z" fill="#15323B"></path>
<path id="group_150" d="M484.491 491.386L482.45 490.935L478.795 492.015L478.792 492.454L480.831 493.345L484.488 491.826L484.491 491.386Z" fill="#15323B"></path>
<path id="group_151" d="M447.183 507.343L445.142 506.892L440.463 508.405L440.46 508.845L442.499 509.846L447.181 507.783L447.183 507.343Z" fill="#15323B"></path>
<path id="group_152" d="M487.257 492.61L485.216 492.16L480.098 493.89L480.095 494.33L482.134 495.221L487.254 493.05L487.257 492.61Z" fill="#15323B"></path>
<path id="group_153" d="M451.412 508.025L449.371 507.575L443.229 509.63L443.226 510.179L445.411 511.071L451.41 508.465L451.412 508.025Z" fill="#15323B"></path>
<path id="group_154" d="M438.725 505.868L436.684 505.417L434.638 505.845L434.636 506.285L436.675 507.176L438.723 506.307L438.725 505.868Z" fill="#15323B"></path>
<path id="group_155" d="M437.718 503.114L435.524 503.981L436.835 504.538L438.883 503.67L437.718 503.114Z" fill="#15323B"></path>
<path id="group_156" d="M440.791 501.811L438.597 502.679L439.907 503.236L441.955 502.367L440.791 501.811Z" fill="#15323B"></path>
<path id="group_157" d="M443.863 500.509L441.669 501.376L442.98 501.933L445.028 501.065L443.863 500.509Z" fill="#15323B"></path>
<path id="group_158" d="M446.936 499.096L444.741 500.074L446.052 500.631L448.101 499.653L446.936 499.096Z" fill="#15323B"></path>
<path id="group_159" d="M450.008 497.794L447.814 498.772L449.124 499.328L451.173 498.35L450.008 497.794Z" fill="#15323B"></path>
<path id="group_160" d="M453.081 496.492L450.887 497.359L452.197 497.916L454.391 497.048L453.081 496.492Z" fill="#15323B"></path>
<path id="group_161" d="M456.007 495.188L453.958 496.167L455.123 496.723L457.318 495.745L456.007 495.188Z" fill="#15323B"></path>
<path id="group_162" d="M459.08 493.886L457.031 494.864L458.196 495.31L460.39 494.443L459.08 493.886Z" fill="#15323B"></path>
<path id="group_163" d="M463.464 492.7L462.151 492.583L460.106 493.012L460.103 493.452L461.268 494.008L463.462 493.14L463.464 492.7Z" fill="#15323B"></path>
<path id="group_164" d="M465.37 491.282L463.175 492.149L464.486 492.706L466.534 491.838L465.37 491.282Z" fill="#15323B"></path>
<path id="group_165" d="M468.442 489.979L466.248 490.846L467.559 491.403L469.607 490.535L468.442 489.979Z" fill="#15323B"></path>
<path id="group_166" d="M471.515 488.567L469.32 489.544L470.631 490.101L472.68 489.123L471.515 488.567Z" fill="#15323B"></path>
<path id="group_167" d="M474.441 487.373L472.247 488.241L473.557 488.798L475.605 487.929L474.441 487.373Z" fill="#15323B"></path>
<path id="group_168" d="M482.561 497.202L480.52 496.751L477.158 497.722L477.155 498.162L479.193 499.162L482.558 497.642L482.561 497.202Z" fill="#15323B"></path>
<path id="group_169" d="M486.219 495.683L484.178 495.232L481.254 495.986L481.252 496.425L483.29 497.316L486.216 496.123L486.219 495.683Z" fill="#15323B"></path>
<path id="group_170" d="M490.315 493.946L488.274 493.495L484.912 494.466L484.909 494.906L486.948 495.797L490.313 494.386L490.315 493.946Z" fill="#15323B"></path>
<path id="group_171" d="M451.69 510.445L449.649 509.995L446.287 510.966L446.284 511.405L448.322 512.406L451.688 510.885L451.69 510.445Z" fill="#FFA100"></path>
<path id="group_172" d="M455.348 508.926L453.307 508.475L450.383 509.229L450.381 509.669L452.42 510.559L455.346 509.366L455.348 508.926Z" fill="#15323B"></path>
<path id="group_173" d="M459.445 507.19L457.404 506.739L453.896 507.709L453.893 508.149L456.078 509.04L459.442 507.63L459.445 507.19Z" fill="#15323B"></path>
<path id="group_174" d="M493.826 492.426L491.785 491.976L489.74 492.404L489.737 492.844L491.776 493.734L493.824 492.866L493.826 492.426Z" fill="#FFA100"></path>
<path id="group_175" d="M496.899 491.124L494.858 490.673L492.666 491.1L492.664 491.54L494.848 492.432L496.897 491.563L496.899 491.124Z" fill="#FFA100"></path>
<path id="group_176" d="M493.841 489.788L491.8 489.337L489.754 489.765L489.752 490.205L491.79 491.096L493.838 490.228L493.841 489.788Z" fill="#FFA100"></path>
<path id="group_177" d="M499.825 489.82L497.784 489.37L495.738 489.798L495.736 490.238L497.775 491.128L499.823 490.26L499.825 489.82Z" fill="#FFA100"></path>
<path id="group_178" d="M482.177 487.306L480.137 486.855L478.091 487.283L478.089 487.723L480.127 488.614L482.175 487.745L482.177 487.306Z" fill="#15323B"></path>
<path id="group_179" d="M485.25 486.003L483.063 485.552L481.017 485.98L481.015 486.42L483.053 487.31L485.247 486.443L485.25 486.003Z" fill="#15323B"></path>
<path id="group_180" d="M488.176 484.7L486.135 484.249L484.089 484.678L484.087 485.117L486.125 486.008L488.174 485.14L488.176 484.7Z" fill="#15323B"></path>
<path id="group_181" d="M479.265 485.971L477.953 485.854L475.907 486.282L475.905 486.722L477.069 487.278L479.263 486.41L479.265 485.971Z" fill="#15323B"></path>
<path id="group_182" d="M482.192 484.667L480.879 484.55L478.834 484.979L478.831 485.419L480.142 485.975L482.19 485.107L482.192 484.667Z" fill="#15323B"></path>
<path id="group_183" d="M485.264 483.365L483.951 483.248L481.905 483.676L481.903 484.116L483.068 484.672L485.262 483.805L485.264 483.365Z" fill="#15323B"></path>
<path id="group_184" d="M485.236 488.532L483.049 488.08L481.004 488.509L481.001 489.058L483.039 489.949L485.233 489.081L485.236 488.532Z" fill="#15323B"></path>
<path id="group_185" d="M488.162 487.338L486.121 486.887L484.075 487.316L484.072 487.756L486.111 488.646L488.159 487.778L488.162 487.338Z" fill="#15323B"></path>
<path id="group_186" d="M491.234 486.036L489.047 485.584L487.001 486.013L486.998 486.453L489.037 487.343L491.231 486.476L491.234 486.036Z" fill="#15323B"></path>
<path id="group_187" d="M491.688 483.18L489.647 482.729L487.601 483.158L487.599 483.598L489.637 484.488L491.685 483.62L491.688 483.18Z" fill="#15323B"></path>
<path id="group_188" d="M494.614 481.877L492.573 481.426L490.527 481.855L490.525 482.294L492.563 483.295L494.611 482.317L494.614 481.877Z" fill="#15323B"></path>
<path id="group_189" d="M497.687 480.575L495.646 480.124L493.6 480.552L493.597 481.102L495.636 481.992L497.684 481.124L497.687 480.575Z" fill="#15323B"></path>
<path id="group_190" d="M500.612 479.381L498.571 478.93L496.525 479.359L496.523 479.799L498.561 480.689L500.61 479.821L500.612 479.381Z" fill="#15323B"></path>
<path id="group_191" d="M490.389 480.535L488.34 481.403L489.651 481.96L491.699 481.092L490.389 480.535Z" fill="#15323B"></path>
<path id="group_192" d="M493.46 479.232L491.412 480.101L492.577 480.657L494.625 479.788L493.46 479.232Z" fill="#15323B"></path>
<path id="group_193" d="M496.387 477.929L494.339 478.797L495.649 479.354L497.698 478.486L496.387 477.929Z" fill="#15323B"></path>
<path id="group_194" d="M506.409 486.998L504.222 486.546L499.25 488.278L499.247 488.718L501.285 489.718L506.406 487.548L506.409 486.998Z" fill="#15323B"></path>
<path id="group_195" d="M509.335 485.805L507.294 485.354L505.248 485.782L505.245 486.222L507.284 487.113L509.332 486.244L509.335 485.805Z" fill="#15323B"></path>
<path id="group_196" d="M512.406 484.502L507.307 482.716L505.261 483.144L505.259 483.584L510.21 485.81L512.404 484.942L512.406 484.502Z" fill="#15323B"></path>
<path id="group_197" d="M476.133 498.156L458.284 505.864L460.323 506.755L478.172 499.047L476.133 498.156Z" fill="#FFD25F"></path>
<path id="group_198" d="M443.695 504.576L441.647 505.444L443.686 506.334L445.734 505.466L443.695 504.576Z" fill="#325B69"></path>
<path id="group_199" d="M446.621 503.272L444.573 504.141L446.612 505.031L448.806 504.164L446.621 503.272Z" fill="#FFD25F"></path>
<path id="group_200" d="M449.693 501.97L447.645 502.838L449.683 503.839L451.732 502.86L449.693 501.97Z" fill="#325B69"></path>
<path id="group_201" d="M452.62 500.667L450.572 501.535L452.61 502.535L454.805 501.558L452.62 500.667Z" fill="#325B69"></path>
<path id="group_202" d="M455.692 499.364L453.643 500.342L455.682 501.233L457.73 500.365L455.692 499.364Z" fill="#325B69"></path>
<path id="group_203" d="M458.618 498.171L456.57 499.039L458.609 499.93L460.803 499.062L458.618 498.171Z" fill="#325B69"></path>
<path id="group_204" d="M461.545 496.868L459.496 497.736L461.535 498.736L463.583 497.758L461.545 496.868Z" fill="#325B69"></path>
<path id="group_205" d="M464.617 495.565L462.568 496.543L464.607 497.434L466.655 496.566L464.617 495.565Z" fill="#325B69"></path>
<path id="group_206" d="M467.542 494.372L465.494 495.24L467.533 496.131L469.581 495.262L467.542 494.372Z" fill="#325B69"></path>
<path id="group_207" d="M470.615 493.069L468.567 493.938L470.606 494.828L472.654 493.96L470.615 493.069Z" fill="#325B69"></path>
<path id="group_208" d="M473.542 491.766L471.494 492.634L473.532 493.525L475.58 492.657L473.542 491.766Z" fill="#325B69"></path>
<path id="group_209" d="M476.614 490.463L474.566 491.332L476.604 492.222L478.652 491.354L476.614 490.463Z" fill="#325B69"></path>
<path id="group_210" d="M439.759 503.675L437.565 504.542L439.749 505.433L441.798 504.565L439.759 503.675Z" fill="#325B69"></path>
<path id="group_211" d="M442.685 502.371L440.637 503.24L442.676 504.13L444.724 503.262L442.685 502.371Z" fill="#325B69"></path>
<path id="group_212" d="M445.758 501.069L443.564 501.936L445.748 502.938L447.796 501.959L445.758 501.069Z" fill="#325B69"></path>
<path id="group_213" d="M448.684 499.766L446.636 500.744L448.674 501.634L450.722 500.766L448.684 499.766Z" fill="#325B69"></path>
<path id="group_214" d="M451.756 498.573L449.562 499.441L451.746 500.332L453.794 499.464L451.756 498.573Z" fill="#325B69"></path>
<path id="group_215" d="M454.682 497.27L452.634 498.138L454.673 499.029L456.721 498.16L454.682 497.27Z" fill="#325B69"></path>
<path id="group_216" d="M457.609 495.967L455.56 496.835L457.598 497.835L459.647 496.857L457.609 495.967Z" fill="#325B69"></path>
<path id="group_217" d="M460.535 494.663L458.486 495.642L460.525 496.532L462.719 495.665L460.535 494.663Z" fill="#325B69"></path>
<path id="group_218" d="M463.606 493.471L461.558 494.339L463.596 495.23L465.645 494.361L463.606 493.471Z" fill="#325B69"></path>
<path id="group_219" d="M466.533 492.168L464.485 493.036L466.523 493.926L468.717 493.059L466.533 492.168Z" fill="#325B69"></path>
<path id="group_220" d="M469.605 490.865L467.557 491.733L469.596 492.624L471.644 491.756L469.605 490.865Z" fill="#325B69"></path>
<path id="group_221" d="M472.532 489.562L470.483 490.43L472.522 491.32L474.716 490.453L472.532 489.562Z" fill="#325B69"></path>
<path id="group_222" d="M479.541 489.16L477.492 490.028L479.53 491.029L481.579 490.051L479.541 489.16Z" fill="#325B69"></path>
<path id="group_223" d="M440.769 505.769L437.55 507.18L439.735 508.072L442.954 506.66L440.769 505.769Z" fill="#325B69"></path>
<path id="group_224" d="M476.628 487.825L473.263 489.236L475.448 490.127L478.666 488.826L476.628 487.825Z" fill="#325B69"></path>
<path id="group_225" d="M482.452 490.495L478.795 492.014L480.833 492.905L484.491 491.386L482.452 490.495Z" fill="#325B69"></path>
<path id="group_226" d="M445.144 506.452L440.463 508.405L442.501 509.406L447.183 507.343L445.144 506.452Z" fill="#325B69"></path>
<path id="group_227" d="M485.218 491.72L480.098 493.89L482.136 494.781L487.257 492.61L485.218 491.72Z" fill="#325B69"></path>
<path id="group_228" d="M449.374 507.025L443.23 509.63L445.414 510.631L451.412 508.025L449.374 507.025Z" fill="#325B69"></path>
<path id="group_229" d="M436.687 504.977L434.638 505.845L436.677 506.736L438.725 505.868L436.687 504.977Z" fill="#325B69"></path>
<path id="group_230" d="M437.721 502.674L435.526 503.542L436.837 504.098L438.885 503.23L437.721 502.674Z" fill="#325B69"></path>
<path id="group_231" d="M440.793 501.372L438.599 502.239L439.909 502.796L441.957 501.928L440.793 501.372Z" fill="#325B69"></path>
<path id="group_232" d="M443.866 499.959L441.671 500.937L442.982 501.494L445.031 500.515L443.866 499.959Z" fill="#325B69"></path>
<path id="group_233" d="M446.938 498.657L444.743 499.634L446.054 500.191L448.103 499.213L446.938 498.657Z" fill="#325B69"></path>
<path id="group_234" d="M450.011 497.354L447.816 498.332L449.127 498.779L451.175 497.91L450.011 497.354Z" fill="#325B69"></path>
<path id="group_235" d="M453.083 496.052L450.889 496.919L452.199 497.476L454.393 496.609L453.083 496.052Z" fill="#325B69"></path>
<path id="group_236" d="M456.009 494.749L453.961 495.727L455.125 496.283L457.32 495.305L456.009 494.749Z" fill="#325B69"></path>
<path id="group_237" d="M459.082 493.446L457.033 494.314L458.198 494.87L460.392 494.003L459.082 493.446Z" fill="#325B69"></path>
<path id="group_238" d="M462.153 492.144L460.105 493.012L461.27 493.568L463.464 492.7L462.153 492.144Z" fill="#325B69"></path>
<path id="group_239" d="M465.372 490.842L463.178 491.71L464.488 492.266L466.537 491.398L465.372 490.842Z" fill="#325B69"></path>
<path id="group_240" d="M468.445 489.539L466.251 490.407L467.561 490.964L469.61 489.985L468.445 489.539Z" fill="#325B69"></path>
<path id="group_241" d="M471.517 488.127L469.323 489.104L470.633 489.661L472.682 488.683L471.517 488.127Z" fill="#325B69"></path>
<path id="group_242" d="M474.443 486.934L472.249 487.801L473.56 488.358L475.608 487.49L474.443 486.934Z" fill="#325B69"></path>
<path id="group_243" d="M434.648 503.977L432.454 504.844L433.765 505.401L435.813 504.533L434.648 503.977Z" fill="#325B69"></path>
<path id="group_244" d="M480.523 496.311L477.158 497.722L479.197 498.613L482.561 497.202L480.523 496.311Z" fill="#325B69"></path>
<path id="group_245" d="M484.181 494.792L481.255 495.986L483.293 496.876L486.219 495.683L484.181 494.792Z" fill="#325B69"></path>
<path id="group_246" d="M488.277 493.056L484.912 494.466L486.95 495.357L490.315 493.946L488.277 493.056Z" fill="#325B69"></path>
<path id="group_247" d="M449.651 509.555L446.287 510.966L448.325 511.856L451.69 510.445L449.651 509.555Z" fill="#FFD25F"></path>
<path id="group_248" d="M453.309 508.036L450.383 509.229L452.422 510.12L455.348 508.926L453.309 508.036Z" fill="#325B69"></path>
<path id="group_249" d="M457.406 506.299L453.896 507.709L456.08 508.6L459.445 507.19L457.406 506.299Z" fill="#325B69"></path>
<path id="group_250" d="M491.788 491.536L489.74 492.404L491.778 493.295L493.826 492.426L491.788 491.536Z" fill="#FFD25F"></path>
<path id="group_251" d="M494.86 490.233L492.666 491.1L494.851 491.992L496.899 491.124L494.86 490.233Z" fill="#FFD25F"></path>
<path id="group_252" d="M491.802 488.897L489.754 489.765L491.793 490.656L493.841 489.788L491.802 488.897Z" fill="#FFD25F"></path>
<path id="group_253" d="M497.787 488.93L495.738 489.798L497.777 490.689L499.825 489.82L497.787 488.93Z" fill="#FFD25F"></path>
<path id="group_254" d="M480.139 486.305L478.091 487.283L480.129 488.174L482.177 487.306L480.139 486.305Z" fill="#325B69"></path>
<path id="group_255" d="M483.065 485.112L481.017 485.98L483.056 486.871L485.25 486.003L483.065 485.112Z" fill="#325B69"></path>
<path id="group_256" d="M486.138 483.809L484.089 484.678L486.128 485.568L488.176 484.7L486.138 483.809Z" fill="#325B69"></path>
<path id="group_257" d="M477.955 485.414L475.907 486.282L477.071 486.838L479.265 485.971L477.955 485.414Z" fill="#325B69"></path>
<path id="group_258" d="M480.882 484.111L478.833 484.979L480.144 485.536L482.192 484.667L480.882 484.111Z" fill="#325B69"></path>
<path id="group_259" d="M483.954 482.808L481.905 483.676L483.07 484.232L485.264 483.365L483.954 482.808Z" fill="#325B69"></path>
<path id="group_260" d="M483.051 487.64L481.003 488.509L483.041 489.509L485.236 488.532L483.051 487.64Z" fill="#325B69"></path>
<path id="group_261" d="M486.124 486.338L484.075 487.316L486.114 488.207L488.162 487.338L486.124 486.338Z" fill="#325B69"></path>
<path id="group_262" d="M489.05 485.144L487.001 486.013L489.04 486.903L491.234 486.036L489.05 485.144Z" fill="#325B69"></path>
<path id="group_263" d="M489.649 482.29L487.601 483.158L489.639 484.048L491.687 483.18L489.649 482.29Z" fill="#325B69"></path>
<path id="group_264" d="M492.575 480.986L490.527 481.855L492.566 482.745L494.614 481.877L492.575 480.986Z" fill="#325B69"></path>
<path id="group_265" d="M495.647 479.684L493.599 480.552L495.637 481.553L497.686 480.575L495.647 479.684Z" fill="#325B69"></path>
<path id="group_266" d="M498.574 478.381L496.525 479.359L498.564 480.249L500.612 479.381L498.574 478.381Z" fill="#325B69"></path>
<path id="group_267" d="M487.465 481.288L485.417 482.157L486.581 482.713L488.63 481.844L487.465 481.288Z" fill="#325B69"></path>
<path id="group_268" d="M490.391 479.985L488.342 480.963L489.653 481.52L491.702 480.542L490.391 479.985Z" fill="#325B69"></path>
<path id="group_269" d="M493.463 478.793L491.415 479.661L492.58 480.217L494.628 479.349L493.463 478.793Z" fill="#325B69"></path>
<path id="group_270" d="M496.39 477.49L494.341 478.358L495.652 478.915L497.7 478.046L496.39 477.49Z" fill="#325B69"></path>
<path id="group_271" d="M504.224 486.107L499.25 488.278L501.288 489.169L506.409 486.998L504.224 486.107Z" fill="#325B69"></path>
<path id="group_272" d="M507.297 484.804L505.248 485.782L507.286 486.673L509.334 485.805L507.297 484.804Z" fill="#325B69"></path>
<path id="group_273" d="M507.31 482.276L505.262 483.144L510.212 485.37L512.407 484.502L507.31 482.276Z" fill="#325B69"></path>
<path id="group_274" d="M433.765 505.401L432.454 504.844L432.452 505.284L433.763 505.841L435.811 504.972L435.813 504.532L433.765 505.401Z" fill="#15323B"></path>
<path id="group_275" d="M436.837 504.098L435.527 503.541L435.525 503.981L436.835 504.538L438.883 503.67L438.886 503.23L436.837 504.098Z" fill="#15323B"></path>
<path id="group_276" d="M442.982 501.493L441.671 500.937L441.669 501.376L442.98 501.933L445.028 501.065L445.031 500.515L442.982 501.493Z" fill="#15323B"></path>
<path id="group_277" d="M439.91 502.796L438.599 502.239L438.597 502.679L439.908 503.236L441.956 502.367L441.958 501.927L439.91 502.796Z" fill="#15323B"></path>
<path id="group_278" d="M446.054 500.191L444.743 499.634L444.741 500.074L446.051 500.631L448.101 499.652L448.103 499.213L446.054 500.191Z" fill="#15323B"></path>
<path id="group_279" d="M449.128 498.779L447.816 498.332L447.814 498.771L449.125 499.328L451.173 498.35L451.176 497.91L449.128 498.779Z" fill="#15323B"></path>
<path id="group_280" d="M452.2 497.476L450.889 496.919L450.887 497.359L452.197 497.916L454.391 497.048L454.394 496.609L452.2 497.476Z" fill="#15323B"></path>
<path id="group_281" d="M455.125 496.283L453.96 495.727L453.958 496.167L455.122 496.723L457.317 495.745L457.32 495.305L455.125 496.283Z" fill="#15323B"></path>
<path id="group_282" d="M458.198 494.87L457.033 494.314L457.03 494.864L458.196 495.31L460.39 494.443L460.392 494.003L458.198 494.87Z" fill="#15323B"></path>
<path id="group_283" d="M464.489 492.266L463.178 491.71L463.176 492.149L464.487 492.706L466.535 491.838L466.537 491.398L464.489 492.266Z" fill="#15323B"></path>
<path id="group_284" d="M467.561 490.964L466.251 490.407L466.248 490.846L467.559 491.403L469.607 490.535L469.61 489.985L467.561 490.964Z" fill="#15323B"></path>
<path id="group_285" d="M470.633 489.661L469.323 489.104L469.321 489.544L470.631 490.101L472.68 489.123L472.682 488.683L470.633 489.661Z" fill="#15323B"></path>
<path id="group_286" d="M473.56 488.358L472.25 487.801L472.247 488.241L473.558 488.798L475.606 487.929L475.608 487.49L473.56 488.358Z" fill="#15323B"></path>
<path id="group_287" d="M486.581 482.713L485.417 482.157L485.414 482.706L486.578 483.262L488.627 482.284L488.63 481.844L486.581 482.713Z" fill="#15323B"></path>
<path id="group_288" d="M489.653 481.52L488.343 480.963L488.34 481.403L489.651 481.96L491.699 481.092L491.702 480.542L489.653 481.52Z" fill="#15323B"></path>
<path id="group_289" d="M492.579 480.217L491.415 479.661L491.412 480.101L492.577 480.657L494.625 479.788L494.627 479.349L492.579 480.217Z" fill="#15323B"></path>
<path id="group_290" d="M495.652 478.914L494.341 478.358L494.339 478.797L495.649 479.354L497.698 478.486L497.7 478.046L495.652 478.914Z" fill="#15323B"></path>
</g>
<g class="window none">
<path id="group_291" d="M281.88 429.34L372.525 394.564V274.025L281.88 308.76V429.34Z" fill="#A1E6FB"></path>
<path id="group_292" fill-rule="evenodd" clip-rule="evenodd" d="M277.668 434.528L369.961 399.144L378.567 395.821V389.214V269.607V263L369.961 266.324L277.668 301.667L269 304.99V311.638V431.205V437.811L277.668 434.528ZM275.104 306.287L372.525 268.918V394.605L275.104 431.975V306.287Z" fill="#7D95AE"></path>
<path id="group_293" d="M378.567 269.607V389.214V395.821L369.961 399.144L277.668 434.528L269 437.811L274.433 440L283.1 436.676L384 398.01V391.362V271.795V265.189L378.567 263V269.607Z" fill="#EDF2F6"></path>
<path id="group_294" d="M372.525 274.025V268.877L275.104 306.247L281.88 308.76L372.525 274.025Z" fill="#EDF2F6"></path>
<path id="group_295" d="M281.88 308.76L275.104 306.247V431.934L281.88 429.34V308.76Z" fill="#52657A"></path>
<path id="group_296" d="M384 265.189L378.568 263V395.821L384 398.01V265.189Z" fill="#52657A"></path>
<path id="group_297" d="M328.27 313.624V295.466L287.312 310.827V357.884L328.27 313.624Z" fill="white"></path>
</g>
</g>
<defs>
<linearGradient id="paint0_linear_18_2491" x1="477.5" y1="289.5" x2="749" y2="397.5" gradientUnits="userSpaceOnUse">
<stop stop-color="#73A2B4"></stop>
<stop offset="1" stop-color="#6E9BBD"></stop>
</linearGradient>
<linearGradient id="paint1_linear_18_2491" x1="477.5" y1="290" x2="207.5" y2="397" gradientUnits="userSpaceOnUse">
<stop stop-color="#93C1D1"></stop>
<stop offset="1" stop-color="#7794B1"></stop>
</linearGradient>
</defs>
</svg>