<?xml-stylesheet type="text/css" href="../../css/gameMap.css"?>
<svg width="957" height="957" viewBox="0 0 957 957" fill="none" xmlns="http://www.w3.org/2000/svg">
<g class="level4">
<g class="base none">
<path id="group" d="M749 270L477.5 162.5V433.5L749 541V270Z" fill="url(#paint0_linear_18_1105)"></path>
<path id="group_2" d="M478 648.5L207 540.5L477.5 433.5L749 541L478 648.5Z" fill="#57768B"></path>
<path id="group_3" d="M207.5 269.5L207 540.5L477.5 433.5V162.5L207.5 269.5Z" fill="url(#paint1_linear_18_1105)"></path>
<path id="group_4" d="M207 571.5V540.5L478 648.5L749 541V571L478 678.5L207 571.5Z" fill="#D1D1D1"></path>
<path id="group_5" d="M179 560.272V250L207.5 269.5L207 571.5L179 560.272Z" fill="#E6E6E6"></path>
<path id="group_6" d="M749 269.563L776 250L776.5 560L749 571V269.563Z" fill="#ABABAB"></path>
<path id="group_7" d="M207.5 269.5L179 250L477.5 132L776.5 250.5L749 270L477.5 162.5L207.5 269.5Z" fill="#D1D1D1"></path>
<path id="group_8" d="M207 571.5V540.5L478 648.441V678.5L207 571.5Z" fill="#E6E6E6"></path>
<path id="group_9" d="M749 571V541L478 648.5V678.5L749 571Z" fill="#ABABAB"></path>
</g>
<g class="wardrobe none">
<path id="group_10" d="M601.333 357.706L601.289 434.058L571.596 422.676V332.919L601.333 357.706Z" fill="#55798F"></path>
<path id="group_11" d="M428 454.769L479.009 434.36L580.193 474.574L533 493.473L521.991 492.175L428 454.769Z" fill="#476173"></path>
<path id="group_12" d="M570.983 331.47L570.456 471.223L478.965 434.45L478.307 295L570.983 331.47Z" fill="#DEB89D"></path>
<path id="group_13" d="M430.28 314.443L478.657 295L479.271 434.45L429.754 454.195L430.28 314.443Z" fill="#ABA499"></path>
<path id="group_14" d="M430.895 405.618L480.368 385.904L571.903 423.069L523.526 442.511L430.895 405.618Z" fill="white"></path>
<path id="group_15" d="M439.711 402.116L489.228 382.372L568.921 414.796L520.588 434.239L439.711 402.116Z" fill="#A09D91"></path>
<path id="group_16" d="M431.421 405.377L456.158 395.535L488.527 408.487L474.272 414.223L431.421 405.377Z" fill="#A09D91"></path>
<path id="group_17" d="M482.781 397.406L501.816 389.798L501.772 402.931L482.737 410.569L482.781 397.406Z" fill="#C3A2A9"></path>
<g id="group_18" style="mix-blend-mode:multiply">
<path d="M482.781 397.406L501.816 389.798L501.772 394.176L482.737 401.784L482.781 397.406Z" fill="#C3A2A9"></path>
</g>
<path id="group_19" d="M454.316 386.145L473.351 378.537L501.816 389.798L482.781 397.406L454.316 386.145Z" fill="#FFEBB0"></path>
<path id="group_20" d="M482.78 397.406L482.737 410.57L454.272 399.308L454.316 386.145L482.78 397.406Z" fill="#E9D1D1"></path>
<path id="group_21" d="M482.78 397.406L482.737 410.57L454.272 399.308L454.316 386.145L482.78 397.406Z" fill="#EFDEE8"></path>
<path id="group_22" d="M482.78 397.406L482.737 401.784L454.272 390.523L454.316 386.145L482.78 397.406Z" fill="#C5B8B0"></path>
<path id="group_23" d="M483 398.433L503.044 390.433L503 392.546L482.956 400.547L483 398.433Z" fill="#C3A2A9"></path>
<path id="group_24" d="M453.131 386.599L473.131 378.598L503.043 390.403L482.999 398.433L453.131 386.599Z" fill="#C3A2A9"></path>
<path id="group_25" d="M483 398.433L482.956 400.546L453.087 388.742L453.131 386.598L483 398.433Z" fill="#E9D1D1"></path>
<path id="group_26" d="M483 398.433L482.956 400.546L453.087 388.742L453.131 386.598L483 398.433Z" fill="#EFDEE8"></path>
<path id="group_27" d="M534.097 417.272L518.263 423.612L494.579 414.253L510.412 407.913L534.097 417.272Z" fill="#DA977C"></path>
<path id="group_28" d="M534.096 406.162V417.121L510.412 407.732V396.803L534.096 406.162Z" fill="#E9D1D1"></path>
<path id="group_29" d="M534.096 406.162V417.121L510.412 407.732V396.803L534.096 406.162Z" fill="#EFDEE8"></path>
<path id="group_30" d="M518.263 412.502L534.096 406.162V417.121L518.219 423.461L518.263 412.502Z" fill="#C3A2A9"></path>
<path id="group_31" d="M494.623 403.143L510.456 396.803L510.412 407.732L494.579 414.072L494.623 403.143Z" fill="#C3A2A9"></path>
<path id="group_32" fill-rule="evenodd" clip-rule="evenodd" d="M534.097 406.162L518.263 412.502L494.579 403.143L510.412 396.803L534.097 406.162ZM530.149 405.86L511.202 398.372L498.526 403.445L517.474 410.932L530.149 405.86Z" fill="#C3A2A9"></path>
<path id="group_33" d="M518.263 412.502L518.219 423.461L494.535 414.072L494.579 403.143L518.263 412.502Z" fill="#E9D1D1"></path>
<path id="group_34" d="M518.263 412.502L518.219 423.461L494.535 414.072L494.579 403.143L518.263 412.502Z" fill="#EFDEE8"></path>
<path id="group_35" d="M523 397.95L522.868 400.486L430.28 364.016L430.412 361.449L523 397.95Z" fill="#F4F3E8"></path>
<path id="group_36" d="M430.895 361.751L479.272 342.429L570.763 379.624L523.526 398.674L430.895 361.751Z" fill="white"></path>
<path id="group_37" d="M440.938 357.766L490.456 338.022L570.149 370.446L521.816 389.889L440.938 357.766Z" fill="#A09D91"></path>
<path id="group_38" d="M430.632 361.872L455.369 352L487.737 364.982L473.483 370.688L430.632 361.872Z" fill="#A09D91"></path>
<path id="group_39" d="M460.062 356.287L455.237 354.355L455.149 331.319L459.93 333.251L460.062 356.287Z" fill="#FAF7E8"></path>
<path id="group_40" d="M459.93 333.252L455.149 331.319L474.491 323.651L479.272 325.553L459.93 333.252Z" fill="#FFFBF8"></path>
<path id="group_41" d="M479.272 325.553L479.403 348.588L460.061 356.287L459.93 333.252L479.272 325.553Z" fill="#C3A2A9"></path>
<path id="group_42" d="M467.035 359.336L462.255 357.404L462.123 334.399L466.947 336.301L467.035 359.336Z" fill="#FAF7E8"></path>
<path id="group_43" d="M466.947 336.301L462.123 334.399L481.465 326.7L486.29 328.602L466.947 336.301Z" fill="#FFFBF8"></path>
<path id="group_44" d="M486.29 328.602L486.377 351.638L467.035 359.336L466.948 336.301L486.29 328.602Z" fill="#C3A2A9"></path>
<path id="group_45" d="M474.622 361.178L469.841 359.276L469.754 336.24L474.534 338.172L474.622 361.178Z" fill="#FAF7E8"></path>
<path id="group_46" d="M474.534 338.173L469.754 336.24L489.096 328.572L493.877 330.474L474.534 338.173Z" fill="#FFFBF8"></path>
<path id="group_47" d="M493.877 330.474L494.009 353.509L474.623 361.178L474.535 338.173L493.877 330.474Z" fill="#C3A2A9"></path>
<path id="group_48" d="M481.553 362.506L477.255 360.785L477.167 340.075L481.465 341.795L481.553 362.506Z" fill="#FAF7E8"></path>
<path id="group_49" d="M481.465 341.796L477.167 340.075L494.579 333.161L498.877 334.882L481.465 341.796Z" fill="#FFFBF8"></path>
<path id="group_50" d="M498.878 334.882L498.965 355.593L481.553 362.506L481.465 341.795L498.878 334.882Z" fill="#C3A2A9"></path>
<path id="group_51" d="M492.299 362.385L488.878 360.997L488.79 344.422L492.255 345.811L492.299 362.385Z" fill="#FAF7E8"></path>
<path id="group_52" d="M492.255 345.811L488.79 344.422L502.738 338.897L506.159 340.286L492.255 345.811Z" fill="#FFFBF8"></path>
<path id="group_53" d="M506.159 340.286L506.246 356.861L492.299 362.385L492.255 345.811L506.159 340.286Z" fill="#C3A2A9"></path>
<g id="group_54" style="mix-blend-mode:soft-light" opacity="0.1">
<path d="M479.315 336.18L520.763 352.543L520.5 440.639L479.096 424.276L479.315 336.18Z" fill="white"></path>
</g>
<g id="group_55" style="mix-blend-mode:soft-light" opacity="0.1">
<path d="M432.561 318.035L473.965 334.399L473.745 422.495L432.298 406.132L432.561 318.035Z" fill="white"></path>
</g>
<path id="group_56" d="M486.992 389.134L489.535 388.108L489.492 419.808L486.948 420.834L486.992 389.134Z" fill="#403229"></path>
<path id="group_57" d="M483.832 387.896L486.376 386.87L489.534 388.108L486.99 389.134L483.832 387.896Z" fill="#766657"></path>
<path id="group_58" d="M486.991 389.134L486.947 420.834L483.79 419.566L483.833 387.896L486.991 389.134Z" fill="#4C3B31"></path>
<path id="group_59" d="M466.421 381.798L468.965 380.771V412.471L466.377 413.498L466.421 381.798Z" fill="#403229"></path>
<path id="group_60" d="M463.263 380.56L465.851 379.534L468.965 380.772L466.421 381.798L463.263 380.56Z" fill="#766657"></path>
<path id="group_61" d="M466.421 381.798L466.377 413.498L463.263 412.26V380.56L466.421 381.798Z" fill="#4C3B31"></path>
<path id="group_62" d="M522.649 350.913L570.982 331.47L570.456 471.223L521.377 490.545L522.649 350.913Z" fill="#BBAEA5"></path>
<path id="group_63" d="M429.974 314.443L478.307 295L570.983 331.47L522.649 350.913L429.974 314.443Z" fill="white"></path>
<path id="group_64" fill-rule="evenodd" clip-rule="evenodd" d="M522.649 350.913L522.079 490.665L429.447 454.195L429.974 314.443L522.649 350.913ZM474.184 334.399L432.474 317.975L432.254 405.92L473.921 422.314L474.184 334.399ZM520.895 352.573L479.184 336.15L478.965 424.065L520.675 440.488L520.895 352.573Z" fill="#F2E6D8"></path>
<g id="group_65" style="mix-blend-mode:multiply">
<path d="M477.034 472.913L475.148 472.189L475.412 332.527L477.298 333.04" fill="#A09D91"></path>
</g>
<path id="group_66" d="M473.307 469.653L431.596 453.259L431.815 407.49L473.526 423.884L473.307 469.653Z" fill="#F4F3E8"></path>
<path id="group_67" d="M473.526 470.528L433.745 454.708L431.728 450.783L473.526 467.479V470.528Z" fill="#A09D91"></path>
<path id="group_68" d="M472.166 425.272L473.526 424.729V468.294L472.123 468.837L472.166 425.272Z" fill="#ABA499"></path>
<path id="group_69" d="M431.64 409.241L433.044 408.698L473.526 424.729L472.166 425.272L431.64 409.241Z" fill="white"></path>
<path id="group_70" d="M472.166 425.273L472.123 468.838L431.64 452.806V409.241L472.166 425.273Z" fill="#F2E6D8"></path>
<path id="group_71" d="M520.28 488.824L480.499 473.004L478.482 469.049L520.28 485.775V488.824Z" fill="#A09D91"></path>
<path id="group_72" d="M518.877 443.568L520.28 442.994V486.59L518.877 487.133V443.568Z" fill="#ABA499"></path>
<path id="group_73" d="M478.395 427.537L479.798 426.963L520.28 442.994L518.877 443.538L478.395 427.537Z" fill="white"></path>
<path id="group_74" d="M518.877 443.538V487.133L478.395 471.102V427.507L518.877 443.538Z" fill="#F2E6D8"></path>
</g>
<g class="sideTableGroup">
<g class="sideTable none">
<path id="group_75" d="M693.859 519.523L677.587 513.092V463.972L693.991 484.653L693.859 519.523Z" fill="#4D6E87"></path>
<path id="group_76" d="M630.526 482.993L677.587 464.184L677.543 513.123L630.526 531.932V482.993Z" fill="#BBAEA5"></path>
<path id="group_77" d="M533.246 449.451L580.263 430.642V474.509L533.202 493.288L533.246 449.451Z" fill="#ABA499"></path>
<path id="group_78" d="M533.202 493.288L530 492.02V447.609L530.044 442.839L630.526 482.811V488.095V531.932L627.281 530.664L627.324 486.887L533.246 449.451L533.202 493.288Z" fill="#F2E6D8"></path>
<path id="group_79" d="M530.044 442.839L577.062 424L677.544 463.972L630.527 482.811L530.044 442.839Z" fill="white"></path>
<path id="group_80" d="M656.272 534.347L630.483 531.962L677.72 512.942L694.036 519.403L656.272 534.347Z" fill="#445C6C"></path>
</g>
<g class="prop2 none">
<path id="group_81" d="M560.281 433.575L579.842 425.695L601.334 434.209L584.316 441.062L578.702 440.851L560.281 433.575Z" fill="#CCBEBB"></path>
<path id="group_82" d="M594.799 428.774L594.755 433.545L577.606 440.428V435.628L594.799 428.774Z" fill="#AC8D5F"></path>
<path id="group_83" d="M577.606 435.628V440.428L560.281 433.545L560.325 428.774L577.606 435.628Z" fill="#FCDEA8"></path>
<path id="group_84" d="M594.799 428.775L577.606 435.628L560.325 428.775L577.518 421.891L594.799 428.775Z" fill="#FCDEA8"></path>
<path id="group_85" d="M591.334 428.774L577.606 434.269L563.747 428.774L577.519 423.25L591.334 428.774Z" fill="#685544"></path>
<path id="group_86" d="M581.246 427.114V430.435L578.483 431.552V428.231L581.246 427.114Z" fill="#584234"></path>
<path id="group_87" d="M578.483 428.231V431.552L575.72 430.435V427.114L578.483 428.231Z" fill="#9E7967"></path>
<path id="group_88" d="M581.246 427.114L578.483 428.231L575.72 427.114L578.483 426.027L581.246 427.114Z" fill="#EFEFEF"></path>
<path id="group_89" d="M591.378 408.064L591.29 424.669L577.562 430.163L577.606 413.558L591.378 408.064Z" fill="#8A7C4D"></path>
<path id="group_90" d="M577.606 413.558L577.562 430.163L563.702 424.669L563.79 408.064L577.606 413.558Z" fill="#B8A465"></path>
<path id="group_91" d="M591.378 408.064L577.606 413.558L563.79 408.064L577.518 402.569L591.378 408.064Z" fill="#E9E093"></path>
</g>
<g class="prop1 none">
<path id="group_92" d="M536.378 443.538L559.053 434.42L586.202 445.168L566.115 453.199L560.325 453.017L536.378 443.538Z" fill="#CCBEBB"></path>
<path id="group_93" d="M576.159 446.677L560.326 453.017L536.642 443.658L552.519 437.318L576.159 446.677Z" fill="#DA977C"></path>
<path id="group_94" d="M576.159 435.567V446.496L552.474 437.137L552.518 426.208L576.159 435.567Z" fill="#E9D1D1"></path>
<path id="group_95" d="M576.159 435.567V446.496L552.474 437.137L552.518 426.208L576.159 435.567Z" fill="#4C3B31"></path>
<path id="group_96" d="M536.686 432.548L552.519 426.208V437.137L536.642 443.477L536.686 432.548Z" fill="#392C24"></path>
<path id="group_97" d="M560.327 441.907L576.161 435.567V446.496L560.283 452.836L560.327 441.907Z" fill="#403229"></path>
<path id="group_98" d="M568.614 438.164L554.886 443.658L538.746 437.198L552.474 431.703L568.614 438.164Z" fill="#EFEFEF"></path>
<path id="group_99" fill-rule="evenodd" clip-rule="evenodd" d="M576.159 435.567L560.326 441.907L536.642 432.548L552.519 426.208L576.159 435.567ZM572.212 435.265L553.265 427.748L540.589 432.82L559.493 440.337L572.212 435.265Z" fill="#766657"></path>
<path id="group_100" d="M560.326 441.907L560.282 452.836L536.598 443.477L536.642 432.548L560.326 441.907Z" fill="#E9D1D1"></path>
<path id="group_101" d="M560.326 441.907L560.282 452.836L536.598 443.477L536.642 432.548L560.326 441.907Z" fill="#4C3B31"></path>
</g>
<g class="drawer none">
<path id="group_102" d="M539.447 454.104L539.403 489.85L536.289 488.612V451.357L539.447 454.104Z" fill="#A09D91"></path>
<path id="group_103" d="M630.062 530.668L538.615 494.288L532.782 493.745L579.975 474.755L596.334 481.186L595.94 481.367L674.843 512.735L630.062 530.668Z" fill="#B7AAA2"></path>
<path id="group_104" d="M626.772 524.63L536.289 488.612L536.333 450.784L626.815 486.861L626.772 524.63Z" fill="#F2E6D8"></path>
<path id="group_105" d="M626.772 488.824L539.184 453.863L536.289 451.357L626.815 487.465L626.772 488.824Z" fill="#A09D91"></path>
<path id="group_106" d="M626.815 501.232L539.184 466.271L536.289 463.766L626.815 499.873V501.232Z" fill="#A09D91"></path>
<path id="group_107" d="M626.816 515.18L538.571 479.978L535.676 477.442L626.816 513.821V515.18Z" fill="#A09D91"></path>
<path id="group_108" d="M589.403 482.121C589.287 482.121 589.17 482.101 589.053 482.061L574.798 476.355L574.491 474.574L587.956 479.947L586.333 477.381L587.737 477.019L590.105 481.427C590.237 481.638 590.149 481.88 589.886 482C589.754 482.091 589.579 482.121 589.403 482.121V482.121Z" fill="#A09D91"></path>
<path id="group_109" d="M576.948 471.102V473.185L575.106 473.909V471.826L576.948 471.102Z" fill="#BAADA4"></path>
<path id="group_110" d="M584.009 476.476V478.559L573 474.181C572.824 474.121 572.693 474 572.693 473.909L572.737 471.826C572.737 471.917 572.824 472.007 573 472.098L584.009 476.476Z" fill="#4C3B31"></path>
<path id="group_111" d="M587.956 475.449L585.412 476.476C585.017 476.627 584.403 476.627 584.009 476.476L573 472.098C572.605 471.947 572.605 471.706 573 471.555L575.544 470.528L576.947 471.102L575.105 471.826L584.71 475.63L586.509 474.906L587.956 475.449Z" fill="#766657"></path>
<path id="group_112" d="M587.956 475.449L587.912 477.563L585.412 478.559C585.354 478.579 585.281 478.599 585.193 478.619C585.164 478.639 585.149 478.649 585.149 478.649C585.12 478.649 585.076 478.649 585.018 478.649C584.988 478.67 584.959 478.68 584.93 478.68C584.901 478.68 584.886 478.68 584.886 478.68C584.857 478.68 584.813 478.68 584.754 478.68C584.754 478.68 584.74 478.68 584.711 478.68C584.681 478.68 584.667 478.68 584.667 478.68C584.637 478.68 584.608 478.68 584.579 478.68C584.55 478.68 584.535 478.68 584.535 478.68C584.535 478.68 584.52 478.68 584.491 478.68C584.433 478.68 584.389 478.67 584.36 478.649C584.33 478.649 584.316 478.649 584.316 478.649C584.287 478.649 584.272 478.649 584.272 478.649C584.184 478.629 584.097 478.599 584.009 478.559V476.476C584.097 476.516 584.199 476.546 584.316 476.566C584.345 476.566 584.36 476.566 584.36 476.566C584.418 476.566 584.477 476.566 584.535 476.566C584.594 476.586 584.652 476.596 584.711 476.596C584.769 476.596 584.828 476.586 584.886 476.566C584.915 476.566 584.93 476.566 584.93 476.566C584.959 476.566 585.003 476.566 585.061 476.566C585.091 476.566 585.12 476.556 585.149 476.536C585.178 476.536 585.208 476.536 585.237 476.536C585.295 476.516 585.354 476.496 585.412 476.476L587.956 475.449Z" fill="#403229"></path>
<path id="group_113" d="M589.668 494.952C589.551 494.952 589.434 494.932 589.317 494.892L575.063 489.186L574.756 487.405L588.221 492.779L586.598 490.212L588.001 489.85L590.37 494.258C590.501 494.469 590.414 494.711 590.151 494.832C590.019 494.922 589.844 494.952 589.668 494.952V494.952Z" fill="#A09D91"></path>
<path id="group_114" d="M577.211 483.933V486.016L575.369 486.741V484.657L577.211 483.933Z" fill="#BAADA4"></path>
<path id="group_115" d="M584.273 489.307V491.39L573.264 487.012C573.089 486.952 572.957 486.831 572.957 486.74L573.001 484.657C573.001 484.748 573.089 484.869 573.264 484.929L584.273 489.307Z" fill="#4C3B31"></path>
<path id="group_116" d="M588.219 488.28L585.675 489.307C585.28 489.458 584.666 489.458 584.271 489.307L573.263 484.929C572.868 484.778 572.868 484.537 573.263 484.386L575.807 483.359L577.21 483.933L575.368 484.657L584.973 488.461L586.815 487.737L588.219 488.28Z" fill="#766657"></path>
<path id="group_117" d="M588.219 488.28V490.394L585.676 491.39C585.617 491.41 585.559 491.43 585.5 491.45C585.471 491.45 585.456 491.45 585.456 491.45C585.427 491.47 585.412 491.48 585.412 491.48C585.383 491.48 585.354 491.48 585.325 491.48C585.295 491.48 585.281 491.491 585.281 491.511C585.252 491.511 585.222 491.511 585.193 491.511C585.193 491.511 585.178 491.511 585.149 491.511C585.12 491.511 585.076 491.511 585.018 491.511C585.018 491.511 585.003 491.511 584.974 491.511C584.944 491.511 584.93 491.511 584.93 491.511C584.901 491.511 584.871 491.511 584.842 491.511C584.813 491.511 584.798 491.511 584.798 491.511C584.798 491.511 584.784 491.511 584.754 491.511C584.696 491.511 584.652 491.501 584.623 491.48C584.594 491.48 584.579 491.48 584.579 491.48C584.579 491.48 584.564 491.48 584.535 491.48C584.447 491.46 584.36 491.43 584.272 491.39V489.307C584.36 489.347 584.462 489.377 584.579 489.397C584.608 489.397 584.623 489.397 584.623 489.397C584.681 489.397 584.74 489.397 584.798 489.397C584.798 489.417 584.798 489.428 584.798 489.428C584.857 489.428 584.915 489.428 584.974 489.428C584.974 489.428 584.988 489.428 585.018 489.428C585.076 489.428 585.12 489.428 585.149 489.428C585.178 489.428 585.193 489.417 585.193 489.397C585.222 489.397 585.266 489.397 585.325 489.397C585.354 489.397 585.383 489.387 585.412 489.367C585.442 489.367 585.471 489.367 585.5 489.367C585.559 489.347 585.617 489.327 585.676 489.307L588.219 488.28Z" fill="#403229"></path>
<path id="group_118" d="M589.36 507.813C589.243 507.813 589.126 507.793 589.009 507.753L574.755 502.047L574.448 500.266L587.913 505.64L586.29 503.073L587.693 502.711L590.062 507.119C590.193 507.33 590.106 507.572 589.843 507.693C589.711 507.783 589.535 507.813 589.36 507.813V507.813Z" fill="#A09D91"></path>
<path id="group_119" d="M576.904 496.794V498.877L575.062 499.602V497.518L576.904 496.794Z" fill="#BAADA4"></path>
<path id="group_120" d="M583.965 502.168V504.251L572.956 499.873C572.781 499.813 572.649 499.692 572.649 499.602L572.693 497.518C572.693 497.609 572.781 497.7 572.956 497.79L583.965 502.168Z" fill="#4C3B31"></path>
<path id="group_121" d="M587.912 501.141L585.368 502.168C584.974 502.319 584.36 502.319 583.965 502.168L572.956 497.79C572.561 497.639 572.561 497.398 572.956 497.217L575.5 496.22L576.904 496.794L575.061 497.519L584.667 501.323L586.509 500.598L587.912 501.141Z" fill="#766657"></path>
<path id="group_122" d="M587.912 501.141L587.868 503.255L585.368 504.251C585.31 504.271 585.237 504.291 585.149 504.311C585.12 504.331 585.105 504.341 585.105 504.341C585.076 504.341 585.032 504.341 584.974 504.341C584.944 504.361 584.915 504.372 584.886 504.372C584.857 504.372 584.842 504.372 584.842 504.372C584.813 504.372 584.769 504.372 584.71 504.372C584.71 504.372 584.696 504.372 584.667 504.372C584.637 504.372 584.623 504.372 584.623 504.372C584.593 504.372 584.564 504.372 584.535 504.372C584.506 504.372 584.491 504.372 584.491 504.372C584.491 504.372 584.477 504.372 584.447 504.372C584.389 504.351 584.345 504.341 584.316 504.341C584.286 504.341 584.272 504.341 584.272 504.341C584.243 504.341 584.228 504.341 584.228 504.341C584.14 504.321 584.053 504.291 583.965 504.251V502.168C584.053 502.208 584.155 502.238 584.272 502.258C584.301 502.258 584.316 502.258 584.316 502.258C584.374 502.258 584.433 502.258 584.491 502.258C584.491 502.258 584.491 502.268 584.491 502.288C584.55 502.288 584.608 502.288 584.667 502.288C584.725 502.288 584.784 502.288 584.842 502.288C584.871 502.268 584.886 502.258 584.886 502.258C584.915 502.258 584.959 502.258 585.017 502.258C585.047 502.258 585.076 502.248 585.105 502.228C585.134 502.228 585.164 502.228 585.193 502.228C585.251 502.208 585.31 502.188 585.368 502.168L587.912 501.141Z" fill="#403229"></path>
</g>
</g>
<g class="wallDeskGroup">
<g class="wallDesk none">
<path id="group_123" d="M704.096 408.034L713 452.293L585.456 402.841L576.509 357.585L704.096 408.034Z" fill="#55798F"></path>
<path id="group_124" d="M704.096 408.185L704.052 410.54L677.079 421.348L677.123 418.993L704.096 408.185Z" fill="#AC8D5F"></path>
<path id="group_125" d="M677.122 418.993L677.078 421.348L551.157 371.322V368.967L677.122 418.993Z" fill="#CFB698"></path>
<path id="group_126" d="M704.096 408.184L677.122 418.993L551.157 368.967L578.131 358.159L704.096 408.184Z" fill="#FCDEA8"></path>
</g>
<g class="book none">
<path id="group_127" d="M627.649 389.074L609.666 386.508L605.5 384.817L625.719 376.786L641.772 383.489L627.649 389.074Z" fill="#A77D4B"></path>
<path id="group_128" d="M632.78 380.379L632.736 365.827L641.684 371.805L641.772 383.489L632.78 380.379Z" fill="#5C839B"></path>
<path id="group_129" d="M590.5 380.288L585.938 378.477L585.85 356.74L590.412 358.551L590.5 380.288Z" fill="#FAF7E8"></path>
<path id="group_130" d="M590.412 358.551L585.85 356.74L604.14 349.464L608.657 351.275L590.412 358.551Z" fill="#FFFBF8"></path>
<path id="group_131" d="M608.657 351.275L608.745 373.043L590.5 380.288L590.412 358.551L608.657 351.275Z" fill="#DCAA8D"></path>
<path id="group_132" d="M597.079 383.187L592.561 381.375L592.473 359.608L596.991 361.419L597.079 383.187Z" fill="#FAF7E8"></path>
<path id="group_133" d="M596.991 361.419L592.473 359.608L610.763 352.332L615.28 354.143L596.991 361.419Z" fill="#FFFBF8"></path>
<path id="group_134" d="M615.279 354.143L615.367 375.911L597.077 383.187L596.99 361.419L615.279 354.143Z" fill="#DCAA8D"></path>
<path id="group_135" d="M604.272 384.938L599.754 383.126L599.666 361.359L604.184 363.17L604.272 384.938Z" fill="#FAF7E8"></path>
<path id="group_136" d="M604.184 363.17L599.666 361.359L617.956 354.113L622.473 355.924L604.184 363.17Z" fill="#FFFBF8"></path>
<path id="group_137" d="M622.472 355.925L622.56 377.662L604.271 384.938L604.183 363.171L622.472 355.925Z" fill="#DCAA8D"></path>
<path id="group_138" d="M610.806 386.206L606.727 384.575L606.639 364.982L610.718 366.612L610.806 386.206Z" fill="#FAF7E8"></path>
<path id="group_139" d="M610.718 366.612L606.639 364.982L623.087 358.43L627.166 360.061L610.718 366.612Z" fill="#FFFBF8"></path>
<path id="group_140" d="M627.165 360.061L627.253 379.654L610.806 386.206L610.718 366.612L627.165 360.061Z" fill="#DCAA8D"></path>
<path id="group_141" d="M620.982 386.085L617.736 384.757L617.648 369.088L620.894 370.416L620.982 386.085Z" fill="#FAF7E8"></path>
<path id="group_142" d="M620.894 370.416L617.648 369.088L630.806 363.865L634.096 365.163L620.894 370.416Z" fill="#FFFBF8"></path>
<path id="group_143" d="M634.096 365.163L634.14 380.832L620.982 386.085L620.894 370.416L634.096 365.163Z" fill="#DCAA8D"></path>
</g>
</g>
<g class="waterPurifier none">
<path id="group_144" d="M731.416 486.75L731.226 534.012L703.043 545.553L703.233 498.292L731.416 486.75Z" fill="#BBAEA5"></path>
<path id="group_145" d="M703.233 498.292L703.043 545.553L676 531.332L676.19 484.071L703.233 498.292Z" fill="#F2E6D8"></path>
<path id="group_146" d="M704.372 472.529L731.416 486.75L703.233 498.292L676.19 484.071L704.372 472.529Z" fill="white"></path>
<path id="group_147" d="M716.489 491.592C711.703 493.115 705.132 493.115 701.182 491.592C696.89 489.887 696.814 486.842 701.676 484.74C707.031 482.396 715.501 482.396 719.603 484.74C723.364 486.842 721.654 489.887 716.489 491.592Z" fill="#CCBEBB"></path>
<path id="group_148" d="M716.945 483.462C716.945 490.648 716.907 478.315 716.869 485.502C716.869 487.055 715.616 488.608 713.071 489.796C707.981 492.171 699.663 492.171 694.536 489.796C691.953 488.578 690.661 487.024 690.661 485.441L690.737 483.401C690.737 484.954 692.029 486.537 694.611 487.725C699.739 490.1 708.057 490.1 713.147 487.725C715.692 486.537 716.945 485.015 716.945 483.462V483.462Z" fill="#BBAEA5"></path>
<path id="group_149" d="M713.147 487.725C708.057 490.1 699.739 490.1 694.611 487.725C689.484 485.35 689.446 481.482 694.536 479.107C699.663 476.732 707.943 476.732 713.071 479.107C718.236 481.482 718.236 485.35 713.147 487.725Z" fill="#B5E1E2"></path>
<path id="group_150" d="M720.344 547.653L703 545.5L731 533.5L741.5 538L720.344 547.653Z" fill="#2C4752"></path>
<path id="group_151" d="M741.5 538L731 533.5V487L739.508 505.321L741.5 538Z" fill="#4D6E87"></path>
<path id="group_152" d="M720.857 455.659C720.832 464.632 720.807 473.605 720.781 482.578C720.743 484.527 719.186 486.446 715.995 487.938C709.614 490.892 699.245 490.892 692.826 487.938C689.598 486.415 687.965 484.466 687.965 482.518L688.079 455.567C688.079 457.547 689.674 459.496 692.902 460.988C699.321 463.972 709.728 463.972 716.109 460.988C719.262 459.526 720.857 457.577 720.857 455.659Z" fill="url(#paint2_linear_18_1105)"></path>
<path id="group_153" fill-rule="evenodd" clip-rule="evenodd" d="M716.109 460.988C709.728 463.972 699.321 463.972 692.902 460.988C686.483 458.034 686.445 453.192 692.826 450.238C699.207 447.254 709.614 447.254 716.033 450.238C722.452 453.192 722.49 458.034 716.109 460.988ZM712.273 452.157C708.171 450.269 701.524 450.269 697.46 452.157C693.358 454.075 693.396 457.151 697.498 459.069C701.6 460.957 708.247 460.957 712.311 459.069C716.413 457.151 716.375 454.075 712.273 452.157Z" fill="#B5E1E2"></path>
<path id="group_154" d="M712.311 459.069C708.247 460.957 701.6 460.957 697.498 459.069C693.396 457.151 693.358 454.075 697.46 452.157C701.524 450.269 708.171 450.269 712.273 452.157C716.375 454.075 716.413 457.151 712.311 459.069Z" fill="url(#paint3_linear_18_1105)"></path>
<path id="group_155" d="M712.311 461.688C708.247 463.607 701.6 463.607 697.498 461.688C693.396 459.8 693.358 456.725 697.46 454.806C701.524 452.918 708.171 452.918 712.273 454.806C716.375 456.725 716.413 459.8 712.311 461.688Z" fill="#B5E1E2"></path>
<path id="group_156" d="M679.077 509.528L679.266 496.008L682.799 498.139L682.609 511.66" fill="#C8AFA7"></path>
<path id="group_157" d="M700.689 499.022L700.537 508.249L681.698 498.109L681.85 489.186L699.739 496.83L700.689 499.022Z" fill="#C8AFA7"></path>
<path id="group_158" d="M699.739 496.83L699.587 505.722L698.486 506.24L698.638 497.317L699.739 496.83Z" fill="#BBAEA5"></path>
<path id="group_159" d="M698.637 497.317L698.485 506.24L679 495.703L679.19 486.781L698.637 497.317Z" fill="#F2E6D8"></path>
<path id="group_160" d="M699.929 521.1L680.444 510.564Z" fill="#C8AFA7"></path>
<path id="group_161" d="M699.738 496.83L698.637 497.317L679.19 486.781L680.254 486.293L699.738 496.83Z" fill="white"></path>
<path id="group_162" d="M699.739 521.283L699.587 544.366L698.486 544.883L698.638 521.77L699.739 521.283Z" fill="#BBAEA5"></path>
<path id="group_163" d="M698.637 521.77L698.485 544.883L679 534.347L679.19 511.234L698.637 521.77Z" fill="#F2E6D8"></path>
<path id="group_164" d="M699.738 521.283L698.637 521.77L679.19 511.234L680.254 510.716L699.738 521.283Z" fill="white"></path>
<path id="group_165" d="M685.8 510.777V510.99C685.8 511.011 685.787 511.031 685.762 511.051C685.762 511.071 685.762 511.082 685.762 511.082C685.762 511.102 685.762 511.112 685.762 511.112C685.736 511.132 685.724 511.153 685.724 511.173C685.724 511.193 685.711 511.203 685.686 511.203C685.686 511.203 685.686 511.214 685.686 511.234C685.686 511.234 685.673 511.234 685.648 511.234C685.648 511.254 685.622 511.285 685.572 511.325C685.546 511.346 685.521 511.366 685.496 511.386C685.47 511.386 685.445 511.396 685.42 511.417C685.42 511.417 685.407 511.417 685.382 511.417C685.306 511.457 685.23 511.488 685.154 511.508C685.129 511.508 685.116 511.508 685.116 511.508C685.091 511.528 685.065 511.538 685.04 511.538C684.989 511.538 684.939 511.549 684.888 511.569C684.888 511.569 684.875 511.569 684.85 511.569C684.825 511.569 684.787 511.569 684.736 511.569C684.736 511.589 684.723 511.599 684.698 511.599C684.647 511.599 684.597 511.599 684.546 511.599C684.521 511.599 684.496 511.599 684.47 511.599C684.47 511.599 684.458 511.599 684.432 511.599C684.432 511.599 684.42 511.599 684.394 511.599C684.369 511.599 684.331 511.599 684.28 511.599C684.255 511.599 684.242 511.599 684.242 511.599C684.217 511.599 684.204 511.599 684.204 511.599C684.179 511.579 684.154 511.569 684.128 511.569C684.103 511.569 684.065 511.569 684.014 511.569C684.014 511.569 684.002 511.569 683.976 511.569C683.976 511.549 683.964 511.538 683.938 511.538C683.913 511.538 683.888 511.538 683.862 511.538C683.837 511.518 683.799 511.508 683.749 511.508C683.749 511.508 683.736 511.508 683.711 511.508C683.711 511.488 683.711 511.477 683.711 511.477C683.635 511.457 683.571 511.437 683.521 511.417C683.255 511.295 683.141 511.143 683.141 510.99L682.267 507.884C682.267 508.158 682.457 508.402 682.913 508.615C683.014 508.656 683.128 508.696 683.255 508.737C683.255 508.737 683.267 508.747 683.293 508.767C683.394 508.788 683.495 508.808 683.597 508.828C683.622 508.828 683.647 508.828 683.673 508.828C683.799 508.848 683.913 508.869 684.014 508.889C684.04 508.889 684.065 508.889 684.09 508.889C684.217 508.909 684.331 508.919 684.432 508.919C684.458 508.919 684.483 508.919 684.508 508.919C684.635 508.919 684.761 508.909 684.888 508.889C684.913 508.889 684.926 508.889 684.926 508.889C685.027 508.869 685.129 508.859 685.23 508.859C685.306 508.838 685.369 508.818 685.42 508.798C685.496 508.798 685.559 508.788 685.61 508.767C685.762 508.727 685.901 508.676 686.027 508.615C686.078 508.595 686.129 508.564 686.179 508.524C686.23 508.503 686.281 508.473 686.331 508.432C686.407 508.392 686.471 508.341 686.521 508.28C686.521 508.28 686.521 508.27 686.521 508.25C686.572 508.209 686.61 508.158 686.635 508.097C686.635 508.097 686.635 508.087 686.635 508.067C686.66 508.006 686.673 507.945 686.673 507.884L685.8 510.777Z" fill="url(#paint4_linear_18_1105)"></path>
<path id="group_166" d="M686.028 507.153C686.901 507.549 686.901 508.219 686.028 508.615C685.192 509.011 683.787 509.011 682.913 508.615C682.04 508.219 682.04 507.549 682.913 507.153C683.749 506.757 685.154 506.757 686.028 507.153Z" fill="#B7AAA2"></path>
<path id="group_167" d="M681.773 506.453L686.559 504.23C686.584 504.209 686.622 504.189 686.673 504.169L681.887 506.422C681.837 506.422 681.799 506.432 681.773 506.453V506.453Z" fill="#5F5854"></path>
<path id="group_168" d="M689.218 506.483C689.218 506.504 689.218 506.524 689.218 506.544C689.218 506.564 689.218 506.585 689.218 506.605C689.218 506.625 689.218 506.646 689.218 506.666C689.218 506.686 689.218 506.707 689.218 506.727C689.192 506.727 689.18 506.737 689.18 506.757C689.18 506.778 689.18 506.788 689.18 506.788C689.18 506.808 689.18 506.828 689.18 506.849C689.154 506.869 689.142 506.889 689.142 506.91C689.142 506.93 689.129 506.95 689.104 506.97C689.104 506.97 689.104 506.981 689.104 507.001C689.078 507.021 689.053 507.042 689.028 507.062C689.028 507.082 689.015 507.102 688.99 507.123C688.964 507.143 688.952 507.163 688.952 507.184C688.901 507.224 688.838 507.255 688.762 507.275L683.976 509.528C684.052 509.488 684.115 509.447 684.166 509.407C684.166 509.386 684.179 509.376 684.204 509.376C684.229 509.315 684.267 509.265 684.318 509.224C684.343 509.143 684.369 509.062 684.394 508.98C684.419 508.899 684.432 508.808 684.432 508.706C684.432 508.605 684.419 508.503 684.394 508.402C684.369 508.199 684.293 507.996 684.166 507.793C684.115 507.691 684.052 507.59 683.976 507.488C683.824 507.285 683.66 507.102 683.482 506.94C683.381 506.859 683.28 506.788 683.179 506.727C683.077 506.646 682.976 506.585 682.875 506.544C682.773 506.504 682.672 506.463 682.571 506.422C682.47 506.402 682.368 506.382 682.267 506.361C682.166 506.361 682.077 506.372 682.001 506.392C681.9 506.412 681.824 506.432 681.773 506.453L686.559 504.23C686.584 504.209 686.61 504.199 686.635 504.199L686.673 504.169C686.698 504.169 686.736 504.169 686.787 504.169C686.787 504.169 686.787 504.159 686.787 504.138C686.812 504.138 686.838 504.138 686.863 504.138C686.888 504.138 686.913 504.138 686.939 504.138C686.964 504.138 686.989 504.138 687.015 504.138C687.04 504.138 687.053 504.138 687.053 504.138C687.078 504.138 687.091 504.138 687.091 504.138C687.116 504.138 687.141 504.149 687.167 504.169C687.192 504.169 687.217 504.169 687.243 504.169C687.268 504.169 687.281 504.169 687.281 504.169C687.306 504.189 687.331 504.199 687.357 504.199C687.382 504.199 687.407 504.209 687.433 504.23C687.458 504.23 687.471 504.23 687.471 504.23C687.496 504.25 687.521 504.26 687.546 504.26C687.572 504.281 687.597 504.291 687.623 504.291C687.623 504.291 687.635 504.301 687.66 504.321C687.686 504.321 687.711 504.331 687.736 504.352C687.762 504.372 687.787 504.382 687.812 504.382C687.838 504.402 687.863 504.413 687.888 504.413C687.914 504.433 687.939 504.453 687.964 504.473C687.964 504.473 687.977 504.484 688.002 504.504C688.028 504.524 688.053 504.544 688.078 504.565C688.104 504.585 688.129 504.605 688.154 504.626C688.18 504.626 688.205 504.636 688.23 504.656C688.23 504.676 688.243 504.697 688.268 504.717C688.268 504.717 688.281 504.717 688.306 504.717C688.306 504.737 688.319 504.758 688.344 504.778C688.369 504.798 688.395 504.819 688.42 504.839C688.445 504.859 688.458 504.879 688.458 504.9C688.483 504.92 688.509 504.94 688.534 504.961C688.585 505.001 688.623 505.042 688.648 505.082C688.673 505.123 688.711 505.174 688.762 505.235C688.762 505.235 688.762 505.245 688.762 505.265C688.787 505.285 688.813 505.306 688.838 505.326C688.863 505.367 688.876 505.397 688.876 505.417C688.901 505.438 688.914 505.458 688.914 505.478C688.939 505.499 688.952 505.519 688.952 505.539C688.977 505.56 688.99 505.58 688.99 505.6C688.99 505.62 689.003 505.641 689.028 505.661C689.028 505.681 689.04 505.702 689.066 505.722C689.066 505.742 689.066 505.763 689.066 505.783C689.091 505.803 689.104 505.823 689.104 505.844C689.104 505.844 689.104 505.854 689.104 505.874C689.104 505.894 689.116 505.905 689.142 505.905C689.142 505.945 689.142 505.976 689.142 505.996C689.142 506.016 689.154 506.037 689.18 506.057C689.18 506.077 689.18 506.098 689.18 506.118C689.18 506.138 689.18 506.158 689.18 506.179C689.205 506.199 689.218 506.219 689.218 506.24C689.218 506.26 689.218 506.28 689.218 506.301C689.218 506.321 689.218 506.341 689.218 506.361C689.218 506.382 689.218 506.402 689.218 506.422C689.218 506.443 689.218 506.463 689.218 506.483V506.483Z" fill="#C8AFA7"></path>
<path id="group_169" d="M682.875 506.544C683.748 506.94 684.432 507.914 684.432 508.706C684.432 509.528 683.71 509.833 682.875 509.437C682.001 509.041 681.28 508.067 681.318 507.275C681.318 506.453 682.001 506.148 682.875 506.544Z" fill="#F2E6D8"></path>
<path id="group_170" d="M686.218 504.321V505.813C686.218 505.854 686.218 505.884 686.218 505.905C686.192 505.925 686.18 505.955 686.18 505.996C686.18 505.996 686.18 506.006 686.18 506.026C686.155 506.047 686.129 506.077 686.104 506.118C686.104 506.138 686.091 506.158 686.066 506.179C686.066 506.179 686.053 506.189 686.028 506.209C685.977 506.25 685.927 506.29 685.876 506.331C685.876 506.351 685.876 506.361 685.876 506.361C685.825 506.382 685.775 506.412 685.724 506.453C685.673 506.473 685.635 506.493 685.61 506.514C685.585 506.514 685.572 506.514 685.572 506.514C685.445 506.575 685.306 506.625 685.154 506.666C685.129 506.686 685.104 506.696 685.078 506.696C685.053 506.696 685.015 506.707 684.964 506.727C684.888 506.727 684.812 506.737 684.737 506.757C684.711 506.757 684.686 506.767 684.661 506.788C684.61 506.788 684.547 506.788 684.471 506.788C684.445 506.788 684.433 506.788 684.433 506.788C684.407 506.808 684.395 506.818 684.395 506.818C684.319 506.818 684.23 506.818 684.129 506.818C684.103 506.818 684.078 506.818 684.053 506.818C684.027 506.818 684.002 506.818 683.977 506.818C683.952 506.818 683.926 506.818 683.901 506.818C683.85 506.818 683.787 506.818 683.711 506.818C683.686 506.818 683.66 506.818 683.635 506.818C683.61 506.798 683.584 506.788 683.559 506.788C683.534 506.788 683.508 506.788 683.483 506.788C683.407 506.788 683.331 506.778 683.255 506.757C683.255 506.757 683.243 506.757 683.217 506.757C683.192 506.757 683.167 506.747 683.141 506.727C683.116 506.727 683.078 506.727 683.027 506.727C682.977 506.707 682.913 506.686 682.837 506.666C682.812 506.666 682.799 506.656 682.799 506.636C682.774 506.636 682.761 506.636 682.761 506.636C682.66 506.595 682.559 506.554 682.458 506.514C682.002 506.331 681.812 506.057 681.812 505.783V504.321C681.812 504.565 682.002 504.839 682.458 505.052C682.559 505.093 682.673 505.133 682.799 505.174C682.799 505.174 682.812 505.174 682.837 505.174C682.939 505.214 683.04 505.245 683.141 505.265C683.167 505.265 683.192 505.265 683.217 505.265C683.344 505.285 683.458 505.306 683.559 505.326C683.584 505.326 683.61 505.326 683.635 505.326C683.762 505.326 683.876 505.326 683.977 505.326C684.002 505.326 684.027 505.326 684.053 505.326C684.179 505.326 684.306 505.326 684.433 505.326C684.458 505.326 684.471 505.326 684.471 505.326C684.572 505.306 684.673 505.285 684.774 505.265C684.85 505.265 684.914 505.255 684.964 505.235C685.04 505.214 685.104 505.204 685.154 505.204C685.306 505.164 685.445 505.113 685.572 505.052C685.623 505.011 685.673 504.981 685.724 504.961C685.775 504.94 685.825 504.91 685.876 504.869C685.952 504.829 686.015 504.778 686.066 504.717C686.066 504.697 686.066 504.687 686.066 504.687C686.117 504.626 686.155 504.575 686.18 504.534C686.18 504.514 686.18 504.504 686.18 504.504C686.205 504.443 686.218 504.382 686.218 504.321V504.321Z" fill="url(#paint5_linear_18_1105)"></path>
<path id="group_171" d="M685.571 503.59C686.445 503.986 686.445 504.626 685.571 505.052C684.736 505.448 683.33 505.448 682.457 505.052C681.583 504.626 681.583 503.986 682.457 503.59C683.292 503.194 684.698 503.194 685.571 503.59Z" fill="#F36B53"></path>
<path id="group_172" d="M684.432 504.808L682.837 504.047V502.159L684.432 502.89V504.808Z" fill="#F35748"></path>
<path id="group_173" d="M682.761 503.682L681.166 502.92V502.037L682.761 502.768V503.682Z" fill="#F35748"></path>
<path id="group_174" d="M682.761 502.768L681.166 502.037L683.786 500.819L685.382 501.55L682.761 502.768Z" fill="#F36B53"></path>
<path id="group_175" d="M685.382 501.55L685.42 504.352L684.433 504.808V502.89L682.761 503.682V502.768L685.382 501.55Z" fill="#9E1A25"></path>
<path id="group_176" d="M693.434 514.462V514.705C693.434 514.726 693.434 514.746 693.434 514.766C693.434 514.766 693.434 514.776 693.434 514.797C693.434 514.797 693.434 514.807 693.434 514.827C693.409 514.847 693.396 514.868 693.396 514.888C693.371 514.888 693.358 514.898 693.358 514.918C693.358 514.918 693.345 514.929 693.32 514.949C693.295 514.969 693.269 514.989 693.244 515.01C693.219 515.03 693.181 515.05 693.13 515.071C693.13 515.091 693.117 515.101 693.092 515.101C693.092 515.101 693.079 515.101 693.054 515.101C692.978 515.142 692.89 515.172 692.788 515.193C692.788 515.213 692.788 515.223 692.788 515.223C692.763 515.223 692.738 515.223 692.712 515.223C692.662 515.243 692.611 515.253 692.56 515.253C692.56 515.253 692.548 515.253 692.522 515.253C692.497 515.274 692.459 515.284 692.408 515.284C692.408 515.284 692.396 515.284 692.37 515.284C692.32 515.284 692.269 515.284 692.219 515.284C692.193 515.284 692.168 515.284 692.143 515.284C692.143 515.284 692.13 515.284 692.105 515.284C692.105 515.284 692.092 515.284 692.067 515.284C692.016 515.284 691.978 515.284 691.953 515.284C691.927 515.284 691.902 515.284 691.877 515.284C691.851 515.284 691.826 515.284 691.801 515.284C691.775 515.284 691.737 515.274 691.687 515.253C691.661 515.253 691.649 515.253 691.649 515.253C691.623 515.253 691.611 515.253 691.611 515.253C691.586 515.253 691.56 515.243 691.535 515.223C691.509 515.223 691.472 515.213 691.421 515.193C691.421 515.193 691.408 515.193 691.383 515.193C691.307 515.172 691.244 515.142 691.193 515.101C690.927 515.01 690.813 514.827 690.813 514.675L689.94 511.569C689.94 511.843 690.129 512.117 690.585 512.3C690.687 512.36 690.801 512.411 690.927 512.452C690.927 512.452 690.94 512.452 690.965 512.452C691.066 512.472 691.168 512.492 691.269 512.513C691.294 512.533 691.32 512.543 691.345 512.543C691.446 512.563 691.56 512.574 691.687 512.574C691.712 512.594 691.737 512.604 691.763 512.604C691.864 512.604 691.978 512.604 692.105 512.604C692.13 512.604 692.155 512.604 692.181 512.604C692.307 512.604 692.434 512.604 692.56 512.604C692.56 512.584 692.573 512.574 692.598 512.574C692.7 512.574 692.788 512.563 692.864 512.543C692.94 512.543 693.016 512.533 693.092 512.513C693.143 512.492 693.206 512.472 693.282 512.452C693.434 512.411 693.573 512.36 693.7 512.3C693.751 512.279 693.801 512.259 693.852 512.239C693.902 512.198 693.953 512.168 694.004 512.147C694.054 512.086 694.105 512.036 694.156 511.995C694.181 511.975 694.194 511.965 694.194 511.965C694.244 511.904 694.282 511.843 694.308 511.782C694.333 511.721 694.346 511.66 694.346 511.599L693.434 514.462Z" fill="url(#paint6_linear_18_1105)"></path>
<path id="group_177" d="M693.699 510.868C694.573 511.264 694.573 511.904 693.699 512.3C692.826 512.695 691.458 512.695 690.585 512.3C689.711 511.904 689.711 511.264 690.585 510.868C691.42 510.442 692.826 510.442 693.699 510.868Z" fill="#B7AAA2"></path>
<path id="group_178" d="M689.408 510.168L694.231 507.915C694.257 507.894 694.295 507.884 694.345 507.884L689.56 510.107C689.509 510.127 689.458 510.148 689.408 510.168Z" fill="#5F5854"></path>
<path id="group_179" d="M696.89 510.168C696.89 510.168 696.89 510.178 696.89 510.198C696.89 510.219 696.89 510.239 696.89 510.259C696.89 510.28 696.89 510.29 696.89 510.29C696.89 510.33 696.89 510.351 696.89 510.351C696.89 510.371 696.877 510.391 696.852 510.412C696.852 510.432 696.852 510.442 696.852 510.442C696.852 510.442 696.852 510.452 696.852 510.472C696.852 510.513 696.84 510.544 696.814 510.564C696.814 510.584 696.814 510.604 696.814 510.625C696.789 510.645 696.776 510.665 696.776 510.686C696.751 510.726 696.726 510.757 696.7 510.777C696.7 510.797 696.688 510.818 696.662 510.838C696.637 510.838 696.624 510.848 696.624 510.868C696.574 510.909 696.51 510.95 696.434 510.99L691.649 513.213C691.699 513.193 691.75 513.152 691.801 513.091C691.826 513.091 691.851 513.081 691.877 513.061C691.902 513.02 691.94 512.97 691.991 512.909C692.016 512.848 692.041 512.777 692.066 512.695C692.092 512.614 692.104 512.523 692.104 512.421C692.104 512.32 692.092 512.218 692.066 512.117C692.016 511.894 691.94 511.68 691.839 511.477C691.788 511.376 691.725 511.274 691.649 511.173C691.497 510.97 691.332 510.797 691.155 510.655C691.155 510.635 691.155 510.625 691.155 510.625C691.054 510.564 690.952 510.493 690.851 510.412C690.75 510.351 690.648 510.29 690.547 510.229C690.446 510.188 690.332 510.158 690.205 510.137C690.104 510.097 690.015 510.077 689.939 510.077C689.838 510.077 689.75 510.077 689.674 510.077C689.572 510.097 689.484 510.127 689.408 510.168L694.231 507.914C694.257 507.914 694.282 507.914 694.307 507.914L694.345 507.884C694.371 507.864 694.409 507.854 694.459 507.854C694.485 507.854 694.51 507.854 694.535 507.854C694.561 507.833 694.586 507.823 694.611 507.823C694.637 507.823 694.662 507.833 694.687 507.854C694.687 507.854 694.7 507.854 694.725 507.854C694.751 507.854 694.763 507.854 694.763 507.854C694.788 507.854 694.814 507.854 694.839 507.854C694.865 507.854 694.89 507.854 694.915 507.854C694.915 507.874 694.928 507.884 694.953 507.884C694.978 507.884 695.004 507.884 695.029 507.884C695.054 507.904 695.08 507.914 695.105 507.914C695.105 507.914 695.118 507.925 695.143 507.945C695.168 507.945 695.194 507.955 695.219 507.975C695.244 507.975 695.27 507.975 695.295 507.975C695.295 507.996 695.308 508.006 695.333 508.006C695.358 508.026 695.384 508.036 695.409 508.036C695.434 508.057 695.46 508.077 695.485 508.097C695.51 508.097 695.535 508.107 695.561 508.128C695.586 508.148 695.599 508.158 695.599 508.158C695.624 508.178 695.637 508.189 695.637 508.189C695.662 508.189 695.675 508.199 695.675 508.219C695.7 508.239 695.725 508.249 695.751 508.249C695.776 508.27 695.801 508.29 695.827 508.31C695.852 508.331 695.877 508.351 695.903 508.371C695.903 508.371 695.915 508.381 695.941 508.402C695.941 508.402 695.941 508.412 695.941 508.432C695.966 508.432 695.991 508.442 696.017 508.463C696.042 508.483 696.067 508.503 696.093 508.524C696.093 508.544 696.105 508.564 696.131 508.584C696.156 508.605 696.181 508.635 696.206 508.676C696.232 508.696 696.27 508.727 696.32 508.767C696.346 508.828 696.384 508.879 696.434 508.919C696.434 508.919 696.434 508.93 696.434 508.95C696.46 508.97 696.485 509.001 696.51 509.041C696.51 509.062 696.523 509.082 696.548 509.102C696.574 509.122 696.586 509.143 696.586 509.163C696.612 509.183 696.624 509.204 696.624 509.224C696.624 509.244 696.624 509.254 696.624 509.254C696.65 509.275 696.662 509.285 696.662 509.285C696.662 509.305 696.675 509.325 696.7 509.346C696.7 509.366 696.7 509.386 696.7 509.407C696.726 509.427 696.738 509.457 696.738 509.498C696.738 509.518 696.751 509.539 696.776 509.559C696.776 509.579 696.776 509.6 696.776 509.62C696.802 509.64 696.814 509.66 696.814 509.681C696.814 509.701 696.827 509.721 696.852 509.742C696.852 509.762 696.852 509.782 696.852 509.803C696.852 509.823 696.852 509.843 696.852 509.863C696.852 509.884 696.865 509.914 696.89 509.955C696.89 509.975 696.89 509.995 696.89 510.016C696.89 510.036 696.89 510.056 696.89 510.077C696.89 510.097 696.89 510.117 696.89 510.137C696.89 510.158 696.89 510.168 696.89 510.168V510.168Z" fill="#BBAEA5"></path>
<path id="group_180" d="M690.547 510.229C691.421 510.655 692.105 511.599 692.105 512.421C692.105 513.213 691.383 513.518 690.547 513.122C689.674 512.726 688.952 511.752 688.952 510.96C688.99 510.168 689.674 509.833 690.547 510.229Z" fill="#F2E6D8"></path>
<path id="group_181" d="M693.89 508.006V509.498C693.89 509.539 693.877 509.579 693.852 509.62C693.852 509.64 693.852 509.66 693.852 509.681C693.852 509.681 693.852 509.691 693.852 509.711C693.826 509.752 693.801 509.782 693.776 509.803C693.751 509.823 693.738 509.843 693.738 509.863C693.738 509.863 693.725 509.874 693.7 509.894C693.7 509.894 693.7 509.904 693.7 509.924C693.649 509.965 693.599 510.006 693.548 510.046C693.497 510.087 693.447 510.117 693.396 510.137C693.345 510.158 693.307 510.178 693.282 510.198C693.257 510.198 693.244 510.209 693.244 510.229C693.117 510.29 692.978 510.341 692.826 510.381C692.801 510.381 692.776 510.381 692.75 510.381C692.725 510.401 692.687 510.412 692.636 510.412C692.56 510.432 692.484 510.442 692.408 510.442C692.383 510.462 692.358 510.473 692.332 510.473C692.282 510.473 692.219 510.483 692.143 510.503C692.117 510.503 692.092 510.503 692.067 510.503C691.991 510.503 691.902 510.503 691.801 510.503C691.775 510.503 691.75 510.503 691.725 510.503C691.699 510.503 691.674 510.503 691.649 510.503C691.623 510.503 691.598 510.503 691.573 510.503C691.497 510.503 691.434 510.503 691.383 510.503C691.358 510.503 691.332 510.503 691.307 510.503C691.282 510.503 691.256 510.503 691.231 510.503C691.206 510.503 691.18 510.503 691.155 510.503C691.079 510.483 691.003 510.473 690.927 510.473C690.902 510.452 690.889 510.442 690.889 510.442C690.864 510.442 690.839 510.442 690.813 510.442C690.788 510.422 690.75 510.412 690.699 510.412C690.623 510.391 690.56 510.371 690.509 510.351C690.484 510.351 690.459 510.351 690.433 510.351C690.332 510.31 690.231 510.269 690.129 510.229C689.674 510.016 689.446 509.742 689.446 509.498L689.484 508.006C689.484 508.28 689.674 508.524 690.129 508.737C690.231 508.777 690.345 508.818 690.471 508.859C690.471 508.859 690.484 508.869 690.509 508.889C690.611 508.909 690.712 508.93 690.813 508.95C690.839 508.95 690.864 508.96 690.889 508.98C690.99 509.001 691.104 509.011 691.231 509.011C691.256 509.011 691.282 509.011 691.307 509.011C691.408 509.031 691.522 509.041 691.649 509.041C691.674 509.041 691.699 509.041 691.725 509.041C691.851 509.041 691.978 509.031 692.105 509.011C692.105 509.011 692.117 509.011 692.143 509.011C692.244 509.011 692.332 509.001 692.408 508.98C692.484 508.96 692.56 508.94 692.636 508.919C692.687 508.919 692.75 508.909 692.826 508.889C692.978 508.848 693.117 508.798 693.244 508.737C693.295 508.716 693.345 508.686 693.396 508.645C693.447 508.625 693.497 508.595 693.548 508.554C693.599 508.513 693.649 508.463 693.7 508.402C693.725 508.402 693.738 508.392 693.738 508.371C693.788 508.331 693.826 508.28 693.852 508.219C693.852 508.219 693.852 508.209 693.852 508.189C693.877 508.128 693.89 508.067 693.89 508.006V508.006Z" fill="url(#paint7_linear_18_1105)"></path>
<path id="group_182" d="M693.244 507.275C694.118 507.671 694.118 508.341 693.244 508.737C692.371 509.132 691.003 509.132 690.13 508.737C689.256 508.341 689.256 507.671 690.13 507.275C690.965 506.879 692.371 506.879 693.244 507.275Z" fill="#B5E1E2"></path>
<path id="group_183" d="M692.105 508.493L690.509 507.762V505.844L692.105 506.605V508.493Z" fill="url(#paint8_linear_18_1105)"></path>
<path id="group_184" d="M690.433 507.366L688.837 506.636V505.722L690.433 506.483V507.366Z" fill="url(#paint9_linear_18_1105)"></path>
<path id="group_185" d="M690.433 506.483L688.837 505.722L691.458 504.504L693.053 505.265L690.433 506.483Z" fill="#B5E1E2"></path>
<path id="group_186" d="M693.054 505.265V508.036L692.105 508.493V506.605L690.433 507.366V506.483L693.054 505.265Z" fill="url(#paint10_linear_18_1105)"></path>
</g>
<g class="deskGroup">
<g class="desk none">
<path id="group_187" d="M344.5 486.59L412.5 513.59L281.5 565.09L218 541.59L344.5 486.59Z" fill="#435A69"></path>
<path id="group_188" d="M226.865 525.389L226.762 539.861C226.762 540.421 226.25 540.91 225.122 541.329C223.072 542.238 219.586 542.238 217.433 541.329C216.305 540.91 215.792 540.351 215.792 539.791L215.895 525.389C215.895 524.83 216.407 524.271 217.433 523.851C219.586 523.012 223.072 523.012 225.225 523.851C226.352 524.341 226.865 524.9 226.762 525.529C226.831 525.482 226.865 525.436 226.865 525.389V525.389Z" fill="black"></path>
<path id="group_189" d="M284.895 548.531V563.003C284.895 563.492 284.28 564.051 283.255 564.471C281.102 565.31 277.616 565.31 275.463 564.471C274.437 564.051 273.925 563.492 273.925 562.933V548.531C273.925 547.971 274.437 547.412 275.565 546.993C277.718 546.154 281.102 546.154 283.255 546.993C284.485 547.482 284.998 548.041 284.895 548.67C284.895 548.624 284.895 548.577 284.895 548.531V548.531Z" fill="black"></path>
<path id="group_190" d="M315.243 532.381C315.141 531.751 315.653 531.192 316.781 530.703C318.934 529.864 322.42 529.864 324.573 530.703C325.598 531.122 326.111 531.682 326.111 532.241L326.213 546.713C326.213 547.272 325.701 547.831 324.573 548.251C322.42 549.09 318.934 549.09 316.883 548.251C315.756 547.831 315.243 547.272 315.243 546.713L315.141 532.241C315.209 532.287 315.243 532.334 315.243 532.381V532.381Z" fill="black"></path>
<path id="group_191" d="M278.744 509.938V562.094L213.126 536.226V484.07L278.744 509.938Z" fill="#6F7178"></path>
<path id="group_192" d="M262.647 464.565L328.366 490.433L278.744 509.938L213.126 484.071L262.647 464.565Z" fill="#E4E9F8"></path>
<path id="group_193" d="M328.366 490.433V542.588L278.743 562.094V509.938L328.366 490.433Z" fill="#B5B9C5"></path>
<path id="group_194" d="M282.435 547.482L324.778 530.842V541.12L282.435 557.759V547.482Z" fill="#6F7178"></path>
<path id="group_195" d="M324.778 519.027V529.374L282.435 546.084V535.666L324.778 519.027Z" fill="#6F7178"></path>
<path id="group_196" d="M324.778 517.629L282.435 534.268V523.921L324.778 507.282V517.629Z" fill="#6F7178"></path>
<path id="group_197" d="M324.778 505.813L282.435 522.453V511.337L324.778 494.697V505.813Z" fill="#6F7178"></path>
<path id="group_198" d="M307.554 505.534C307.349 505.464 306.938 505.464 306.528 505.604C305.708 505.953 305.093 506.722 305.093 507.352C305.093 507.631 305.298 507.911 305.503 507.981L303.145 507.072C302.94 506.932 302.735 506.722 302.735 506.373C302.735 505.744 303.35 504.974 304.17 504.695C304.58 504.485 304.99 504.485 305.298 504.625L307.554 505.534Z" fill="#E4E9F8"></path>
<path id="group_199" d="M306.528 505.604C307.348 505.324 308.066 505.534 308.066 506.163C308.066 506.792 307.348 507.631 306.528 507.911C305.708 508.261 305.093 507.981 305.093 507.352C305.093 506.722 305.708 505.953 306.528 505.604Z" fill="#B5B9C5"></path>
<path id="group_200" d="M409.773 458.342V514.692L344.156 488.825V432.474L409.773 458.342Z" fill="#6F7178"></path>
<path id="group_201" d="M413.463 456.874V513.224L409.772 514.692V458.342L413.463 456.874Z" fill="#B5B9C5"></path>
<g id="group_202" style="mix-blend-mode:multiply" opacity="0.4">
<path d="M328.366 491.481V502.318L278.744 521.824L278.538 521.963L213.126 496.165V485.399L278.538 511.127L278.744 510.987L328.366 491.481Z" fill="#666666"></path>
</g>
<path id="group_203" d="M208 483.301L278.538 511.057V514.063L208 486.238V483.301Z" fill="#6F7178"></path>
<path id="group_204" d="M348.462 428L419 455.825L278.538 511.057L208 483.301L348.462 428Z" fill="#E4E9F8"></path>
<path id="group_205" d="M278.538 511.057L419 455.826V458.762L278.538 514.063V511.057Z" fill="#B5B9C5"></path>
<path id="group_206" d="M307.553 541.26C307.348 541.12 306.938 541.19 306.528 541.329C305.708 541.609 305.093 542.378 305.093 543.077C305.093 543.357 305.298 543.567 305.503 543.707L303.145 542.728C302.94 542.658 302.735 542.448 302.735 542.099C302.735 541.469 303.35 540.7 304.17 540.351C304.58 540.211 304.99 540.211 305.298 540.281L307.553 541.26Z" fill="#E4E9F8"></path>
<path id="group_207" d="M306.528 541.329C307.348 540.98 308.066 541.259 308.066 541.889C308.066 542.518 307.348 543.287 306.528 543.637C305.708 543.916 305.093 543.706 305.093 543.077C305.093 542.378 305.708 541.609 306.528 541.329Z" fill="#B5B9C5"></path>
<path id="group_208" d="M307.553 529.374C307.348 529.234 306.938 529.234 306.528 529.444C305.708 529.724 305.093 530.493 305.093 531.122C305.093 531.472 305.298 531.681 305.503 531.821L303.145 530.842C302.94 530.773 302.735 530.493 302.735 530.213C302.735 529.584 303.35 528.815 304.17 528.465C304.58 528.326 304.99 528.326 305.298 528.396L307.553 529.374Z" fill="#E4E9F8"></path>
<path id="group_209" d="M306.528 529.444C307.348 529.095 308.066 529.374 308.066 530.003C308.066 530.633 307.348 531.402 306.528 531.751C305.708 532.031 305.093 531.751 305.093 531.122C305.093 530.493 305.708 529.724 306.528 529.444Z" fill="#B5B9C5"></path>
<path id="group_210" d="M307.553 517.419C307.348 517.349 306.938 517.349 306.528 517.489C305.708 517.839 305.093 518.608 305.093 519.237C305.093 519.586 305.298 519.796 305.503 519.866L303.145 518.957C302.94 518.817 302.735 518.608 302.735 518.328C302.735 517.699 303.35 516.93 304.17 516.58C304.58 516.44 304.99 516.37 305.298 516.51L307.553 517.419Z" fill="#E4E9F8"></path>
<path id="group_211" d="M306.528 517.489C307.348 517.209 308.066 517.489 308.066 518.118C308.066 518.747 307.348 519.516 306.528 519.796C305.708 520.146 305.093 519.866 305.093 519.237C305.093 518.608 305.708 517.839 306.528 517.489Z" fill="#B5B9C5"></path>
</g>
<g class="lamp none">
<path id="group_212" d="M254.926 486.237C248.774 488.684 238.829 488.684 232.677 486.237C228.371 484.559 227.038 482.182 228.679 480.084L230.422 477.707H232.062C232.267 477.614 232.472 477.521 232.677 477.427C238.829 474.98 248.774 474.98 254.926 477.427C255.131 477.521 255.336 477.614 255.541 477.707H257.181L258.924 480.084C260.565 482.182 259.232 484.559 254.926 486.237V486.237Z" fill="#D8D8D8"></path>
<path id="group_213" d="M253.695 475.33C259.129 477.497 259.129 480.993 253.695 483.09C248.159 485.258 239.444 485.258 234.01 483.09C228.474 480.993 228.474 477.497 234.01 475.33C239.444 473.233 248.159 473.233 253.695 475.33Z" fill="#444444"></path>
<path id="group_214" d="M252.875 480.643C253.9 481.063 253.9 481.692 252.875 482.042C251.85 482.461 250.312 482.461 249.286 482.042C248.261 481.692 248.261 481.063 249.286 480.643C250.312 480.224 251.85 480.224 252.875 480.643Z" fill="white"></path>
<path id="group_215" d="M252.157 480.364C252.773 480.574 252.773 480.923 252.157 481.203C251.542 481.413 250.619 481.413 250.004 481.203C249.389 480.923 249.389 480.574 250.004 480.364C250.619 480.084 251.542 480.084 252.157 480.364Z" fill="#3E3E3E"></path>
<path id="group_216" d="M247.749 455.195L251.542 453.657C245.186 456.174 242.417 462.746 243.238 476.798L239.342 478.336C238.624 464.214 241.392 457.712 247.749 455.195V455.195Z" fill="#545454"></path>
<path id="group_217" d="M256.361 451.769L260.154 450.301L261.282 452.329L257.386 453.867L256.361 451.769Z" fill="#E0E0E0"></path>
<path id="group_218" d="M244.57 453.447L248.364 451.909C251.44 450.651 255.336 450.231 260.154 450.301L256.361 451.769C251.542 451.769 247.646 452.189 244.57 453.447Z" fill="#3A4D5C"></path>
<path id="group_219" d="M256.361 451.769L257.386 453.867C244.16 453.587 238.316 458.411 239.341 478.336L234.728 476.519C234.728 457.013 240.469 451.63 256.361 451.769Z" fill="#E0E0E0"></path>
<path id="group_220" d="M254.106 466.311C252.568 463.025 253.388 458.97 255.643 454.356L266.921 451.28C272.253 453.168 276.866 455.545 280.147 459.04C279.327 462.186 261.077 467.5 254.106 466.311Z" fill="#3E3E3E"></path>
<g id="group_221" style="mix-blend-mode:screen" opacity="0.2">
<path d="M279.122 459.18C278.814 459.67 277.892 460.299 276.559 460.998C276.627 460.951 276.661 460.928 276.661 460.928C274.098 457.642 270.612 454.915 266.101 452.608L266.921 451.979C272.355 453.937 276.354 456.314 279.122 459.18Z" fill="white"></path>
</g>
<path id="group_222" d="M257.181 446.386C259.027 445.827 263.23 445.547 264.871 447.924L266.921 451.28C266.614 452.958 258.822 455.195 255.643 454.356L253.9 451.28C252.875 448.553 255.336 446.945 257.181 446.386Z" fill="#D8D8D8"></path>
<g id="group_223" style="mix-blend-mode:screen" opacity="0.2">
<path d="M265.999 451.35C265.794 451.63 265.383 451.909 264.768 452.189L262.615 448.553C261.692 447.155 259.847 446.875 258.412 446.875C258.207 446.875 258.002 446.899 257.796 446.945C258.412 446.736 259.232 446.666 260.052 446.666C261.385 446.666 263.128 446.875 264.051 448.134L265.999 451.35Z" fill="white"></path>
</g>
</g>
</g>
<g class="keyboard none">
<path id="group_224" d="M351.633 460.464L351.655 459.669L350.887 459.926L341.462 455.211C340.878 454.925 339.864 454.896 339.349 455.151L304.071 470.188L301.28 470.16L301.238 471.658C301.233 471.838 301.369 471.999 301.647 472.141L311.491 477.003C312.075 477.289 313.004 477.316 313.604 477.063L351.194 461.013C351.536 460.888 351.627 460.666 351.633 460.464Z" fill="#15323B"></path>
<path id="group_225" d="M339.454 454.264L301.658 469.437C301.058 469.612 301.046 470.059 301.632 470.331L311.522 474.961C312.108 475.234 313.042 475.26 313.643 475.022L351.354 459.847C351.955 459.608 351.966 459.224 351.38 458.952L341.575 454.324C340.988 454.052 339.97 454.023 339.454 454.264V454.264Z" fill="#5C8896"></path>
<path id="group_226" d="M342.936 460.247L341.67 459.955L340.475 460.177L340.468 460.433L341.639 461.042L342.928 460.503L342.936 460.247Z" fill="#15323B"></path>
<path id="group_227" d="M344.655 459.528L343.474 459.239L342.279 459.461L342.27 459.78L343.443 460.325L344.646 459.848L344.655 459.528Z" fill="#15323B"></path>
<path id="group_228" d="M346.457 458.876L345.191 458.584L343.996 458.806L343.989 459.062L345.162 459.607L346.449 459.132L346.457 458.876Z" fill="#15323B"></path>
<path id="group_229" d="M341.678 459.7L340.475 460.177L341.649 460.722L342.936 460.247L341.678 459.7Z" fill="#325B69"></path>
<path id="group_230" d="M343.481 458.983L342.279 459.461L343.45 460.07L344.654 459.528L343.481 458.983Z" fill="#325B69"></path>
<path id="group_231" d="M345.2 458.265L343.996 458.806L345.169 459.351L346.456 458.876L345.2 458.265Z" fill="#325B69"></path>
<path id="group_232" d="M341.259 459.496L340.078 459.207L338.883 459.428L338.874 459.748L340.047 460.293L341.249 459.815L341.259 459.496Z" fill="#15323B"></path>
<path id="group_233" d="M343.061 458.843L341.88 458.554L340.6 458.774L340.593 459.029L341.851 459.577L343.053 459.099L343.061 458.843Z" fill="#15323B"></path>
<path id="group_234" d="M344.78 458.125L343.599 457.835L342.404 458.057L342.396 458.313L343.57 458.858L344.772 458.38L344.78 458.125Z" fill="#15323B"></path>
<path id="group_235" d="M346.583 457.408L345.402 457.119L344.122 457.339L344.115 457.594L345.373 458.142L346.576 457.664L346.583 457.408Z" fill="#15323B"></path>
<path id="group_236" d="M340.085 458.951L338.883 459.428L340.054 460.037L341.259 459.496L340.085 458.951Z" fill="#325B69"></path>
<path id="group_237" d="M341.889 458.235L340.6 458.774L341.858 459.321L343.061 458.843L341.889 458.235Z" fill="#325B69"></path>
<path id="group_238" d="M343.606 457.58L342.404 458.057L343.577 458.602L344.779 458.125L343.606 457.58Z" fill="#325B69"></path>
<path id="group_239" d="M345.41 456.864L344.122 457.339L345.381 457.886L346.583 457.408L345.41 456.864Z" fill="#325B69"></path>
<path id="group_240" d="M339.582 458.745L338.401 458.455L337.206 458.677L337.199 458.933L338.372 459.478L339.575 459L339.582 458.745Z" fill="#15323B"></path>
<path id="group_241" d="M341.386 458.028L340.205 457.739L339.01 457.961L339.003 458.217L340.176 458.762L341.378 458.284L341.386 458.028Z" fill="#15323B"></path>
<path id="group_242" d="M343.105 457.31L341.924 457.02L340.729 457.242L340.721 457.498L341.895 458.043L343.097 457.565L343.105 457.31Z" fill="#15323B"></path>
<path id="group_243" d="M344.908 456.593L343.727 456.304L342.532 456.526L342.525 456.782L343.696 457.391L344.901 456.849L344.908 456.593Z" fill="#15323B"></path>
<path id="group_244" d="M338.408 458.2L337.206 458.677L338.379 459.222L339.582 458.745L338.408 458.2Z" fill="#325B69"></path>
<path id="group_245" d="M340.212 457.483L339.01 457.961L340.183 458.506L341.386 458.028L340.212 457.483Z" fill="#325B69"></path>
<path id="group_246" d="M341.931 456.765L340.729 457.242L341.902 457.787L343.105 457.31L341.931 456.765Z" fill="#325B69"></path>
<path id="group_247" d="M343.734 456.048L342.532 456.526L343.705 457.071L344.908 456.593L343.734 456.048Z" fill="#325B69"></path>
<path id="group_248" d="M315.962 471.122L314.696 470.83L313.501 471.052L313.494 471.308L314.667 471.853L315.954 471.378L315.962 471.122Z" fill="#15323B"></path>
<path id="group_249" d="M317.681 470.403L316.5 470.114L315.305 470.336L315.297 470.591L316.471 471.136L317.673 470.659L317.681 470.403Z" fill="#15323B"></path>
<path id="group_250" d="M319.484 469.687L318.219 469.395L317.024 469.617L317.016 469.873L318.19 470.418L319.477 469.943L319.484 469.687Z" fill="#15323B"></path>
<path id="group_251" d="M321.203 468.968L320.022 468.679L318.827 468.901L318.82 469.157L319.993 469.701L321.196 469.224L321.203 468.968Z" fill="#15323B"></path>
<path id="group_252" d="M323.007 468.252L321.742 467.96L320.546 468.182L320.539 468.438L321.711 469.047L323 468.508L323.007 468.252Z" fill="#15323B"></path>
<path id="group_253" d="M324.726 467.533L323.545 467.244L322.35 467.466L322.341 467.785L323.514 468.33L324.717 467.853L324.726 467.533Z" fill="#15323B"></path>
<path id="group_254" d="M326.443 466.878L325.262 466.589L324.067 466.811L324.059 467.067L325.233 467.612L326.435 467.134L326.443 466.878Z" fill="#15323B"></path>
<path id="group_255" d="M328.161 466.16L326.981 465.87L325.786 466.092L325.778 466.348L326.95 466.957L328.154 466.415L328.161 466.16Z" fill="#15323B"></path>
<path id="group_256" d="M329.965 465.443L328.784 465.154L327.589 465.376L327.58 465.696L328.754 466.241L329.956 465.763L329.965 465.443Z" fill="#15323B"></path>
<path id="group_257" d="M331.682 464.789L330.503 464.435L329.306 464.721L329.299 464.977L330.473 465.522L331.675 465.044L331.682 464.789Z" fill="#15323B"></path>
<path id="group_258" d="M314.706 470.511L313.501 471.052L314.675 471.597L315.962 471.122L314.706 470.511Z" fill="#325B69"></path>
<path id="group_259" d="M316.507 469.858L315.305 470.336L316.478 470.881L317.68 470.403L316.507 469.858Z" fill="#325B69"></path>
<path id="group_260" d="M318.226 469.14L317.023 469.617L318.197 470.162L319.484 469.687L318.226 469.14Z" fill="#325B69"></path>
<path id="group_261" d="M320.03 468.423L318.827 468.901L320.001 469.446L321.203 468.968L320.03 468.423Z" fill="#325B69"></path>
<path id="group_262" d="M321.749 467.705L320.546 468.182L321.72 468.727L323.007 468.252L321.749 467.705Z" fill="#325B69"></path>
<path id="group_263" d="M323.552 466.988L322.35 467.466L323.522 468.075L324.726 467.533L323.552 466.988Z" fill="#325B69"></path>
<path id="group_264" d="M325.269 466.333L324.066 466.811L325.24 467.356L326.442 466.878L325.269 466.333Z" fill="#325B69"></path>
<path id="group_265" d="M326.988 465.615L325.785 466.092L326.959 466.637L328.161 466.16L326.988 465.615Z" fill="#325B69"></path>
<path id="group_266" d="M328.792 464.898L327.589 465.376L328.761 465.985L329.965 465.443L328.792 464.898Z" fill="#325B69"></path>
<path id="group_267" d="M330.51 464.18L329.306 464.721L330.48 465.266L331.682 464.789L330.51 464.18Z" fill="#325B69"></path>
<path id="group_268" d="M313.425 470.73L312.245 470.441L311.049 470.663L311.042 470.918L312.216 471.463L313.418 470.986L313.425 470.73Z" fill="#FFA100"></path>
<path id="group_269" d="M315.229 470.014L313.963 469.722L312.768 469.944L312.761 470.2L313.934 470.745L315.222 470.269L315.229 470.014Z" fill="#FFA100"></path>
<path id="group_270" d="M316.948 469.295L315.767 469.006L314.572 469.228L314.564 469.483L315.738 470.028L316.94 469.551L316.948 469.295Z" fill="#FFA100"></path>
<path id="group_271" d="M318.752 468.579L317.486 468.287L316.291 468.509L316.284 468.765L317.457 469.31L318.744 468.835L318.752 468.579Z" fill="#15323B"></path>
<path id="group_272" d="M320.47 467.86L319.29 467.571L318.094 467.793L318.087 468.048L319.259 468.657L320.463 468.116L320.47 467.86Z" fill="#15323B"></path>
<path id="group_273" d="M322.274 467.144L321.009 466.852L319.813 467.074L319.804 467.394L320.978 467.939L322.265 467.463L322.274 467.144Z" fill="#15323B"></path>
<path id="group_274" d="M323.906 466.487L322.726 466.197L321.53 466.419L321.523 466.675L322.697 467.22L323.899 466.742L323.906 466.487Z" fill="#15323B"></path>
<path id="group_275" d="M325.71 465.77L324.529 465.481L323.334 465.703L323.327 465.959L324.5 466.504L325.703 466.026L325.71 465.77Z" fill="#15323B"></path>
<path id="group_276" d="M327.429 465.052L326.248 464.762L325.053 464.984L325.046 465.24L326.217 465.849L327.422 465.307L327.429 465.052Z" fill="#15323B"></path>
<path id="group_277" d="M329.232 464.335L328.052 464.046L326.857 464.268L326.848 464.587L328.021 465.132L329.223 464.655L329.232 464.335Z" fill="#15323B"></path>
<path id="group_278" d="M330.949 463.68L329.769 463.391L328.574 463.613L328.566 463.869L329.74 464.414L330.942 463.936L330.949 463.68Z" fill="#15323B"></path>
<path id="group_279" d="M312.254 470.121L311.049 470.663L312.223 471.208L313.425 470.73L312.254 470.121Z" fill="#FFD25F"></path>
<path id="group_280" d="M313.971 469.467L312.768 469.944L313.942 470.489L315.229 470.014L313.971 469.467Z" fill="#FFD25F"></path>
<path id="group_281" d="M315.774 468.75L314.572 469.228L315.745 469.773L316.948 469.295L315.774 468.75Z" fill="#FFD25F"></path>
<path id="group_282" d="M317.493 468.031L316.291 468.509L317.464 469.054L318.752 468.579L317.493 468.031Z" fill="#325B69"></path>
<path id="group_283" d="M319.297 467.315L318.095 467.793L319.268 468.338L320.47 467.86L319.297 467.315Z" fill="#325B69"></path>
<path id="group_284" d="M321.016 466.596L319.813 467.074L320.985 467.683L322.274 467.144L321.016 466.596Z" fill="#325B69"></path>
<path id="group_285" d="M322.733 465.942L321.53 466.419L322.704 466.964L323.906 466.487L322.733 465.942Z" fill="#325B69"></path>
<path id="group_286" d="M324.536 465.225L323.334 465.703L324.507 466.248L325.71 465.77L324.536 465.225Z" fill="#325B69"></path>
<path id="group_287" d="M326.255 464.507L325.053 464.984L326.226 465.529L327.429 465.052L326.255 464.507Z" fill="#325B69"></path>
<path id="group_288" d="M328.059 463.79L326.857 464.268L328.028 464.877L329.232 464.335L328.059 463.79Z" fill="#325B69"></path>
<path id="group_289" d="M329.777 463.072L328.573 463.613L329.747 464.158L330.949 463.68L329.777 463.072Z" fill="#325B69"></path>
<path id="group_290" d="M334.084 460.955L332.819 460.663L331.624 460.885L331.615 461.205L332.788 461.75L334.075 461.275L334.084 460.955Z" fill="#15323B"></path>
<path id="group_291" d="M335.801 460.3L334.621 460.011L333.425 460.233L333.418 460.488L334.592 461.034L335.794 460.556L335.801 460.3Z" fill="#15323B"></path>
<path id="group_292" d="M337.605 459.584L336.339 459.292L335.144 459.514L335.137 459.77L336.31 460.315L337.597 459.84L337.605 459.584Z" fill="#15323B"></path>
<path id="group_293" d="M332.826 460.408L331.624 460.885L332.795 461.494L334.084 460.955L332.826 460.408Z" fill="#325B69"></path>
<path id="group_294" d="M334.63 459.691L333.425 460.233L334.599 460.778L335.801 460.3L334.63 459.691Z" fill="#325B69"></path>
<path id="group_295" d="M336.347 459.037L335.144 459.514L336.318 460.059L337.605 459.584L336.347 459.037Z" fill="#325B69"></path>
<path id="group_296" d="M329.837 466.975L328.656 466.685L318.183 470.673L318.176 470.929L319.349 471.474L329.828 467.294L329.837 466.975Z" fill="#FFA100"></path>
<path id="group_297" d="M310.891 470.275L309.71 469.985L308.515 470.207L308.508 470.463L309.681 471.008L310.883 470.53L310.891 470.275Z" fill="#15323B"></path>
<path id="group_298" d="M312.694 469.558L311.428 469.266L310.233 469.488L310.226 469.744L311.399 470.289L312.687 469.814L312.694 469.558Z" fill="#FFA100"></path>
<path id="group_299" d="M314.413 468.839L313.232 468.55L312.037 468.772L312.03 469.028L313.201 469.637L314.406 469.095L314.413 468.839Z" fill="#15323B"></path>
<path id="group_300" d="M316.217 468.123L314.951 467.831L313.756 468.053L313.747 468.373L314.921 468.918L316.208 468.443L316.217 468.123Z" fill="#15323B"></path>
<path id="group_301" d="M317.934 467.468L316.753 467.179L315.558 467.401L315.551 467.657L316.724 468.202L317.927 467.724L317.934 467.468Z" fill="#15323B"></path>
<path id="group_302" d="M319.738 466.752L318.472 466.46L317.277 466.682L317.27 466.938L318.443 467.483L319.73 467.008L319.738 466.752Z" fill="#15323B"></path>
<path id="group_303" d="M321.371 466.031L320.191 465.742L318.995 465.964L318.986 466.283L320.16 466.828L321.362 466.351L321.371 466.031Z" fill="#15323B"></path>
<path id="group_304" d="M323.173 465.379L321.993 465.089L320.798 465.311L320.79 465.567L321.964 466.112L323.166 465.634L323.173 465.379Z" fill="#15323B"></path>
<path id="group_305" d="M324.892 464.66L323.712 464.37L322.516 464.592L322.509 464.848L323.683 465.393L324.885 464.915L324.892 464.66Z" fill="#15323B"></path>
<path id="group_306" d="M326.696 463.944L325.515 463.654L324.32 463.876L324.313 464.132L325.486 464.677L326.688 464.199L326.696 463.944Z" fill="#15323B"></path>
<path id="group_307" d="M328.415 463.225L327.234 462.935L326.039 463.157L326.032 463.413L327.205 463.958L328.407 463.48L328.415 463.225Z" fill="#15323B"></path>
<path id="group_308" d="M330.219 462.509L329.038 462.219L327.843 462.441L327.835 462.697L329.007 463.306L330.211 462.764L330.219 462.509Z" fill="#15323B"></path>
<path id="group_309" d="M308.614 469.698L307.434 469.409L306.154 469.628L306.146 469.884L307.405 470.432L308.607 469.954L308.614 469.698Z" fill="#15323B"></path>
<path id="group_310" d="M310.333 468.98L309.152 468.69L307.957 468.912L307.95 469.168L309.122 469.777L310.326 469.235L310.333 468.98Z" fill="#15323B"></path>
<path id="group_311" d="M312.137 468.263L310.956 467.974L309.676 468.193L309.667 468.513L310.926 469.06L312.128 468.583L312.137 468.263Z" fill="#15323B"></path>
<path id="group_312" d="M313.854 467.608L312.673 467.319L311.478 467.541L311.471 467.797L312.644 468.342L313.847 467.864L313.854 467.608Z" fill="#15323B"></path>
<path id="group_313" d="M315.658 466.892L314.477 466.603L313.197 466.822L313.19 467.078L314.448 467.625L315.651 467.148L315.658 466.892Z" fill="#15323B"></path>
<path id="group_314" d="M317.376 466.173L316.196 465.884L315 466.106L314.993 466.362L316.167 466.907L317.369 466.429L317.376 466.173Z" fill="#15323B"></path>
<path id="group_315" d="M319.095 465.455L317.915 465.165L316.719 465.387L316.71 465.707L317.884 466.252L319.086 465.774L319.095 465.455Z" fill="#15323B"></path>
<path id="group_316" d="M320.897 464.802L319.632 464.511L318.436 464.732L318.429 464.988L319.603 465.533L320.89 465.058L320.897 464.802Z" fill="#15323B"></path>
<path id="group_317" d="M322.616 464.084L321.435 463.794L320.24 464.016L320.232 464.272L321.406 464.817L322.608 464.339L322.616 464.084Z" fill="#15323B"></path>
<path id="group_318" d="M324.42 463.367L323.154 463.075L321.959 463.297L321.952 463.553L323.125 464.098L324.412 463.623L324.42 463.367Z" fill="#15323B"></path>
<path id="group_319" d="M326.139 462.649L324.958 462.359L323.763 462.581L323.756 462.837L324.929 463.382L326.131 462.904L326.139 462.649Z" fill="#15323B"></path>
<path id="group_320" d="M327.942 461.932L326.676 461.64L325.481 461.862L325.474 462.118L326.646 462.727L327.935 462.188L327.942 461.932Z" fill="#15323B"></path>
<path id="group_321" d="M331.937 461.79L330.757 461.5L329.561 461.722L329.554 461.978L330.726 462.587L331.93 462.045L331.937 461.79Z" fill="#15323B"></path>
<path id="group_322" d="M309.258 470.932L307.993 470.64L306.11 471.162L306.102 471.418L307.361 471.965L309.251 471.187L309.258 470.932Z" fill="#15323B"></path>
<path id="group_323" d="M330.26 461.038L329.081 460.685L327.113 461.205L327.106 461.461L328.364 462.008L330.253 461.294L330.26 461.038Z" fill="#15323B"></path>
<path id="group_324" d="M333.613 462.605L332.432 462.315L330.293 462.894L330.285 463.15L331.459 463.695L333.605 462.861L333.613 462.605Z" fill="#15323B"></path>
<path id="group_325" d="M311.708 471.385L310.528 471.096L307.787 471.913L307.78 472.169L308.951 472.778L311.701 471.641L311.708 471.385Z" fill="#15323B"></path>
<path id="group_326" d="M335.205 463.354L334.024 463.064L331.025 464.002L331.018 464.258L332.191 464.803L335.197 463.609L335.205 463.354Z" fill="#15323B"></path>
<path id="group_327" d="M314.158 471.838L312.978 471.549L309.379 472.662L309.37 472.982L310.629 473.529L314.151 472.094L314.158 471.838Z" fill="#15323B"></path>
<path id="group_328" d="M306.81 470.415L305.63 470.125L304.434 470.347L304.427 470.603L305.601 471.148L306.803 470.67L306.81 470.415Z" fill="#15323B"></path>
<path id="group_329" d="M306.262 468.8L304.975 469.275L305.729 469.616L306.932 469.139L306.262 468.8Z" fill="#15323B"></path>
<path id="group_330" d="M308.066 468.084L306.779 468.559L307.533 468.9L308.735 468.423L308.066 468.084Z" fill="#15323B"></path>
<path id="group_331" d="M309.869 467.367L308.582 467.843L309.337 468.184L310.539 467.706L309.869 467.367Z" fill="#15323B"></path>
<path id="group_332" d="M311.675 466.587L310.386 467.126L311.14 467.467L312.345 466.926L311.675 466.587Z" fill="#15323B"></path>
<path id="group_333" d="M313.479 465.871L312.19 466.41L312.944 466.751L314.149 466.21L313.479 465.871Z" fill="#15323B"></path>
<path id="group_334" d="M315.282 465.155L313.995 465.63L314.75 465.971L316.037 465.496L315.282 465.155Z" fill="#15323B"></path>
<path id="group_335" d="M317.001 464.436L315.797 464.977L316.466 465.316L317.756 464.777L317.001 464.436Z" fill="#15323B"></path>
<path id="group_336" d="M318.805 463.72L317.601 464.261L318.272 464.536L319.56 464.061L318.805 463.72Z" fill="#15323B"></path>
<path id="group_337" d="M321.37 463.089L320.608 463.003L319.413 463.225L319.406 463.481L320.076 463.82L321.363 463.344L321.37 463.089Z" fill="#15323B"></path>
<path id="group_338" d="M322.497 462.289L321.21 462.764L321.964 463.106L323.167 462.628L322.497 462.289Z" fill="#15323B"></path>
<path id="group_339" d="M324.301 461.573L323.014 462.048L323.768 462.389L324.971 461.912L324.301 461.573Z" fill="#15323B"></path>
<path id="group_340" d="M326.106 460.793L324.817 461.332L325.572 461.673L326.776 461.131L326.106 460.793Z" fill="#15323B"></path>
<path id="group_341" d="M327.823 460.138L326.536 460.613L327.29 460.954L328.493 460.477L327.823 460.138Z" fill="#15323B"></path>
<path id="group_342" d="M332.413 465.961L331.233 465.671L329.265 466.191L329.257 466.447L330.429 467.056L332.406 466.216L332.413 465.961Z" fill="#15323B"></path>
<path id="group_343" d="M334.56 465.126L333.38 464.837L331.67 465.236L331.663 465.492L332.836 466.037L334.553 465.382L334.56 465.126Z" fill="#15323B"></path>
<path id="group_344" d="M336.965 464.171L335.784 463.882L333.816 464.401L333.809 464.657L334.982 465.202L336.958 464.427L336.965 464.171Z" fill="#15323B"></path>
<path id="group_345" d="M314.288 473.249L313.107 472.96L311.139 473.48L311.132 473.735L312.303 474.344L314.281 473.505L314.288 473.249Z" fill="#FFA100"></path>
<path id="group_346" d="M316.435 472.415L315.254 472.125L313.544 472.525L313.537 472.78L314.71 473.325L316.427 472.67L316.435 472.415Z" fill="#15323B"></path>
<path id="group_347" d="M318.84 471.46L317.659 471.17L315.606 471.688L315.599 471.943L316.857 472.491L318.832 471.715L318.84 471.46Z" fill="#15323B"></path>
<path id="group_348" d="M339.027 463.334L337.846 463.045L336.651 463.267L336.644 463.522L337.817 464.067L339.02 463.59L339.027 463.334Z" fill="#FFA100"></path>
<path id="group_349" d="M340.831 462.618L339.65 462.328L338.37 462.548L338.363 462.803L339.621 463.351L340.823 462.873L340.831 462.618Z" fill="#FFA100"></path>
<path id="group_350" d="M339.07 461.8L337.89 461.511L336.695 461.733L336.687 461.988L337.861 462.533L339.063 462.056L339.07 461.8Z" fill="#FFA100"></path>
<path id="group_351" d="M342.55 461.899L341.369 461.61L340.174 461.832L340.166 462.087L341.34 462.632L342.542 462.155L342.55 461.899Z" fill="#FFA100"></path>
<path id="group_352" d="M332.322 460.202L331.142 459.912L329.946 460.134L329.939 460.39L331.113 460.935L332.315 460.457L332.322 460.202Z" fill="#15323B"></path>
<path id="group_353" d="M334.126 459.485L332.86 459.193L331.665 459.415L331.658 459.671L332.831 460.216L334.118 459.741L334.126 459.485Z" fill="#15323B"></path>
<path id="group_354" d="M335.845 458.767L334.664 458.477L333.469 458.699L333.461 458.955L334.635 459.5L335.837 459.022L335.845 458.767Z" fill="#15323B"></path>
<path id="group_355" d="M330.647 459.387L329.885 459.301L328.69 459.523L328.683 459.778L329.352 460.117L330.64 459.642L330.647 459.387Z" fill="#15323B"></path>
<path id="group_356" d="M332.366 458.668L331.604 458.582L330.409 458.804L330.402 459.06L331.156 459.401L332.358 458.923L332.366 458.668Z" fill="#15323B"></path>
<path id="group_357" d="M334.169 457.951L333.407 457.866L332.212 458.088L332.205 458.343L332.875 458.682L334.162 458.207L334.169 457.951Z" fill="#15323B"></path>
<path id="group_358" d="M334.084 460.955L332.819 460.663L331.624 460.885L331.615 461.205L332.788 461.75L334.075 461.275L334.084 460.955Z" fill="#15323B"></path>
<path id="group_359" d="M335.801 460.3L334.62 460.011L333.425 460.233L333.418 460.488L334.591 461.033L335.794 460.556L335.801 460.3Z" fill="#15323B"></path>
<path id="group_360" d="M337.605 459.584L336.339 459.292L335.144 459.514L335.137 459.77L336.31 460.315L337.597 459.84L337.605 459.584Z" fill="#15323B"></path>
<path id="group_361" d="M337.907 457.93L336.726 457.64L335.531 457.862L335.524 458.118L336.697 458.663L337.899 458.185L337.907 457.93Z" fill="#15323B"></path>
<path id="group_362" d="M339.625 457.211L338.445 456.922L337.249 457.144L337.242 457.399L338.414 458.008L339.618 457.467L339.625 457.211Z" fill="#15323B"></path>
<path id="group_363" d="M341.429 456.495L340.249 456.205L339.053 456.427L339.044 456.747L340.218 457.292L341.42 456.814L341.429 456.495Z" fill="#15323B"></path>
<path id="group_364" d="M343.146 455.84L341.966 455.551L340.77 455.772L340.763 456.028L341.936 456.573L343.139 456.096L343.146 455.84Z" fill="#15323B"></path>
<path id="group_365" d="M337.187 456.374L335.984 456.852L336.739 457.193L337.941 456.715L337.187 456.374Z" fill="#15323B"></path>
<path id="group_366" d="M338.99 455.658L337.787 456.135L338.457 456.474L339.659 455.997L338.99 455.658Z" fill="#15323B"></path>
<path id="group_367" d="M340.709 454.939L339.506 455.417L340.261 455.758L341.464 455.28L340.709 454.939Z" fill="#15323B"></path>
<path id="group_368" d="M346.415 460.346L345.149 460.054L342.236 460.995L342.228 461.25L343.4 461.859L346.406 460.665L346.415 460.346Z" fill="#15323B"></path>
<path id="group_369" d="M348.132 459.691L346.951 459.402L345.756 459.624L345.749 459.879L346.922 460.424L348.125 459.947L348.132 459.691Z" fill="#15323B"></path>
<path id="group_370" d="M349.935 458.975L346.994 457.868L345.799 458.09L345.792 458.345L348.641 459.705L349.928 459.23L349.935 458.975Z" fill="#15323B"></path>
<path id="group_371" d="M328.663 466.43L318.183 470.673L319.356 471.218L329.837 466.975L328.663 466.43Z" fill="#FFD25F"></path>
<path id="group_372" d="M309.718 469.73L308.515 470.207L309.689 470.752L310.891 470.275L309.718 469.73Z" fill="#325B69"></path>
<path id="group_373" d="M311.436 469.011L310.234 469.488L311.407 470.033L312.694 469.558L311.436 469.011Z" fill="#FFD25F"></path>
<path id="group_374" d="M313.24 468.295L312.037 468.772L313.209 469.381L314.413 468.84L313.24 468.295Z" fill="#325B69"></path>
<path id="group_375" d="M314.959 467.576L313.757 468.053L314.928 468.662L316.217 468.123L314.959 467.576Z" fill="#325B69"></path>
<path id="group_376" d="M316.762 466.86L315.558 467.401L316.732 467.946L317.934 467.468L316.762 466.86Z" fill="#325B69"></path>
<path id="group_377" d="M318.48 466.205L317.277 466.682L318.451 467.227L319.738 466.752L318.48 466.205Z" fill="#325B69"></path>
<path id="group_378" d="M320.198 465.486L318.996 465.964L320.168 466.572L321.372 466.031L320.198 465.486Z" fill="#325B69"></path>
<path id="group_379" d="M322.002 464.77L320.798 465.311L321.971 465.856L323.174 465.379L322.002 464.77Z" fill="#325B69"></path>
<path id="group_380" d="M323.719 464.115L322.517 464.592L323.69 465.137L324.893 464.66L323.719 464.115Z" fill="#325B69"></path>
<path id="group_381" d="M325.523 463.399L324.32 463.876L325.494 464.421L326.696 463.944L325.523 463.399Z" fill="#325B69"></path>
<path id="group_382" d="M327.242 462.68L326.039 463.157L327.213 463.702L328.415 463.225L327.242 462.68Z" fill="#325B69"></path>
<path id="group_383" d="M329.045 461.963L327.843 462.441L329.016 462.986L330.219 462.508L329.045 461.963Z" fill="#325B69"></path>
<path id="group_384" d="M307.441 469.153L306.153 469.628L307.412 470.176L308.614 469.698L307.441 469.153Z" fill="#325B69"></path>
<path id="group_385" d="M309.159 468.435L307.957 468.912L309.13 469.457L310.333 468.98L309.159 468.435Z" fill="#325B69"></path>
<path id="group_386" d="M310.963 467.718L309.676 468.193L310.932 468.805L312.136 468.263L310.963 467.718Z" fill="#325B69"></path>
<path id="group_387" d="M312.682 467L311.478 467.541L312.651 468.086L313.854 467.608L312.682 467Z" fill="#325B69"></path>
<path id="group_388" d="M314.484 466.347L313.197 466.822L314.455 467.37L315.657 466.892L314.484 466.347Z" fill="#325B69"></path>
<path id="group_389" d="M316.203 465.628L315 466.106L316.174 466.651L317.376 466.173L316.203 465.628Z" fill="#325B69"></path>
<path id="group_390" d="M317.922 464.91L316.719 465.387L317.891 465.996L319.095 465.455L317.922 464.91Z" fill="#325B69"></path>
<path id="group_391" d="M319.64 464.191L318.436 464.732L319.609 465.277L320.897 464.802L319.64 464.191Z" fill="#325B69"></path>
<path id="group_392" d="M321.442 463.539L320.239 464.016L321.413 464.561L322.615 464.084L321.442 463.539Z" fill="#325B69"></path>
<path id="group_393" d="M323.161 462.82L321.959 463.297L323.132 463.842L324.419 463.367L323.161 462.82Z" fill="#325B69"></path>
<path id="group_394" d="M324.965 462.104L323.762 462.581L324.936 463.126L326.138 462.649L324.965 462.104Z" fill="#325B69"></path>
<path id="group_395" d="M326.684 461.385L325.481 461.862L326.655 462.407L327.942 461.932L326.684 461.385Z" fill="#325B69"></path>
<path id="group_396" d="M330.764 461.245L329.562 461.722L330.733 462.331L331.938 461.79L330.764 461.245Z" fill="#325B69"></path>
<path id="group_397" d="M308 470.384L306.11 471.162L307.368 471.71L309.258 470.932L308 470.384Z" fill="#325B69"></path>
<path id="group_398" d="M329.089 460.43L327.114 461.205L328.372 461.752L330.26 461.038L329.089 460.43Z" fill="#325B69"></path>
<path id="group_399" d="M332.439 462.06L330.293 462.894L331.466 463.439L333.613 462.605L332.439 462.06Z" fill="#325B69"></path>
<path id="group_400" d="M310.535 470.84L307.787 471.913L308.959 472.522L311.708 471.385L310.535 470.84Z" fill="#325B69"></path>
<path id="group_401" d="M334.031 462.809L331.025 464.002L332.199 464.547L335.205 463.354L334.031 462.809Z" fill="#325B69"></path>
<path id="group_402" d="M312.987 471.23L309.379 472.662L310.636 473.273L314.158 471.838L312.987 471.23Z" fill="#325B69"></path>
<path id="group_403" d="M305.637 469.87L304.435 470.347L305.608 470.892L306.81 470.415L305.637 469.87Z" fill="#325B69"></path>
<path id="group_404" d="M306.269 468.544L304.981 469.02L305.736 469.361L306.939 468.883L306.269 468.544Z" fill="#325B69"></path>
<path id="group_405" d="M308.072 467.828L306.785 468.303L307.54 468.644L308.742 468.167L308.072 467.828Z" fill="#325B69"></path>
<path id="group_406" d="M309.878 467.048L308.589 467.587L309.344 467.928L310.548 467.387L309.878 467.048Z" fill="#325B69"></path>
<path id="group_407" d="M311.682 466.332L310.393 466.871L311.147 467.212L312.352 466.67L311.682 466.332Z" fill="#325B69"></path>
<path id="group_408" d="M313.485 465.615L312.196 466.154L312.953 466.432L314.155 465.954L313.485 465.615Z" fill="#325B69"></path>
<path id="group_409" d="M315.289 464.899L314.002 465.374L314.756 465.715L316.044 465.24L315.289 464.899Z" fill="#325B69"></path>
<path id="group_410" d="M317.008 464.18L315.804 464.722L316.473 465.06L317.762 464.521L317.008 464.18Z" fill="#325B69"></path>
<path id="group_411" d="M318.812 463.464L317.609 463.941L318.279 464.28L319.566 463.805L318.812 463.464Z" fill="#325B69"></path>
<path id="group_412" d="M320.615 462.748L319.412 463.225L320.082 463.564L321.369 463.089L320.615 462.748Z" fill="#325B69"></path>
<path id="group_413" d="M322.504 462.034L321.216 462.509L321.971 462.85L323.174 462.372L322.504 462.034Z" fill="#325B69"></path>
<path id="group_414" d="M324.308 461.317L323.02 461.792L323.775 462.134L324.979 461.592L324.308 461.317Z" fill="#325B69"></path>
<path id="group_415" d="M326.113 460.537L324.824 461.076L325.578 461.417L326.783 460.876L326.113 460.537Z" fill="#325B69"></path>
<path id="group_416" d="M327.83 459.882L326.543 460.357L327.297 460.698L328.5 460.221L327.83 459.882Z" fill="#325B69"></path>
<path id="group_417" d="M304.465 469.261L303.178 469.736L303.933 470.077L305.135 469.6L304.465 469.261Z" fill="#325B69"></path>
<path id="group_418" d="M331.24 465.416L329.265 466.191L330.438 466.736L332.413 465.961L331.24 465.416Z" fill="#325B69"></path>
<path id="group_419" d="M333.387 464.581L331.67 465.236L332.843 465.781L334.56 465.126L333.387 464.581Z" fill="#325B69"></path>
<path id="group_420" d="M335.792 463.626L333.816 464.401L334.99 464.946L336.965 464.171L335.792 463.626Z" fill="#325B69"></path>
<path id="group_421" d="M313.114 472.704L311.139 473.48L312.312 474.025L314.287 473.249L313.114 472.704Z" fill="#FFD25F"></path>
<path id="group_422" d="M315.261 471.87L313.544 472.525L314.717 473.069L316.434 472.415L315.261 471.87Z" fill="#325B69"></path>
<path id="group_423" d="M317.666 470.915L315.606 471.688L316.865 472.235L318.84 471.46L317.666 470.915Z" fill="#325B69"></path>
<path id="group_424" d="M337.853 462.789L336.651 463.267L337.824 463.812L339.027 463.334L337.853 462.789Z" fill="#FFD25F"></path>
<path id="group_425" d="M339.657 462.073L338.37 462.548L339.628 463.095L340.83 462.618L339.657 462.073Z" fill="#FFD25F"></path>
<path id="group_426" d="M337.897 461.255L336.695 461.733L337.868 462.278L339.07 461.8L337.897 461.255Z" fill="#FFD25F"></path>
<path id="group_427" d="M341.376 461.354L340.173 461.832L341.347 462.376L342.549 461.899L341.376 461.354Z" fill="#FFD25F"></path>
<path id="group_428" d="M331.15 459.593L329.946 460.134L331.12 460.679L332.322 460.202L331.15 459.593Z" fill="#325B69"></path>
<path id="group_429" d="M332.868 458.938L331.665 459.415L332.839 459.96L334.126 459.485L332.868 458.938Z" fill="#325B69"></path>
<path id="group_430" d="M334.671 458.222L333.469 458.699L334.642 459.244L335.845 458.767L334.671 458.222Z" fill="#325B69"></path>
<path id="group_431" d="M329.892 459.045L328.69 459.523L329.359 459.862L330.647 459.387L329.892 459.045Z" fill="#325B69"></path>
<path id="group_432" d="M331.611 458.327L330.409 458.804L331.163 459.145L332.366 458.668L331.611 458.327Z" fill="#325B69"></path>
<path id="group_433" d="M333.415 457.61L332.212 458.088L332.882 458.427L334.169 457.951L333.415 457.61Z" fill="#325B69"></path>
<path id="group_434" d="M332.826 460.408L331.623 460.885L332.795 461.494L334.084 460.955L332.826 460.408Z" fill="#325B69"></path>
<path id="group_435" d="M334.63 459.691L333.425 460.233L334.599 460.778L335.801 460.3L334.63 459.691Z" fill="#325B69"></path>
<path id="group_436" d="M336.347 459.037L335.144 459.514L336.318 460.059L337.605 459.584L336.347 459.037Z" fill="#325B69"></path>
<path id="group_437" d="M336.733 457.385L335.531 457.862L336.704 458.407L337.906 457.93L336.733 457.385Z" fill="#325B69"></path>
<path id="group_438" d="M338.452 456.666L337.25 457.144L338.423 457.689L339.625 457.211L338.452 456.666Z" fill="#325B69"></path>
<path id="group_439" d="M340.255 455.95L339.053 456.427L340.225 457.036L341.429 456.495L340.255 455.95Z" fill="#325B69"></path>
<path id="group_440" d="M341.975 455.231L340.77 455.772L341.944 456.317L343.146 455.84L341.975 455.231Z" fill="#325B69"></path>
<path id="group_441" d="M335.477 456.773L334.274 457.251L334.944 457.59L336.146 457.112L335.477 456.773Z" fill="#325B69"></path>
<path id="group_442" d="M337.195 456.055L335.991 456.596L336.746 456.937L337.95 456.396L337.195 456.055Z" fill="#325B69"></path>
<path id="group_443" d="M338.997 455.402L337.795 455.88L338.465 456.219L339.667 455.741L338.997 455.402Z" fill="#325B69"></path>
<path id="group_444" d="M340.716 454.684L339.514 455.161L340.269 455.503L341.471 455.025L340.716 454.684Z" fill="#325B69"></path>
<path id="group_445" d="M345.157 459.798L342.235 460.995L343.409 461.54L346.415 460.346L345.157 459.798Z" fill="#325B69"></path>
<path id="group_446" d="M346.96 459.082L345.756 459.624L346.929 460.169L348.132 459.691L346.96 459.082Z" fill="#325B69"></path>
<path id="group_447" d="M347.002 457.612L345.799 458.09L348.648 459.45L349.936 458.975L347.002 457.612Z" fill="#325B69"></path>
<path id="group_448" d="M303.933 470.077L303.178 469.736L303.171 469.992L303.925 470.333L305.128 469.855L305.135 469.6L303.933 470.077Z" fill="#15323B"></path>
<path id="group_449" d="M305.737 469.361L304.982 469.02L304.975 469.275L305.729 469.616L306.932 469.139L306.939 468.883L305.737 469.361Z" fill="#15323B"></path>
<path id="group_450" d="M309.344 467.928L308.589 467.587L308.582 467.843L309.337 468.184L310.539 467.706L310.548 467.387L309.344 467.928Z" fill="#15323B"></path>
<path id="group_451" d="M307.54 468.644L306.786 468.303L306.779 468.559L307.533 468.9L308.735 468.423L308.743 468.167L307.54 468.644Z" fill="#15323B"></path>
<path id="group_452" d="M311.147 467.212L310.393 466.871L310.386 467.126L311.14 467.467L312.344 466.926L312.352 466.67L311.147 467.212Z" fill="#15323B"></path>
<path id="group_453" d="M312.953 466.432L312.197 466.154L312.19 466.41L312.944 466.751L314.149 466.21L314.156 465.954L312.953 466.432Z" fill="#15323B"></path>
<path id="group_454" d="M314.757 465.715L314.002 465.374L313.995 465.63L314.749 465.971L316.037 465.496L316.044 465.24L314.757 465.715Z" fill="#15323B"></path>
<path id="group_455" d="M316.473 465.06L315.804 464.722L315.797 464.977L316.466 465.316L317.755 464.777L317.763 464.521L316.473 465.06Z" fill="#15323B"></path>
<path id="group_456" d="M318.279 464.28L317.609 463.941L317.6 464.261L318.272 464.536L319.559 464.061L319.567 463.805L318.279 464.28Z" fill="#15323B"></path>
<path id="group_457" d="M321.972 462.85L321.217 462.509L321.21 462.764L321.964 463.106L323.167 462.628L323.174 462.372L321.972 462.85Z" fill="#15323B"></path>
<path id="group_458" d="M323.775 462.134L323.021 461.792L323.013 462.048L323.768 462.389L324.97 461.912L324.979 461.592L323.775 462.134Z" fill="#15323B"></path>
<path id="group_459" d="M325.579 461.417L324.824 461.076L324.817 461.332L325.571 461.673L326.776 461.131L326.783 460.876L325.579 461.417Z" fill="#15323B"></path>
<path id="group_460" d="M327.298 460.698L326.543 460.357L326.536 460.613L327.29 460.954L328.493 460.477L328.5 460.221L327.298 460.698Z" fill="#15323B"></path>
<path id="group_461" d="M334.944 457.59L334.274 457.251L334.265 457.57L334.935 457.909L336.139 457.368L336.146 457.112L334.944 457.59Z" fill="#15323B"></path>
<path id="group_462" d="M336.746 456.937L335.991 456.596L335.984 456.852L336.739 457.193L337.941 456.715L337.95 456.396L336.746 456.937Z" fill="#15323B"></path>
<path id="group_463" d="M338.464 456.219L337.795 455.88L337.787 456.135L338.457 456.474L339.66 455.997L339.667 455.741L338.464 456.219Z" fill="#15323B"></path>
<path id="group_464" d="M340.269 455.502L339.514 455.161L339.507 455.417L340.261 455.758L341.464 455.28L341.471 455.025L340.269 455.502Z" fill="#15323B"></path>
</g>
</g>
<defs>
<linearGradient id="paint0_linear_18_1105" x1="477.5" y1="289.5" x2="749" y2="397.5" gradientUnits="userSpaceOnUse">
<stop stop-color="#73A2B4"></stop>
<stop offset="1" stop-color="#6E9BBD"></stop>
</linearGradient>
<linearGradient id="paint1_linear_18_1105" x1="477.5" y1="290" x2="207.5" y2="397" gradientUnits="userSpaceOnUse">
<stop stop-color="#93C1D1"></stop>
<stop offset="1" stop-color="#7794B1"></stop>
</linearGradient>
<linearGradient id="paint2_linear_18_1105" x1="688.192" y1="454.41" x2="720.732" y2="455.405" gradientUnits="userSpaceOnUse">
<stop stop-color="#90CCCC"></stop>
<stop offset="1" stop-color="#3A8797"></stop>
</linearGradient>
<linearGradient id="paint3_linear_18_1105" x1="695.333" y1="450.177" x2="714.438" y2="450.177" gradientUnits="userSpaceOnUse">
<stop stop-color="#90CCCC"></stop>
<stop offset="1" stop-color="#3A8797"></stop>
</linearGradient>
<linearGradient id="paint4_linear_18_1105" x1="682.267" y1="507.275" x2="686.673" y2="507.275" gradientUnits="userSpaceOnUse">
<stop stop-color="#F2E6D8"></stop>
<stop offset="1" stop-color="#C8AFA7"></stop>
</linearGradient>
<linearGradient id="paint5_linear_18_1105" x1="681.812" y1="503.712" x2="686.218" y2="503.712" gradientUnits="userSpaceOnUse">
<stop stop-color="#F35748"></stop>
<stop offset="1" stop-color="#9E1A25"></stop>
</linearGradient>
<linearGradient id="paint6_linear_18_1105" x1="689.94" y1="510.96" x2="694.346" y2="510.96" gradientUnits="userSpaceOnUse">
<stop stop-color="#F2E6D8"></stop>
<stop offset="1" stop-color="#C8AFA7"></stop>
</linearGradient>
<linearGradient id="paint7_linear_18_1105" x1="689.446" y1="507.397" x2="693.89" y2="507.397" gradientUnits="userSpaceOnUse">
<stop stop-color="#90CCCC"></stop>
<stop offset="1" stop-color="#3A8797"></stop>
</linearGradient>
<linearGradient id="paint8_linear_18_1105" x1="690.509" y1="505.235" x2="692.105" y2="505.235" gradientUnits="userSpaceOnUse">
<stop stop-color="#90CCCC"></stop>
<stop offset="1" stop-color="#3A8797"></stop>
</linearGradient>
<linearGradient id="paint9_linear_18_1105" x1="688.837" y1="505.113" x2="690.433" y2="505.113" gradientUnits="userSpaceOnUse">
<stop stop-color="#90CCCC"></stop>
<stop offset="1" stop-color="#3A8797"></stop>
</linearGradient>
<linearGradient id="paint10_linear_18_1105" x1="690.433" y1="504.656" x2="693.054" y2="504.656" gradientUnits="userSpaceOnUse">
<stop stop-color="#90CCCC"></stop>
<stop offset="1" stop-color="#3A8797"></stop>
</linearGradient>
</defs>
</svg>